<?xml version="1.0" encoding="UTF-8"?>
<svg id="Layer_1" xmlns="http://www.w3.org/2000/svg" version="1.1" viewBox="0 0 1161.6 704">
  <!-- Generator: Adobe Illustrator 29.0.1, SVG Export Plug-In . SVG Version: 2.1.0 Build 192)  -->
  <defs>
    <style>
      .st0 {
        fill: #f9c311;
      }

      .st1 {
        fill: #275c20;
      }

      .st2, .st3, .st4, .st5, .st6, .st7, .st8 {
        fill-rule: evenodd;
      }

      .st2, .st9 {
        fill: #ffde17;
      }

      .st10 {
        fill: #f14950;
      }

      .st3 {
        fill: #a56e37;
      }

      .st11, .st4 {
        fill: #461800;
      }

      .st12 {
        fill: #1c4606;
      }

      .st13 {
        fill: #f5c011;
      }

      .st14 {
        fill: #347a2a;
      }

      .st15 {
        fill: #0d5c9d;
      }

      .st16 {
        fill: #f1f2f2;
      }

      .st17 {
        fill: #bcbec0;
      }

      .st18 {
        fill: #628534;
      }

      .st5 {
        fill: #c1e3ff;
      }

      .st19 {
        fill: #fcc066;
      }

      .st20 {
        fill: #fff;
        isolation: isolate;
        opacity: .5;
      }

      .st21 {
        fill: #dc9120;
      }

      .st6, .st22 {
        fill: #c28c4e;
      }

      .st23 {
        fill: #83b245;
      }

      .st24 {
        fill: #0f0f0f;
      }

      .st25 {
        fill: #f8c111;
      }

      .st26 {
        fill: #939598;
      }

      .st27 {
        fill: #1c75bc;
      }

      .st28 {
        fill: #153505;
      }

      .st29 {
        fill: #b2151b;
      }

      .st30 {
        fill: #4991c9;
      }

      .st31 {
        fill: #ed1c24;
      }

      .st32 {
        fill: #445d37;
      }

      .st33 {
        fill: #b5d18f;
      }

      .st34 {
        fill: #5d9555;
      }

      .st35 {
        fill: #fbb040;
      }

      .st36, .st7 {
        fill: #e6e7e8;
      }

      .st37 {
        fill: #d1d3d4;
      }

      .st38 {
        fill: #f4bf11;
      }

      .st8 {
        fill: #6b2e0c;
      }
    </style>
  </defs>
  <path class="st0" d="M1063.3,210.2c1.2,4.4,1.6,8.9,1.6,13.4,0,96.6,0,193.2,0,289.7,0,20.2-12,40-32.2,47.9-5.6,2.2-11.3,3.4-17.3,3.5h-428.5c-4.2,0-7.9.8-11.7,2.5-61.5,27.3-123,54.5-184.6,81.8-20.3,9-40.5,17.9-60.8,26.9-1.1.5-2.2.9-3.5,1.4-.6-1.5.3-2.3.8-3.1,5.1-8.8,10.3-17.5,15.5-26.2,15.5-26.2,30.9-52.5,46.4-78.8.7-1.2,1.8-2.2,1.6-3.8-.9-1-2-.6-3-.6-8.4,0-16.9.2-25.3,0-19.2-.5-33.8-9.1-43.6-25.6-4.4-7.4-6.5-15.5-6.5-24.1,0-97.5.1-195,0-292.5,0-19.9,13.3-42.4,38.6-48.7,3.2-.8,6.4-1.3,9.7-1.2,2.2.1,4.4,0,6.6,0h555.1c1,.4,2,.8,3,1.3,22,11.6,44,23.1,65.9,34.8,3.1,1.7,6.2,2.5,9.8,2.4,19.4-.4,38.8-.7,58.1-1,1.1-.1,2.6,0,4.2,0h0ZM844.7,266.8c-.7,2-.4,3.9-.4,5.7v179.6c0,.9.2,1.8.4,3,4.7,0,9.2.1,13.8,0,4.5-.1,9,.4,13.6-.4,0-1.9.2-3.6.2-5.3v-65.6c0-1.7-.3-3.4.6-5.2,5.1-.3,10.3-.4,15.3.7,3.7.8,6.6,2.8,8.5,6.2,1,1.8,1.6,3.7,2.2,5.7,1.1,3.8,1.1,7.7,1.1,11.6,0,10.8,0,21.6,0,32.3,0,4,.3,8.1.6,12.2.2,2.7.9,5.2,2.1,7.6,4.2.6,24,.5,27.8-.1-.5-2.3-1.3-4.5-1.6-6.8-.5-4-.9-8.1-1-12.1,0-11.7,0-23.5,0-35.2s-.7-12.8-2.6-19c-2.2-7.3-6.2-13.2-12.9-17.1-.6-.4-1.1-.9-1.9-1.5.9-.7,1.5-1.2,2.1-1.6,6.4-4.2,10.3-10.3,12.6-17.5,1.5-5,2.4-10,2.5-15.2.2-7.7.2-15.3,0-23,0-5.2-.9-10.3-2.5-15.2-3.4-11-10.4-18.3-21.5-21.5-5.1-1.5-10.4-2.2-15.7-2.2h-39.8c-1.3-.4-2.4-.2-3.5,0h0ZM583.9,378.6c5.9-.6,11.2-.6,16.4.5,3.6.8,6.6,3,8.3,6.3,1,1.9,1.8,4,2.2,6.1.6,3,.9,6.2,1,9.3,0,7.5,0,15,0,22.5,0,6.5,0,13.1.2,19.7,0,4,.6,8.1,2.8,11.9h4.2c7.5,0,15-.1,22.5-.1s.3-.1.4-.2.2-.2.5-.6c-3-8-2.6-16.7-2.6-25.2v-27.2c0-5.6-.6-11.2-1.8-16.7-2-9.1-6.4-16.6-14.9-21.1-.3-.2-.5-.7-.9-1.1.6-.5,1-.8,1.6-1.2,6.7-4.2,10.7-10.4,13.1-17.7,1.2-3.9,2.1-7.9,2.2-11.9.2-7.6.5-15.3.4-23,0-6.1-.6-12.2-2.3-18.1-3.5-12-11.3-19.6-23.4-22.5-4.2-1-8.6-1.7-13-1.7-13.9-.2-27.8-.1-41.7-.1s-1.7.3-2.5.5c-.2.6-.3.9-.3,1.2,0,60.8,0,121.5,0,182.3,0,1.1,0,2.2,0,3.3s0,.3,0,.5c0,.1.2.2.7.7,2.5.3,5.4.1,8.3.1s6.2.1,9.4,0c2.9-.1,5.9.3,9-.3v-76.2h0ZM543.1,454.5c-9.5-62.5-18.9-124.6-28.3-186.8,0-.1,0-.3-.2-.4s-.2-.2-.8-.7c-2.8-.2-6.1-.1-9.3-.1h-10.3c-3.4,0-6.6-.1-9.9,0-3.4.1-6.8-.4-10.3.4-.2,1-.6,1.9-.7,2.8-9.2,61.1-18.4,122.2-27.6,183.3-.1.4.1.9.2,1.9,4.1.1,8.3.1,12.5,0s8.4.4,12.7-.3c.9-5.8,1.7-11.4,2.5-16.9s1.2-11.1,2.6-16.4c.7-.2,1.2-.3,1.6-.3h30.5c.6,0,1.1.3,1.9.5.8,5.7,1.4,11.2,2.4,16.7.9,5.5,1.1,11.1,2.6,16.4,4.7.6,23.7.5,27.9-.1h0ZM1024.3,317.4c0-4,.2-7.7,0-11.4-.5-7-1.7-14-4.6-20.4-4.5-9.9-11.8-16.3-22.3-19.2-7-2-14.2-2.1-21.4-1.4-2,.2-4,.7-6,1.2-11.4,3-19.2,10.1-23.6,21-2.7,6.6-3.7,13.5-4,20.6-.7,13.1,1.7,25.5,8.4,36.9,4.6,7.7,10.3,14.5,16.7,20.8,4.9,4.8,9.8,9.7,14.5,14.6,4.4,4.5,8.1,9.5,10.9,15.1,3.7,7.4,4.4,15.2,3.2,23.3-.2,1.4-.7,2.7-1.2,4-1.7,4.1-4.8,6.5-9.1,7.1-2,.3-4,.3-6.1.1-5.2-.4-8.8-3.2-10.4-8.1-.8-2.5-1.2-5.2-1.3-7.8-.2-4.2,0-8.4,0-12.7s-.2-1.8-.3-2.5c-.6-.2-.9-.4-1.2-.4-7.5,0-15,0-22.5.1-.7,0-1.4.3-2.3.6,0,7-.3,13.9.4,20.8.7,5.9,2.1,11.7,4.7,17.1,4.9,10.1,12.8,16.4,23.6,19,7.4,1.8,14.9,2,22.3.7,14.5-2.5,24.2-10.9,28.9-25,.2-.5.3-.9.4-1.3,3.4-12.1,3.5-24.4.8-36.6-1.6-7.3-5-13.8-9-20-5-7.8-11.3-14.5-17.9-20.9-4.9-4.8-9.7-9.8-14.3-14.8-3.3-3.6-6-7.6-8-12.1-3.4-7.5-4.4-15.3-2.7-23.3.5-2.1,1.3-4.2,2.4-6,3.8-6.5,17.6-6.4,21.3-.1,1.1,1.8,2.1,3.9,2.4,6,.6,3.4.6,6.8.9,10.2,0,1.7-.3,3.4.4,4.9,4.3.5,21.4.5,26.2-.1h0ZM409.3,385.2v4.9c0,7.5.1,15-.1,22.5-.1,2.8-.4,5.6-1.1,8.3-1.5,5.5-5.2,8.4-10.8,8.8-1.9.2-3.8.1-5.6-.1-4.6-.5-7.8-3.1-9.4-7.4-.6-1.6-1-3.3-1.2-5-.3-3-.5-5.9-.5-8.9v-94.7c0-3.1.1-6.2.5-9.4,1.2-9.1,6.2-13.4,15.2-12.8,6.2.4,10.3,3.3,11.9,9.4.7,2.7,1,5.5,1.1,8.3.2,5.9,0,11.9.1,17.8,0,.9.2,1.8.3,3,4.4.3,8.6.2,12.8.2s8.7.4,12.8-.3c.2-.6.4-.9.4-1.2-.1-8.4.1-16.9-.3-25.3-.3-6.2-1.9-12.4-4.6-18.1-4.5-9.6-11.8-16-22-18.9-9.7-2.7-19.5-2.7-29.1,0-10,2.9-17.3,9.2-21.7,18.6-1.2,2.7-2.2,5.5-3,8.4-1.8,6-2.1,12.3-2.1,18.6v98c0,2.7,0,5.3.3,8,.6,6.9,2.1,13.5,5.3,19.8,4.9,9.6,12.8,15.5,23.2,18.1,4.1,1,8.4,1.4,12.5,1.4,3.7-.1,7.5-.4,11.2-1.1,14-2.7,23-11.2,27.5-24.6,2-6.1,3-12.4,3-18.9v-24.9c0-.9-.2-1.8-.3-2.5-4.8-.7-21.9-.7-26.3,0h0ZM751.3,266.9c-.7,1.9-.4,3.8-.4,5.6v179.5c0,.9.2,1.8.4,2.8,1,.1,1.7.2,2.5.2h70.3c.9,0,1.8-.2,2.9-.4,0-3.2,0-6.1,0-9.1s0-5.6,0-8.4c0-2.9.5-5.9-.6-9-1.6,0-3.2-.1-4.7-.1h-38c-1.5,0-3.1.4-4.7-.6,0-.6-.2-1.2-.2-1.8v-50.1c0-.7.3-1.4.6-2.4h33.9c1.2,0,2.5.3,3.8-1v-8.5c0-2.8,0-5.6,0-8.4,0-2.9.5-5.9-.5-9h-33.9c-1.2,0-2.4-.2-3.7-.3-.4-6-.2-11.8-.2-17.6v-16.9c0-5.7-.2-11.5.2-17.5,4.1-.3,8-.1,11.9-.2h23.9c3.9,0,7.8.3,11.8-.2,0-.8.4-1.6.4-2.3v-21.6c0-.9-.3-1.8-.6-2.9h-73.2c-.7-.1-1.3,0-2,.2h0ZM658.5,266.7c-.4.4-.5.5-.6.6,0,.5-.2.9-.2,1.4,0,61.7,0,123.4,0,185.1,0,.1,0,.3,0,.4s.2.2.5.6c.7,0,1.6.2,2.5.2h69.8c.9,0,1.8-.2,2.8-.4,0-1.2.2-2.1.2-3,0-7.5,0-15-.2-22.5,0-.2,0-.3,0-.4,0-.1-.2-.2-.7-.5-1.2,0-2.7-.1-4.3-.1h-38c-1.5,0-3.1.4-4.5-.6,0-.6-.3-1-.3-1.5v-50.6c0-.7.4-1.4.6-2.3h27.8c3.1,0,6.2.2,9.2-.2.3-.8.6-1.2.6-1.6v-23c0-.6-.2-1.2-.4-2.1-6.3-.2-12.5,0-18.7-.1s-12.4.3-18.8-.2c0-1-.3-1.7-.3-2.5v-47.3c0-.7.2-1.4.4-2.4h43.2c1.3,0,2.8.4,4.3-.9,0-4.1,0-8.5,0-12.8s.4-8.6-.4-12.9c-4.5-.6-56.8-.9-72.9-.4-.5-.1-1.2,0-1.7,0h0Z"/>
  <path class="st24" d="M216.6,324.3c9.5-30.6,18.9-61,28.4-91.5,5.9-.6,11.6-.2,17.3-.2,5.6-.1,11.2,0,17,0,.4,1.9-.4,3.2-.9,4.6-7.2,22.6-14.4,45.2-21.6,67.8-5,15.6-9.9,31.2-14.9,46.9-.9,2.6-.9,5-.1,7.7,13.2,40.4,26.2,81,39.2,121.6.5,1.5,1,2.9,1.3,4.4-.7.2-1.1.5-1.5.5h-37.6c-2.5-6.6-4.2-13.2-6.2-19.7-2.1-6.5-4-13.1-6-19.7s-4.1-13.1-6.1-19.7-4-13.1-6-19.7c-2-6.5-3.8-13-6.1-19.4-.4.1-.6,0-.7.1-.1,0-.3.2-.3.3-10.1,32.5-20.2,65-30.4,97.6-3,.5-5.9.2-8.9.2-2.8.1-5.6,0-8.4,0h-8.9c-2.8,0-5.6.1-8.1-.1-.7-1.3-.1-2.1.1-3,13.1-40.9,26.3-81.8,39.4-122.6.2-.6.3-1.2.6-1.8.9-2,.7-3.8.1-5.9-4-12.3-7.9-24.7-11.8-37-8.3-26-16.6-52-24.9-78.1-.5-1.5-.8-3-1.2-4.2.2-.4.3-.5.4-.6.1-.1.3-.2.4-.2,11.4-.1,22.8-.1,34.2-.1s2.2.1,3.4.2c.4,1.2.9,2.4,1.2,3.6,8.4,27.8,16.9,55.6,25.3,83.4.4,1.2.7,2.4,1.1,3.6,0,.2.5.5,1.2,1h0Z"/>
  <path class="st24" d="M123.2,345.2v36.1c-1.3.1-2.5.3-3.7.3h-39.4c-1.5,0-3.1,0-4.8.1-.6,1.9-.4,3.6-.4,5.2v93.7c0,1.7,0,3.4,0,5-3.6.7-30.5.9-37,.3,0-.8-.3-1.7-.3-2.5,0-.9,0-1.9,0-2.8v-247.7c1.1-.1,2-.4,2.8-.4h93.3c.8,0,1.6.1,2.5.1.2.6.5,1.2.5,1.7v32.8c0,.3-.1.6-.2,1-1.3,1.2-2.9.6-4.4.6h-51.6c-1.7,0-3.3.1-5,.2-.2.7-.4,1.1-.4,1.6v74.1c3.2,1,6.3.4,9.4.5,3.3.1,6.6,0,9.8,0h19.2c3.2,0,6.3,0,9.8,0h0Z"/>
  <path class="st24" d="M1144.7,136.7c-5.2.4-10.5.8-15.7,1.2-12.5.9-24.9,1.8-37.4,2.6-11.1.8-22.1,1.5-33.2,2.2-10.8.8-21.5,1.6-32.2,2.3-4,.3-8.1.5-12.1.9s-3.6-.6-5.3-1.4c-8.7-4.2-17.4-8.4-26.1-12.6-30.1-14.6-60.1-29.1-90.2-43.7-1.5-.7-3-1.6-5.1-2.6,1.8-.3,2.8-.6,3.8-.7,4.8-.4,9.6-.8,14.5-1.2,20.1-1.6,40.2-3.1,60.3-4.6,19.5-1.5,38.9-2.9,58.4-4.5,2.2-.2,3.9.7,5.7,1.6,13.7,7.1,27.4,14.2,41.2,21.3,23.3,12,46.6,24.1,69.9,36.1,1.4.7,2.7,1.5,4.1,2.2-.5.3-.5.6-.6.9h0Z"/>
  <path class="st24" d="M1063.3,210.2c-1.6-.1-3.1-.2-4.7-.1-19.4.3-38.8.5-58.1,1-3.6.1-6.6-.8-9.8-2.4-21.9-11.7-43.9-23.2-65.9-34.8-1-.5-2-.9-3-1.3,0-.8-.5-1.6-.4-2.2,2.9-13.4,5.9-26.8,8.9-40.2,0-.3.3-.6.6-1.1,1.6.2,3,1.3,4.4,2.1,21.9,11.9,43.8,23.8,65.7,35.9,2.7,1.5,5.3,2.1,8.4,1.8,15.5-1.3,31.1-2.5,46.6-3.7,9.8-.8,19.6-1.6,29.4-2.4,1.7-.1,3.4,0,5.4,0-.4,5.3-1.9,10.4-2.8,15.5-.9,5.2-2,10.4-3.1,15.6-1.1,5.1-1.8,10.4-3.4,15.6-4.1.1-7.9.2-11.8.3-2.1-.1-4.3.2-6.4.4h0Z"/>
  <path class="st24" d="M1124.6,252.4c-6.9-.8-13.7-2.5-20.9-3.7.3-1.3.4-2.3.7-3.3,8.8-26.7,17.5-53.4,26.3-80.1.5-1.5,1.1-2.8,1.9-4.9-.2,8.7-7.1,88.3-8,92h0Z"/>
  <path d="M844.7,266.8c1.2-.1,2.2-.2,3.3-.2h39.8c5.3,0,10.6.7,15.7,2.2,11.1,3.2,18.2,10.5,21.5,21.5,1.5,5,2.3,10.1,2.5,15.2.2,7.6.2,15.3,0,23,0,5.2-1,10.3-2.5,15.2-2.3,7.2-6.2,13.2-12.6,17.5-.6.4-1.2.9-2.1,1.6.8.6,1.3,1.1,1.9,1.5,6.7,3.9,10.7,9.9,12.9,17.1,1.9,6.2,2.6,12.5,2.6,19,0,11.7,0,23.5,0,35.2,0,4,.5,8.1,1,12.1.3,2.3,1,4.5,1.6,6.8-3.8.6-23.7.7-27.8.1-1.2-2.4-1.9-4.9-2.1-7.6-.3-4-.6-8.1-.6-12.2,0-10.8,0-21.6,0-32.3,0-3.9,0-7.9-1.1-11.6-.6-1.9-1.2-3.9-2.2-5.7-1.8-3.3-4.8-5.4-8.5-6.2-5-1-10.2-1-15.3-.7-.9,1.8-.6,3.6-.6,5.2v65.6c0,1.7,0,3.4-.2,5.3-4.7.8-9.2.3-13.6.4-4.5.1-9,0-13.8,0-.2-1.2-.3-2.1-.4-3,0-1.1,0-2.2,0-3.3v-176.3c.2-1.5-.1-3.4.6-5.4h0ZM872.5,293.6c0,1.2-.3,2-.3,2.8v52.5c0,.7.2,1.5.4,2.4,5.3.2,10.5.6,15.5-.4,4.8-1,8.1-3.8,9.8-8.4,1-2.8,1.6-5.7,1.6-8.7,0-7.8,0-15.6,0-23.4,0-2.8-.6-5.6-1.4-8.3-1.5-5.2-5.3-8-10.7-8.3-4.7-.3-9.5-.1-14.8-.2h0Z"/>
  <path d="M583.9,378.6v76c-3.2.6-6.1.3-9,.3-3.1.1-6.2,0-9.4,0s-5.9.2-8.3-.1c-.5-.5-.7-.6-.7-.7s0-.3,0-.5c0-1.1,0-2.2,0-3.3,0-60.8,0-121.5,0-182.3,0-.3.2-.6.3-1.2.7-.1,1.6-.5,2.5-.5,13.9,0,27.8-.1,41.7.1,4.3.1,8.7.7,13,1.7,12.1,2.9,19.9,10.5,23.4,22.5,1.8,5.9,2.3,12,2.3,18.1,0,7.6-.2,15.3-.4,23,0,4.1-1,8-2.2,11.9-2.3,7.4-6.4,13.5-13.1,17.7-.5.3-1,.7-1.6,1.2.3.5.5.9.9,1.1,8.5,4.5,12.8,12,14.9,21.1,1.2,5.5,1.8,11.1,1.8,16.7v27.2c0,8.6-.4,17.2,2.6,25.2-.3.4-.4.5-.5.6s-.3.2-.4.2c-7.5,0-15,.1-22.5.1h-4.2c-2.2-3.8-2.7-7.9-2.8-11.9-.2-6.5-.2-13.1-.2-19.7s0-15,0-22.5c0-3.1-.4-6.2-1-9.3-.4-2.1-1.2-4.2-2.2-6.1-1.7-3.4-4.6-5.5-8.3-6.3-5.2-.9-10.5-.9-16.4-.3h0ZM584.4,351.4c5.4-.2,10.5.5,15.6-.6,5-1,8.5-3.9,10-8.8.9-3,1.5-6.1,1.6-9.2.2-7.2.2-14.4,0-21.6,0-3.2-.7-6.5-1.6-9.6-1.5-5-5.3-7.7-10.4-8-4.8-.2-9.7,0-14.5.1-.2,0-.5.3-.7.5-.7,4.3-.6,52.9,0,57.2h0Z"/>
  <path d="M543.1,454.5c-4.3.6-23.2.7-27.9.1-1.5-5.3-1.7-10.9-2.6-16.4-.9-5.5-1.6-11.1-2.4-16.7-.8-.2-1.3-.5-1.9-.5h-30.5c-.5,0-.9.2-1.6.3-1.3,5.4-1.8,10.9-2.6,16.4-.8,5.5-1.6,11.1-2.5,16.9-4.3.7-8.5.2-12.7.3-4.2.1-8.4.1-12.5,0-.1-1-.2-1.5-.2-1.9,9.2-61.1,18.4-122.2,27.6-183.3.1-.9.5-1.8.7-2.8,3.4-.8,6.9-.3,10.3-.4,3.3-.1,6.5,0,9.9,0h10.3c3.2,0,6.5-.1,9.3.1.5.5.7.6.8.7s.2.3.2.4c9.4,62.2,18.8,124.4,28.3,186.8h0ZM505.7,394.7c.1-.5.3-.9.2-1.3-4.2-30.1-8.4-60.2-12.5-90.4-.3.3-.6.5-.7.7-.2.4-.3.9-.4,1.3-4.2,29.6-8.4,59.2-12.5,88.9v.5c.1.1.2.2.4.5.3.1.8.3,1.2.3h22.9c.5-.1.9-.3,1.4-.5h0Z"/>
  <path d="M1024.3,317.4c-4.8.7-21.9.6-25.9,0-.6-1.5-.2-3.3-.4-4.9-.3-3.4-.3-6.9-.9-10.2-.4-2.1-1.3-4.2-2.4-6-3.8-6.3-17.5-6.4-21.3.1-1.1,1.8-2,3.9-2.4,6-1.7,8-.7,15.8,2.7,23.3,2,4.5,4.7,8.5,8,12.1,4.7,5,9.4,10,14.3,14.8,6.6,6.4,12.9,13.1,17.9,20.9,4,6.2,7.4,12.7,9,20,2.7,12.3,2.5,24.5-.8,36.6,0,.5-.3.9-.4,1.3-4.7,14-14.3,22.4-28.9,25-7.4,1.3-15,1.1-22.3-.7-10.8-2.7-18.7-8.9-23.6-19-2.6-5.4-4-11.2-4.7-17.1-.8-6.8-.5-13.7-.4-20.8.9-.2,1.6-.6,2.3-.6,7.5-.1,15-.1,22.5-.1s.6.2,1.2.4c0,.7.3,1.6.3,2.5,0,4.2,0,8.4,0,12.7,0,2.6.5,5.3,1.3,7.8,1.6,5,5.1,7.7,10.4,8.1,2,.2,4.1.2,6.1-.1,4.4-.6,7.5-3,9.1-7.1.5-1.3,1-2.7,1.2-4,1.2-8.1.4-15.9-3.2-23.3-2.8-5.7-6.5-10.6-10.9-15.1-4.8-5-9.6-9.8-14.5-14.6-6.4-6.2-12-13.1-16.7-20.8-6.8-11.4-9.1-23.8-8.4-36.9.4-7.1,1.4-14,4-20.6,4.4-10.9,12.2-18,23.6-21,2-.5,4-1,6-1.2,7.2-.8,14.3-.6,21.4,1.4,10.4,2.9,17.8,9.4,22.3,19.2,3,6.5,4.2,13.4,4.6,20.4,0,3.8-.2,7.5-.2,11.5h0Z"/>
  <path d="M409.3,385.2c4.4-.7,21.4-.7,26-.1.1.8.3,1.7.3,2.5v24.9c0,6.5-.9,12.8-3,18.9-4.5,13.4-13.4,21.9-27.5,24.6-3.7.7-7.4,1-11.2,1.1-4.2.1-8.4-.3-12.5-1.4-10.4-2.6-18.3-8.5-23.2-18.1-3.2-6.2-4.7-12.9-5.3-19.8-.2-2.6-.3-5.3-.3-8v-98c0-6.3.4-12.5,2.1-18.6.8-2.8,1.8-5.7,3-8.4,4.4-9.4,11.7-15.7,21.7-18.6,9.7-2.8,19.4-2.8,29.1,0,10.2,2.9,17.5,9.3,22,18.9,2.7,5.7,4.3,11.8,4.6,18.1.4,8.4.2,16.9.3,25.3,0,.3-.2.6-.4,1.2-4.2.7-8.5.2-12.8.3-4.2,0-8.4.2-12.8-.2-.1-1.2-.3-2.1-.3-3,0-5.9.1-11.9-.1-17.8-.1-2.8-.4-5.6-1.1-8.3-1.7-6-5.7-9-11.9-9.4-9-.5-14,3.8-15.2,12.8-.4,3.1-.5,6.2-.5,9.4v94.7c0,3,.2,5.9.5,8.9.2,1.7.6,3.4,1.2,5,1.7,4.3,4.8,6.8,9.4,7.4,1.8.2,3.8.3,5.6.1,5.6-.5,9.3-3.3,10.8-8.8.7-2.7,1.1-5.5,1.1-8.3.2-7.5.1-15,.1-22.5.3-1.4.3-3,.3-4.8h0Z"/>
  <path d="M751.3,266.9c.7-.1,1.3-.3,1.9-.3h73.2c.2,1.1.6,2,.6,2.9v21.6c0,.8-.2,1.5-.4,2.3-4,.5-7.9.2-11.8.2-4.1.1-8.1,0-12.2,0h-11.7c-3.9,0-7.7-.2-11.9.2-.5,6-.2,11.8-.2,17.5v16.9c0,5.8-.2,11.5.2,17.6,1.3.1,2.5.3,3.7.3h33.9c1,3.1.5,6.1.5,9,0,2.8,0,5.6,0,8.4v8.5c-1.3,1.3-2.6,1-3.8,1h-33.9c-.2,1-.6,1.7-.6,2.4v50.1c0,.6.2,1.2.2,1.8,1.6,1,3.2.6,4.7.6h38c1.5,0,3.1.1,4.7.1,1.1,3.1.5,6,.6,9,0,2.8,0,5.6,0,8.4s0,5.9,0,9.1c-1.1.2-2,.4-2.9.4h-70.3c-.8,0-1.5-.2-2.5-.2,0-1-.4-1.9-.4-2.8,0-1.4,0-2.8,0-4.2v-175.3c.1-1.7-.2-3.6.5-5.5h0Z"/>
  <path d="M658.5,266.7c.5,0,1.2-.2,1.9-.2,16.1-.5,68.3-.2,72.9.4.8,4.2.3,8.5.4,12.9,0,4.3,0,8.7,0,12.8-1.5,1.3-3,.9-4.3.9h-43.2c-.2,1-.4,1.7-.4,2.4v47.3c0,.8.2,1.5.3,2.5,6.4.5,12.6.1,18.8.2s12.4-.1,18.7.1c.2,1,.4,1.5.4,2.1v23c0,.4-.3.9-.6,1.6-3,.4-6.1.2-9.2.2h-27.8c-.2.9-.6,1.6-.6,2.3v50.6c0,.5.2.9.3,1.5,1.4,1,3,.6,4.5.6h38c1.5,0,3.1.1,4.3.1.5.3.6.4.7.5s0,.3,0,.4c0,7.5,0,15,.2,22.5,0,.9,0,1.8-.2,3-1,.2-1.9.4-2.8.4h-69.8c-.9,0-1.8-.1-2.5-.2-.3-.3-.5-.5-.5-.6s0-.3,0-.4c0-61.7,0-123.4,0-185.1s0-.9.2-1.4c-.1.2,0,.1.4-.4h0Z"/>
  <path class="st25" d="M872.5,293.6c5.3,0,10.1-.2,14.9,0,5.4.3,9.2,3.1,10.7,8.3.8,2.7,1.3,5.5,1.4,8.3.2,7.8,0,15.6,0,23.4s-.6,5.9-1.6,8.7c-1.7,4.7-5,7.5-9.8,8.4-5.1,1-10.2.7-15.5.4-.2-.9-.4-1.6-.4-2.4v-52.5c-.1-.6,0-1.3.2-2.6h0Z"/>
  <path class="st38" d="M584.4,351.4c-.6-4.3-.7-52.9,0-57.2.2-.2.5-.5.7-.5,4.8-.1,9.7-.3,14.5-.1,5.2.2,9,2.9,10.4,8,.9,3.1,1.5,6.4,1.6,9.6.2,7.2.2,14.4,0,21.6,0,3.1-.7,6.2-1.6,9.2-1.4,4.9-5,7.8-10,8.8-5,1.1-10.2.5-15.5.6h0Z"/>
  <path class="st13" d="M505.7,394.7c-.5.2-.9.4-1.3.4h-22.9c-.4,0-.9-.2-1.2-.3-.2-.2-.4-.3-.4-.5s-.1-.3,0-.5c4.2-29.6,8.3-59.3,12.5-88.9.1-.5.2-.9.4-1.3.1-.2.4-.4.7-.7,4.2,30.2,8.4,60.3,12.5,90.4,0,.5-.2.9-.3,1.4h0Z"/>
  <g>
    <path class="st7" d="M847.7,571.5c2.6,3,10.6,5.2,20,5.2s16.9-2.1,19.7-5c7.9,0,15.6,0,23.1-.2,5,4.5,18.8,10.4,35,10.4s35.1-8.4,36.9-12.8c33-2,53.9-4.9,53.9-8.2,0-5.9-69.7-3.6-154.6-3.6s-153-2.3-153,3.6c0,5.3,50.9,9.5,119,10.6h0Z"/>
    <path class="st5" d="M881.6,562.1c65.7,0,123.4-1.1,153.9,0,.6-.4.8-.7.8-1.1,0-5.9-69.7-3.6-154.6-3.6s-153-2.3-153,3.6.3.7.8,1.1c30.2-1.1,86.8,0,152.1,0h0Z"/>
    <path class="st5" d="M917.9,573.9c-.6-2.7,5.3-5.4,13.1-6.2s14.6.8,15.2,3.5c.6,2.7-6.3.6-14.2,1.4-7.7.7-13.5,3.9-14.1,1.3h0Z"/>
    <path class="st5" d="M872.6,571.3c0,1.6-4.8,2.8-10.6,2.8s-10.6-1.3-10.6-2.8,4.8,0,10.6,0,10.6-1.5,10.6,0Z"/>
  </g>
  <g>
    <g>
      <g>
        <polygon class="st2" points="175.1 409.4 168 413.1 169.4 405.2 163.6 399.7 171.5 398.5 175.1 391.4 178.6 398.5 186.5 399.7 180.8 405.2 182.1 413.1 175.1 409.4"/>
        <g>
          <polygon class="st9" points="175.1 403.4 178.6 398.5 175.1 391.4 175.1 403.4"/>
          <polygon class="st9" points="175.1 403.4 171.5 398.5 163.6 399.7 175.1 403.4"/>
          <polygon class="st9" points="175.1 403.4 180.8 405.2 186.5 399.7 175.1 403.4"/>
          <polygon class="st9" points="175.1 403.4 175.1 403.4 175.1 409.4 182.1 413.1 175.1 403.4"/>
          <polygon class="st9" points="175.1 403.4 169.4 405.2 168 413.1 175.1 403.4"/>
        </g>
      </g>
      <g>
        <polygon class="st2" points="248.3 409.6 241.3 413.3 242.6 405.5 236.9 399.9 244.8 398.7 248.3 391.6 251.9 398.7 259.8 399.9 254.1 405.5 255.4 413.3 248.3 409.6"/>
        <g>
          <polygon class="st9" points="248.3 403.6 251.9 398.7 248.3 391.6 248.3 403.6"/>
          <polygon class="st9" points="248.3 403.6 244.8 398.7 236.9 399.9 248.3 403.6"/>
          <polygon class="st9" points="248.3 403.6 254.1 405.5 259.8 399.9 248.3 403.6"/>
          <polygon class="st9" points="248.3 403.6 248.3 403.6 248.3 409.6 255.4 413.3 248.3 403.6"/>
          <polygon class="st9" points="248.3 403.6 242.6 405.5 241.3 413.3 248.3 403.6"/>
        </g>
      </g>
      <g>
        <polygon class="st7" points="118.7 403 112.5 406.3 113.7 399.4 108.7 394.5 115.6 393.5 118.7 387.2 121.8 393.5 128.8 394.5 123.8 399.4 124.9 406.3 118.7 403"/>
        <g>
          <polygon class="st36" points="118.7 397.8 121.8 393.5 118.7 387.2 118.7 397.8"/>
          <polygon class="st36" points="118.7 397.8 115.6 393.5 108.7 394.5 118.7 397.8"/>
          <polygon class="st36" points="118.7 397.8 123.8 399.4 128.8 394.5 118.7 397.8"/>
          <polygon class="st36" points="118.7 397.8 118.7 397.8 118.7 403 124.9 406.3 118.7 397.8"/>
          <polygon class="st36" points="118.7 397.8 113.7 399.4 112.5 406.3 118.7 397.8"/>
        </g>
      </g>
    </g>
    <g>
      <g>
        <polygon class="st2" points="140.2 488.9 133.2 492.6 134.5 484.7 128.8 479.1 136.7 478 140.2 470.8 143.8 478 151.6 479.1 145.9 484.7 147.3 492.6 140.2 488.9"/>
        <g>
          <polygon class="st9" points="140.2 482.9 143.8 478 140.2 470.8 140.2 482.9"/>
          <polygon class="st9" points="140.2 482.9 136.7 478 128.8 479.1 140.2 482.9"/>
          <polygon class="st9" points="140.2 482.9 145.9 484.7 151.6 479.1 140.2 482.9"/>
          <polygon class="st9" points="140.2 482.9 140.2 482.9 140.2 488.9 147.3 492.6 140.2 482.9"/>
          <polygon class="st9" points="140.2 482.9 134.5 484.7 133.2 492.6 140.2 482.9"/>
        </g>
      </g>
      <g>
        <polygon class="st2" points="283.4 488.9 276.3 492.6 277.7 484.7 271.9 479.1 279.8 478 283.4 470.8 286.9 478 294.8 479.1 289.1 484.7 290.4 492.6 283.4 488.9"/>
        <g>
          <polygon class="st9" points="283.4 482.9 286.9 478 283.4 470.8 283.4 482.9"/>
          <polygon class="st9" points="283.4 482.9 279.8 478 271.9 479.1 283.4 482.9"/>
          <polygon class="st9" points="283.4 482.9 289.1 484.7 294.8 479.1 283.4 482.9"/>
          <polygon class="st9" points="283.4 482.9 283.4 482.9 283.4 488.9 290.4 492.6 283.4 482.9"/>
          <polygon class="st9" points="283.4 482.9 277.7 484.7 276.3 492.6 283.4 482.9"/>
        </g>
      </g>
      <g>
        <polygon class="st7" points="171 489.1 164.8 492.4 165.9 485.5 160.9 480.6 167.9 479.6 171 473.3 174.1 479.6 181 480.6 176 485.5 177.2 492.4 171 489.1"/>
        <g>
          <polygon class="st36" points="171 483.9 174.1 479.6 171 473.3 171 483.9"/>
          <polygon class="st36" points="171 483.9 167.9 479.6 160.9 480.6 171 483.9"/>
          <polygon class="st36" points="171 483.9 176 485.5 181 480.6 171 483.9"/>
          <polygon class="st36" points="171 483.9 171 483.9 171 489.1 177.2 492.4 171 483.9"/>
          <polygon class="st36" points="171 483.9 165.9 485.5 164.8 492.4 171 483.9"/>
        </g>
      </g>
      <g>
        <polygon class="st7" points="254.7 488.4 248.5 491.7 249.6 484.8 244.6 479.9 251.6 478.9 254.7 472.6 257.8 478.9 264.7 479.9 259.7 484.8 260.9 491.7 254.7 488.4"/>
        <g>
          <polygon class="st36" points="254.7 483.1 257.8 478.9 254.7 472.6 254.7 483.1"/>
          <polygon class="st36" points="254.7 483.1 251.6 478.9 244.6 479.9 254.7 483.1"/>
          <polygon class="st36" points="254.7 483.1 259.7 484.8 264.7 479.9 254.7 483.1"/>
          <polygon class="st36" points="254.7 483.1 254.7 483.1 254.7 488.4 260.9 491.7 254.7 483.1"/>
          <polygon class="st36" points="254.7 483.1 249.6 484.8 248.5 491.7 254.7 483.1"/>
        </g>
      </g>
    </g>
    <g>
      <g>
        <polygon class="st2" points="215.4 312.6 208.4 316.3 209.7 308.4 204 302.9 211.9 301.7 215.4 294.6 219 301.7 226.9 302.9 221.2 308.4 222.5 316.3 215.4 312.6"/>
        <g>
          <polygon class="st9" points="215.4 306.6 219 301.7 215.4 294.6 215.4 306.6"/>
          <polygon class="st9" points="215.4 306.6 211.9 301.7 204 302.9 215.4 306.6"/>
          <polygon class="st9" points="215.4 306.6 221.2 308.4 226.9 302.9 215.4 306.6"/>
          <polygon class="st9" points="215.4 306.6 215.4 306.6 215.4 312.6 222.5 316.3 215.4 306.6"/>
          <polygon class="st9" points="215.4 306.6 209.7 308.4 208.4 316.3 215.4 306.6"/>
        </g>
      </g>
      <g>
        <polygon class="st7" points="157.6 307.6 151.4 310.9 152.6 303.9 147.6 299 154.5 298 157.6 291.7 160.7 298 167.7 299 162.6 303.9 163.8 310.9 157.6 307.6"/>
        <g>
          <polygon class="st36" points="157.6 302.3 160.7 298 157.6 291.7 157.6 302.3"/>
          <polygon class="st36" points="157.6 302.3 154.5 298 147.6 299 157.6 302.3"/>
          <polygon class="st36" points="157.6 302.3 162.6 303.9 167.7 299 157.6 302.3"/>
          <polygon class="st36" points="157.6 302.3 157.6 302.3 157.6 307.6 163.8 310.9 157.6 302.3"/>
          <polygon class="st36" points="157.6 302.3 152.6 303.9 151.4 310.9 157.6 302.3"/>
        </g>
      </g>
      <g>
        <polygon class="st7" points="265 307.8 258.8 311 260 304.1 255 299.2 261.9 298.2 265 291.9 268.1 298.2 275.1 299.2 270.1 304.1 271.2 311 265 307.8"/>
        <g>
          <polygon class="st36" points="265 302.5 268.1 298.2 265 291.9 265 302.5"/>
          <polygon class="st36" points="265 302.5 261.9 298.2 255 299.2 265 302.5"/>
          <polygon class="st36" points="265 302.5 270.1 304.1 275.1 299.2 265 302.5"/>
          <polygon class="st36" points="265 302.5 265 302.5 265 307.8 271.2 311 265 302.5"/>
          <polygon class="st36" points="265 302.5 260 304.1 258.8 311 265 302.5"/>
        </g>
      </g>
    </g>
    <g>
      <path class="st9" d="M170.9,266.4c1.4,1.2,3,2.3,4.6,3.4,1.6,1,3.2,2,4.9,2.8,3.4,1.7,6.9,3.2,10.4,4.3,3.6,1.2,7.3,2.1,11,2.7,3.7.7,7.5,1,11.2,1.2h2.8c0,.1,2.8.1,2.8.1.9,0,1.9,0,2.8-.1s1.9-.1,2.8-.1c1.9-.2,3.8-.3,5.6-.5l2.8-.3,2.8-.5c7.4-1.2,14.8-3.1,21.9-5.6h.1c0,.1-2.6,1.2-2.6,1.2l-2.6,1c-1.8.6-3.6,1.2-5.4,1.8-3.6,1.1-7.3,2-11.1,2.8l-2.8.5c-.9.1-1.9.3-2.8.4-1.9.3-3.8.4-5.7.6-.9.1-1.9.1-2.9.2-1,0-1.9.1-2.9.1h-5.8c-3.8-.3-7.7-.7-11.4-1.4l-2.8-.6c-.9-.2-1.9-.5-2.8-.7-1.9-.5-3.7-1.1-5.5-1.7-3.6-1.3-7.1-2.9-10.4-4.8-1.6-1-3.3-2-4.8-3.1-.8-.6-1.5-1.1-2.3-1.7-.7-.6-1.4-1.3-2.1-1.9h0q0-.2.2,0Z"/>
      <g>
        <path class="st16" d="M238.1,284.8h0c-.9,0-1.6-.7-1.6-1.6v-4.2c0-.9.7-1.6,1.6-1.6h0c.9,0,1.6.7,1.6,1.6v4.1c0,.9-.7,1.7-1.6,1.7Z"/>
        <g>
          <circle class="st29" cx="238" cy="287.2" r="7.6"/>
          <circle class="st31" cx="237.5" cy="286.6" r="6.5"/>
          <circle class="st10" cx="236.5" cy="285.2" r="4.2"/>
          <circle class="st20" cx="234.7" cy="283.5" r="2.2"/>
        </g>
      </g>
      <g>
        <path class="st16" d="M181.4,279.9h0c-.9,0-1.6-.7-1.6-1.6v-4.1c0-.9.7-1.6,1.6-1.6h0c.9,0,1.6.7,1.6,1.6v4.1c0,.9-.7,1.6-1.6,1.6Z"/>
        <g>
          <circle class="st15" cx="181.4" cy="282.4" r="7.6"/>
          <circle class="st27" cx="180.8" cy="281.7" r="6.5"/>
          <circle class="st30" cx="179.8" cy="280.3" r="4.2"/>
          <path class="st20" d="M180.2,278.6c0,1.2-1,2.2-2.2,2.2s-2.2-1-2.2-2.2,1-2.2,2.2-2.2,2.2,1,2.2,2.2Z"/>
        </g>
      </g>
    </g>
    <g>
      <path class="st9" d="M188.3,236.7c1.7,2.9,3.8,5.6,6,8.2,2.2,2.6,4.6,5,7.1,7.2,5.1,4.5,10.7,8.3,16.8,11.3,1.5.8,3.1,1.4,4.6,2.1,1.6.6,3.1,1.3,4.7,1.8,1.6.6,3.2,1,4.8,1.5.8.2,1.6.4,2.5.6.8.2,1.6.4,2.5.6,6.6,1.3,13.4,1.9,20.2,1.8,0,0,.1,0,.1.1,0,0,0,.1-.1.1h0c-6.8.8-13.6.5-20.4-.6-3.4-.6-6.7-1.4-10-2.5-1.6-.5-3.2-1.2-4.9-1.8-1.6-.7-3.2-1.3-4.7-2.1-3.1-1.5-6.1-3.3-8.9-5.3-2.8-2-5.5-4.1-8-6.5s-4.8-4.9-6.9-7.6c-2.1-2.7-4-5.6-5.4-8.7h0c0-.1,0-.3,0-.2h0Z"/>
      <g>
        <path class="st16" d="M200.2,257.9h0c-.9,0-1.6-.7-1.6-1.6v-4.1c0-.9.7-1.6,1.6-1.6h0c.9,0,1.6.7,1.6,1.6v4.1c0,.9-.7,1.6-1.6,1.6Z"/>
        <g>
          <circle class="st29" cx="200.2" cy="260.4" r="7.6"/>
          <circle class="st31" cx="199.6" cy="259.8" r="6.5"/>
          <circle class="st10" cx="198.6" cy="258.4" r="4.2"/>
          <circle class="st20" cx="196.8" cy="256.6" r="2.2"/>
        </g>
      </g>
      <g>
        <path class="st16" d="M218.6,269.8h0c-.9,0-1.6-.7-1.6-1.6v-4.2c0-.9.7-1.6,1.6-1.6h0c.9,0,1.6.7,1.6,1.6v4.1c0,.9-.7,1.7-1.6,1.7Z"/>
        <g>
          <circle class="st21" cx="218.6" cy="272.2" r="7.6"/>
          <circle class="st35" cx="218" cy="271.6" r="6.5"/>
          <circle class="st19" cx="216.9" cy="270.2" r="4.2"/>
          <path class="st20" d="M217.4,268.5c0,1.2-1,2.2-2.2,2.2s-2.2-1-2.2-2.2,1-2.2,2.2-2.2,2.2.9,2.2,2.2Z"/>
        </g>
      </g>
    </g>
    <g>
      <path class="st9" d="M148.2,340.9c2.4,1.1,4.9,2,7.4,2.9s5.1,1.7,7.6,2.4c5.1,1.5,10.3,2.7,15.5,3.7,10.5,2,21.1,3,31.8,2.8,5.3-.1,10.6-.4,15.9-1,1.3-.1,2.6-.4,3.9-.5l2-.3c.7-.1,1.3-.2,2-.4l3.9-.7,3.9-.9c1.3-.3,2.6-.6,3.9-1,1.3-.4,2.6-.7,3.8-1.1,2.5-.9,5.1-1.6,7.5-2.6,5-1.8,9.8-4.2,14.5-6.6h.1c-9.1,5.6-19.1,9.9-29.5,12.6l-3.9,1c-1.3.3-2.6.5-3.9.8-.7.1-1.3.3-2,.4l-2,.3c-1.3.2-2.6.5-4,.6l-4,.5c-1.3.1-2.7.2-4,.3h-2c0,.1-2,.2-2,.2-1.4,0-2.7.1-4,.1h-8c-1.4-.1-2.7-.3-4-.3h-2c0-.1-2-.3-2-.3-5.4-.6-10.7-1.4-15.9-2.5-10.5-2.2-20.8-5.5-30.4-10.2,0,0-.1-.1,0-.1s-.2,0-.1,0h0Z"/>
      <g>
        <path class="st16" d="M268.8,347.1h0c-.9,0-1.6-.7-1.6-1.6v-4.1c0-.9.7-1.6,1.6-1.6h0c.9,0,1.6.7,1.6,1.6v4.1c0,.8-.7,1.6-1.6,1.6Z"/>
        <g>
          <circle class="st29" cx="268.8" cy="349.5" r="7.6"/>
          <circle class="st31" cx="268.2" cy="348.9" r="6.5"/>
          <circle class="st10" cx="267.1" cy="347.5" r="4.2"/>
          <circle class="st20" cx="265.4" cy="345.8" r="2.2"/>
        </g>
      </g>
      <g>
        <path class="st16" d="M215.4,358.9h0c-.9,0-1.6-.7-1.6-1.6v-4.1c0-.9.7-1.6,1.6-1.6h0c.9,0,1.6.7,1.6,1.6v4.1c.1.9-.7,1.6-1.6,1.6Z"/>
        <g>
          <circle class="st15" cx="215.4" cy="361.4" r="7.6"/>
          <circle class="st27" cx="214.8" cy="360.8" r="6.5"/>
          <circle class="st30" cx="213.8" cy="359.3" r="4.2"/>
          <path class="st20" d="M214.3,357.6c0,1.2-1,2.2-2.2,2.2s-2.2-1-2.2-2.2,1-2.2,2.2-2.2,2.2,1,2.2,2.2Z"/>
        </g>
      </g>
      <g>
        <path class="st16" d="M157.6,350.4h0c-.9,0-1.6-.7-1.6-1.6v-4.1c0-.9.7-1.6,1.6-1.6h0c.9,0,1.6.7,1.6,1.6v4.1c0,.9-.7,1.6-1.6,1.6Z"/>
        <g>
          <circle class="st21" cx="157.6" cy="352.9" r="7.6"/>
          <circle class="st35" cx="157" cy="352.3" r="6.5"/>
          <circle class="st19" cx="156" cy="350.8" r="4.2"/>
          <path class="st20" d="M156.4,349.1c0,1.2-1,2.2-2.2,2.2s-2.2-1-2.2-2.2,1-2.2,2.2-2.2,2.2,1,2.2,2.2Z"/>
        </g>
      </g>
    </g>
    <g>
      <path class="st9" d="M154.6,333.1c2.1.6,4.3,1,6.4,1.3,2.2.3,4.3.5,6.5.7,4.4.3,8.7.3,13.1.1,8.7-.5,17.4-2.1,25.8-4.5,8.4-2.5,16.5-5.7,24.3-9.8,7.7-4.1,15.1-8.9,22-14.2h.1c-1.7,1.5-3.3,3-5,4.3l-2.6,2c-.9.7-1.7,1.4-2.6,2-1.8,1.2-3.6,2.5-5.5,3.7-.9.6-1.9,1.2-2.8,1.8l-2.9,1.6c-1.9,1.1-3.9,2.1-5.9,3.1s-2,.9-3,1.4-2,.9-3,1.4l-3.1,1.3c-1,.4-2.1.8-3.1,1.1l-1.6.6-1.6.5c-1.1.3-2.1.7-3.2,1-4.3,1.2-8.6,2.2-13,2.9-4.4.7-8.8,1.2-13.2,1.3-4.4.1-8.9-.1-13.2-.5-2.2-.3-4.4-.6-6.5-1.1-1.1-.2-2.2-.5-3.2-.7-1.1-.3-2.1-.6-3.2-1-.1,0-.1-.1-.1-.1q0,0,.1-.2h0Z"/>
      <g>
        <path class="st16" d="M179.8,342.5h0c-.9,0-1.6-.7-1.6-1.6v-4.1c0-.9.7-1.6,1.6-1.6h0c.9,0,1.6.7,1.6,1.6v4.1c0,.9-.7,1.6-1.6,1.6Z"/>
        <g>
          <circle class="st29" cx="179.8" cy="345" r="7.6"/>
          <circle class="st31" cx="179.1" cy="344.3" r="6.5"/>
          <circle class="st10" cx="178.1" cy="342.9" r="4.2"/>
          <path class="st20" d="M178.6,341.2c0,1.2-1,2.2-2.2,2.2s-2.2-1-2.2-2.2,1-2.2,2.2-2.2,2.2.9,2.2,2.2Z"/>
        </g>
      </g>
      <g>
        <path class="st16" d="M246.5,318.2h0c-.9,0-1.6-.7-1.6-1.6v-4.1c0-.9.7-1.6,1.6-1.6h0c.9,0,1.6.7,1.6,1.6v4.1c0,.9-.7,1.6-1.6,1.6Z"/>
        <g>
          <circle class="st21" cx="246.5" cy="320.6" r="7.6"/>
          <circle class="st35" cx="245.9" cy="320.1" r="6.5"/>
          <circle class="st19" cx="244.8" cy="318.7" r="4.2"/>
          <path class="st20" d="M245.3,316.9c0,1.2-1,2.2-2.2,2.2s-2.2-1-2.2-2.2,1-2.2,2.2-2.2,2.2,1,2.2,2.2Z"/>
        </g>
      </g>
    </g>
    <g>
      <path class="st9" d="M145.4,412.2c5.2,2.9,10.6,5.3,16.1,7.4s11.2,4,16.9,5.5,11.5,2.8,17.4,3.8,11.8,1.6,17.7,2,11.9.4,17.8.2l4.4-.2c1.5-.1,2.9-.2,4.4-.4l2.2-.2,2.2-.3,4.4-.6c11.7-1.8,23.3-4.8,34.4-8.9h.1c-5.5,2.4-11.1,4.5-16.8,6.2-1.4.4-2.9.8-4.3,1.2l-4.4,1-2.2.5-2.2.4-4.4.9-4.4.7c-.7.1-1.5.2-2.2.3l-2.2.2c-1.5.1-3,.3-4.5.4l-4.5.3c-1.5.1-3,.1-4.5.1s-3,.1-4.5,0h-4.5c0-.1-4.5-.3-4.5-.3-6-.4-11.9-1.1-17.8-2.1l-4.4-.9c-1.5-.3-2.9-.6-4.4-1-2.9-.7-5.8-1.4-8.7-2.3-5.7-1.7-11.4-3.7-16.9-6-2.7-1.2-5.4-2.5-8.1-3.8-1.3-.7-2.6-1.4-3.9-2.1-1.3-.7-2.6-1.5-3.8-2.3,0,0-.1-.1,0-.1q0,.4,0,.4h0Z"/>
      <g>
        <path class="st16" d="M197.6,436.5h0c-.9,0-1.6-.7-1.6-1.6v-4.1c0-.9.7-1.6,1.6-1.6h0c.9,0,1.6.7,1.6,1.6v4.1c0,.9-.7,1.6-1.6,1.6Z"/>
        <g>
          <circle class="st29" cx="197.6" cy="438.9" r="7.6"/>
          <circle class="st31" cx="196.9" cy="438.3" r="6.5"/>
          <circle class="st10" cx="195.9" cy="436.9" r="4.2"/>
          <path class="st20" d="M196.4,435.2c0,1.2-1,2.2-2.2,2.2s-2.2-1-2.2-2.2,1-2.2,2.2-2.2,2.2,1,2.2,2.2Z"/>
        </g>
      </g>
      <g>
        <path class="st16" d="M163.6,427.6h0c-.9,0-1.6-.7-1.6-1.6v-4.1c0-.9.7-1.6,1.6-1.6h0c.9,0,1.6.7,1.6,1.6v4.1c0,.9-.7,1.6-1.6,1.6Z"/>
        <g>
          <circle class="st15" cx="163.6" cy="430.1" r="7.6"/>
          <circle class="st27" cx="163" cy="429.5" r="6.5"/>
          <circle class="st30" cx="162" cy="428.1" r="4.2"/>
          <path class="st20" d="M162.5,426.3c0,1.2-1,2.2-2.2,2.2s-2.2-1-2.2-2.2,1-2.2,2.2-2.2,2.2,1,2.2,2.2Z"/>
        </g>
      </g>
      <g>
        <path class="st16" d="M230.5,437.6h0c-.9,0-1.6-.7-1.6-1.6v-4.1c0-.9.7-1.6,1.6-1.6h0c.9,0,1.6.7,1.6,1.6v4.1c0,.9-.7,1.6-1.6,1.6Z"/>
        <g>
          <circle class="st21" cx="230.5" cy="440.1" r="7.6"/>
          <circle class="st35" cx="229.9" cy="439.5" r="6.5"/>
          <circle class="st19" cx="228.9" cy="438.1" r="4.2"/>
          <path class="st20" d="M229.3,436.3c0,1.2-1,2.2-2.2,2.2s-2.2-1-2.2-2.2,1-2.2,2.2-2.2,2.2,1,2.2,2.2Z"/>
        </g>
      </g>
    </g>
    <g>
      <path class="st9" d="M121.1,439.6c3.4,1.4,6.8,2.6,10.3,3.7,3.5,1.1,7,2.2,10.5,3.1,7.1,1.9,14.2,3.4,21.4,4.6s14.5,2,21.8,2.4,14.6.5,21.9,0c1.8,0,3.6-.2,5.5-.4l2.7-.2c.9-.1,1.8-.2,2.7-.3,1.8-.2,3.6-.4,5.4-.7l5.4-.9,1.4-.2,1.3-.3,2.7-.6,2.7-.6c.9-.2,1.8-.4,2.7-.6l5.3-1.4,5.2-1.6c.9-.3,1.8-.5,2.6-.8l2.6-.9,2.6-.9c.9-.3,1.7-.6,2.6-1,3.4-1.4,6.8-2.7,10-4.4,6.6-3,12.9-6.8,19.1-10.7h.1c0,.1-4.5,3.2-4.5,3.2l-2.3,1.5c-.8.5-1.6.9-2.4,1.4l-4.7,2.8c-.8.5-1.6.9-2.4,1.3l-2.4,1.3c-3.2,1.8-6.6,3.1-10,4.6-.8.4-1.7.7-2.6,1l-2.6,1-2.6,1c-.9.3-1.7.6-2.6.9l-5.2,1.7-5.3,1.4c-.9.2-1.8.5-2.7.7l-2.7.6-2.7.6-1.4.3-1.4.2-5.4.9c-1.8.3-3.6.5-5.5.7-.9.1-1.8.2-2.7.3l-2.8.2c-1.8.1-3.7.4-5.5.4-14.7.8-29.5-.2-44-2.8-7.2-1.3-14.4-3-21.4-5s-7-2.2-10.4-3.4c-.9-.3-1.7-.6-2.6-1-.9-.3-1.7-.6-2.6-1-1.7-.7-3.4-1.4-5-2.2,0,0,0-.1,0-.1q-.2.2-.1.2h0Z"/>
      <g>
        <path class="st16" d="M286.3,436.4h0c-.9,0-1.6-.7-1.6-1.6v-4.1c0-.9.7-1.6,1.6-1.6h0c.9,0,1.6.7,1.6,1.6v4.1c0,.8-.7,1.6-1.6,1.6Z"/>
        <g>
          <circle class="st29" cx="286.3" cy="438.9" r="7.6"/>
          <circle class="st31" cx="285.7" cy="438.2" r="6.5"/>
          <circle class="st10" cx="284.6" cy="436.8" r="4.2"/>
          <circle class="st20" cx="282.9" cy="435.1" r="2.2"/>
        </g>
      </g>
      <g>
        <path class="st16" d="M246.5,454.2h0c-.9,0-1.6-.7-1.6-1.6v-4.1c0-.9.7-1.6,1.6-1.6h0c.9,0,1.6.7,1.6,1.6v4.1c0,.9-.7,1.6-1.6,1.6Z"/>
        <g>
          <circle class="st15" cx="246.5" cy="456.7" r="7.6"/>
          <circle class="st27" cx="245.9" cy="456" r="6.5"/>
          <circle class="st30" cx="244.8" cy="454.6" r="4.2"/>
          <path class="st20" d="M245.3,452.9c0,1.2-1,2.2-2.2,2.2s-2.2-1-2.2-2.2,1-2.2,2.2-2.2,2.2.9,2.2,2.2Z"/>
        </g>
      </g>
      <g>
        <path class="st16" d="M142,452.9h0c-.9,0-1.6-.7-1.6-1.6v-4.1c0-.9.7-1.6,1.6-1.6h0c.9,0,1.6.7,1.6,1.6v4.1c0,.9-.7,1.6-1.6,1.6Z"/>
        <g>
          <circle class="st21" cx="142" cy="455.4" r="7.6"/>
          <circle class="st35" cx="141.4" cy="454.7" r="6.5"/>
          <circle class="st19" cx="140.4" cy="453.4" r="4.2"/>
          <path class="st20" d="M140.8,451.6c0,1.2-1,2.2-2.2,2.2s-2.2-1-2.2-2.2,1-2.2,2.2-2.2,2.2,1,2.2,2.2Z"/>
        </g>
      </g>
    </g>
    <g>
      <path class="st9" d="M123.4,369.6c3.2,1.3,6.5,2.3,9.9,3.3,1.7.5,3.3,1,5,1.4s3.4.9,5.1,1.2c6.8,1.6,13.6,2.8,20.5,3.7,6.9.9,13.8,1.3,20.8,1.4,6.9.1,13.9-.2,20.8-1,1.7-.1,3.4-.4,5.2-.7l2.6-.4c.9-.1,1.7-.3,2.6-.5,1.7-.3,3.4-.6,5.1-1l5.1-1.2c.4-.1.9-.2,1.3-.3l1.2-.4,2.5-.7,2.5-.7c.8-.2,1.6-.5,2.5-.8l4.9-1.7,4.9-1.9c.8-.3,1.6-.6,2.4-1l2.4-1.1,2.4-1.1c.8-.4,1.6-.7,2.4-1.1,3.1-1.6,6.2-3.2,9.1-5,6-3.5,11.6-7.6,17.1-11.9h.1c0,.1-4,3.5-4,3.5l-2,1.7c-.7.6-1.4,1-2.1,1.6l-4.2,3.1c-.7.5-1.4,1-2.2,1.5l-2.2,1.4c-2.9,2-6,3.5-9.1,5.3-.8.4-1.6.8-2.4,1.2l-2.4,1.1-2.4,1.1c-.8.4-1.6.7-2.4,1l-4.9,2c-1.6.6-3.3,1.2-5,1.8-.8.3-1.6.6-2.5.9l-2.5.8-2.5.7-1.3.4c-.4.1-.9.2-1.3.3l-5.1,1.2c-1.7.4-3.4.7-5.2,1-.9.2-1.7.4-2.6.5l-2.6.4c-1.7.2-3.5.5-5.2.7-14,1.5-28.1,1.2-42-.8-6.9-1-13.8-2.4-20.6-4.1-1.7-.4-3.4-1-5-1.4-1.7-.5-3.3-1-5-1.6-.8-.3-1.7-.5-2.5-.9-.8-.3-1.6-.6-2.5-.9-1.6-.6-3.2-1.3-4.8-2q0,.1.1,0c0,0,0,0,0,0h0Z"/>
      <g>
        <path class="st16" d="M254.1,373h0c-.9,0-1.6-.7-1.6-1.6v-4.1c0-.9.7-1.6,1.6-1.6h0c.9,0,1.6.7,1.6,1.6v4.1c0,.9-.7,1.6-1.6,1.6Z"/>
        <g>
          <circle class="st15" cx="254.1" cy="375.5" r="7.6"/>
          <circle class="st27" cx="253.4" cy="374.9" r="6.5"/>
          <ellipse class="st30" cx="252.4" cy="373.5" rx="4.3" ry="4.2" transform="translate(-156.7 562.8) rotate(-80.8)"/>
          <path class="st20" d="M252.9,371.7c0,1.2-1,2.2-2.2,2.2s-2.2-1-2.2-2.2,1-2.2,2.2-2.2,2.2,1,2.2,2.2Z"/>
        </g>
      </g>
      <g>
        <path class="st16" d="M153.8,385.9h0c-.9,0-1.6-.7-1.6-1.6v-4.1c0-.9.7-1.6,1.6-1.6h0c.9,0,1.6.7,1.6,1.6v4.1c0,.8-.7,1.6-1.6,1.6Z"/>
        <g>
          <circle class="st29" cx="153.8" cy="388.3" r="7.6"/>
          <circle class="st31" cx="153.2" cy="387.7" r="6.5"/>
          <circle class="st10" cx="152.2" cy="386.3" r="4.2"/>
          <path class="st20" d="M152.7,384.5c0,1.2-1,2.2-2.2,2.2s-2.2-1-2.2-2.2,1-2.2,2.2-2.2,2.2,1,2.2,2.2Z"/>
        </g>
      </g>
    </g>
  </g>
  <g>
    <path class="st7" d="M279,230.5c-.3-.2-.6-.3-1-.4-1.5-.3-2.9-.6-4.4-.9-2.1-.4-4.1-.9-6.3-.8-.6,0-1.1.1-1.7,0-1.5-.4-2.2-2.2-3.4-3.2-1.2-1.1-3-1.4-4.7-1.4s-2.9.2-3.6,1.4c-.2.4-.3.9-.5,1.3-.7,1.4-2.6,1.9-4.2,2s-3.4,0-4.6,1c-1.5,1.2-1.7,3.8-.4,5.1l.4.4c2.3,1.3,4.8,2.4,7.4,2.9s5.4.4,7.8-.8c1.1-.6,2.1-1.4,3.4-1.6,1.6-.3,3.2.4,4.7,0,.8-.2,1.5-.8,2.3-1.1,2.2-1,4.8-.3,7.1-.9.7-.2,1.4-.5,1.8-1.1s.4-1.4,0-1.9h0Z"/>
    <path class="st5" d="M278,230.9c-2.3.6-4.9-.1-7.1.9-.8.4-1.5.9-2.3,1.1-1.5.4-3.2-.3-4.7,0-1.2.2-2.2,1-3.4,1.6-2.4,1.2-5.2,1.4-7.8.8s-5.1-1.7-7.4-2.9l-.3-.4c-.5-.5-.8-1.2-.9-1.9-.9,1.3-.9,3.3.3,4.5l.4.4c2.3,1.3,4.8,2.4,7.4,2.9,2.6.5,5.4.4,7.8-.8,1.1-.6,2.1-1.4,3.4-1.6,1.6-.3,3.2.4,4.7,0,.8-.2,1.5-.8,2.3-1.1,2.2-1,4.8-.3,7.1-.9.7-.2,1.4-.5,1.8-1.1s.4-1.4-.1-1.9c-.5.2-.8.4-1.2.4h0Z"/>
  </g>
  <g>
    <path class="st7" d="M1064,90.3c-.5-.7-1.2-1-1.9-1.3-3-1.5-6-2.9-9.1-4.4-4.3-2.1-8.6-4.2-13.3-4.9-1.3-.2-2.6-.3-3.7-.9-3.2-1.7-3.7-6.3-5.7-9.4-2.1-3.3-5.9-4.8-9.5-5.7-2.9-.7-6.4-.8-8.5,1.6-.7.9-1.2,1.9-1.9,2.9-2.4,3.1-6.6,3.3-10.2,2.7s-7.4-1.6-10.7.2c-4,2.1-5.8,8.2-3.5,12.2l.7,1.1c4.5,4.2,9.2,8.2,14.6,10.7,5.4,2.6,11.7,3.6,17.5,1.8,2.7-.8,5.4-2.3,8.2-2.2,3.6,0,6.8,2.7,10.4,2.3,1.9-.2,3.7-1.2,5.6-1.7,5.3-1.3,10.6,1.7,15.9,1.4,1.6,0,3.2-.5,4.4-1.7,1.2-1.2,1.7-3.4.7-4.7h0Z"/>
    <path class="st5" d="M1062.8,89.3c-1,.6-2.2.8-3.4.9-5.4.3-10.7-2.7-15.9-1.4-1.9.5-3.7,1.5-5.6,1.7-3.6.3-6.8-2.2-10.4-2.3-2.8,0-5.5,1.4-8.2,2.2-5.8,1.8-12.1.7-17.5-1.8-5.4-2.6-10.2-6.5-14.6-10.7l-.7-1.1c-.3-.5-.5-1.1-.7-1.7-1.1,2.6-1.2,5.7,0,8.1l.7,1.1c4.5,4.2,9.2,8.2,14.6,10.7,5.4,2.6,11.7,3.6,17.5,1.8,2.7-.8,5.4-2.3,8.2-2.2,3.6,0,6.8,2.7,10.4,2.3,1.9-.2,3.7-1.2,5.6-1.7,5.3-1.3,10.6,1.7,15.9,1.4,1.6,0,3.2-.5,4.4-1.7,1.2-1.2,1.7-3.4.7-4.7-.2-.4-.6-.6-1.1-.9h0Z"/>
  </g>
  <g>
    <path class="st7" d="M106.3,233.6c-.6.6-1.4.9-2.2,1.1-3.4,1.2-6.8,2.4-10.3,3.6-4.8,1.7-9.8,3.5-14.9,4-1.4.1-2.8.2-4.1.7-3.6,1.4-4.7,5.4-7.2,8.1-2.7,2.8-6.9,4.1-10.9,4.7-3.2.5-7.1.6-9.1-1.6-.7-.8-1.1-1.7-1.7-2.5-2.2-2.8-6.8-3-10.8-2.6-3.9.4-8.2,1.2-11.6-.4-4.1-1.9-5.4-7.3-2.5-10.8l.8-.9c5.3-3.6,10.8-6.9,17-9,6.2-2.1,13-2.9,19.2-1.2,2.9.8,5.6,2.1,8.7,2.1s7.6-2.1,11.5-1.8c2.1.2,3.9,1.1,5.9,1.6,5.6,1.3,11.6-1.2,17.4-.8,1.7.1,3.5.5,4.6,1.6s1.4,3,.2,4.1h0Z"/>
    <path class="st5" d="M106.1,229.5c-.6-.6-1.4-.9-2.2-1.2-.4.2-.9.4-1.4.6-3.4,1.2-6.8,2.4-10.3,3.6-4.8,1.7-9.8,3.5-14.9,4-1.4.1-2.8.2-4.1.7-3.6,1.4-4.7,5.4-7.2,8.1-2.7,2.8-6.9,4.1-10.9,4.7-3.2.5-7.1.6-9.1-1.6-.7-.8-1.1-1.7-1.7-2.5-2.2-2.8-6.8-3-10.8-2.6-3.9.4-8.2,1.2-11.6-.4-.9-.4-1.6-1-2.3-1.7-.5,3,1,6.2,4,7.6,3.4,1.6,7.7.8,11.6.4s8.5-.2,10.8,2.6c.6.8,1,1.8,1.7,2.5,2,2.2,5.8,2.2,9.1,1.6,4-.7,8.3-1.9,10.9-4.7,2.5-2.7,3.6-6.7,7.2-8.1,1.3-.5,2.7-.6,4.1-.7,5.1-.5,10.1-2.2,14.9-4,3.4-1.2,6.8-2.4,10.3-3.6.8-.3,1.6-.6,2.2-1.1,1.1-1.3.8-3.1-.3-4.2h0Z"/>
  </g>
  <g>
    <g>
      <ellipse class="st26" cx="495" cy="411.2" rx="17.7" ry="2.3"/>
      <g>
        <g>
          <path class="st8" d="M501.7,410.9c0,.3-2.7.5-5.8.5s-5.4,0-6.8-.2c-.6-.1-.9-.2-.9-.3l1.2-14.6.7-8.1h9.7l.7,8.1,1.2,14.6h0Z"/>
          <path class="st3" d="M495.1,393.4c-.4-2,.6-5.2.6-5.2h-4.9l-1.6,23c1.4.2,4.2.2,6.8.2,0,0,1.3-3.5,1.4-6,.2-5.3-1.8-9.6-2.3-12h0Z"/>
          <path class="st6" d="M491.7,401.6c0,2.9-.3,5.2-.6,5.2s-.6-2.3-.6-5.2.3-5.2.6-5.2.6,2.4.6,5.2Z"/>
          <ellipse class="st22" cx="495" cy="405.4" rx=".4" ry="5.2"/>
          <path class="st6" d="M493.6,394.8c0,2.9-.2,5.2-.4,5.2s-.4-2.3-.4-5.2.2-5.2.4-5.2.4,2.4.4,5.2Z"/>
          <ellipse class="st11" cx="497.4" cy="393.5" rx=".5" ry="3.8"/>
          <path class="st4" d="M501,407.1c.2,2.1.2,3.8,0,3.8s-.5-1.7-.8-3.8-.2-3.8,0-3.8c.2,0,.6,1.7.8,3.8Z"/>
          <path class="st4" d="M499.1,402.1c0,2.1-.2,3.8-.4,3.8s-.4-1.7-.4-3.8.2-3.8.4-3.8.4,1.7.4,3.8Z"/>
          <ellipse class="st11" cx="499.5" cy="392.4" rx=".4" ry="3.8"/>
        </g>
        <path class="st26" d="M500.5,396.3c-.4-.6-.7-1.3-1-2.1-.2,2.7-1.1,4.8-2.3,4.8s-2.3-2.5-2.3-5.6c0,3.1-1,5.6-2.3,5.6s-2.1-2.1-2.3-4.8c-.3.8-.6,1.5-1,2.1l.7-8.1h9.7l.8,8.1h0Z"/>
      </g>
      <g>
        <path class="st12" d="M529.7,392.1c-1,.6-4-.8-6.8-3.1-.3-.3-.7-.6-1-.9,1.8,2.5,2.4,4.7,1.4,5.2-1.1.5-3.7-1.3-5.8-4h0c1,2.5,1,4.8,0,5-1,.2-2.7-1.4-4-3.7.6,2.1.4,3.7-.5,4-.9.2-2.4-1-3.6-3,.3,1.6,0,2.8-.8,3-1.2.3-3.2-1.9-4.5-4.8h0c.9,2.9.7,5.5-.5,5.7s-2.8-1.8-3.9-4.6c-.2,2.7-1.1,4.8-2.3,4.8s-2.3-2.5-2.3-5.6c0,3.1-1,5.6-2.3,5.6s-2.1-2.1-2.3-4.8c-1,2.8-2.7,4.8-3.9,4.6-1.2-.2-1.4-2.7-.5-5.7h0c-1.3,3-3.3,5.1-4.5,4.8-.8-.2-1-1.4-.8-3-1.2,2-2.6,3.2-3.6,3-.9-.2-1.1-1.9-.5-4-1.3,2.4-2.9,4-4,3.7s-1.1-2.5-.1-5.1h-.1c-2.1,2.8-4.7,4.6-5.8,4.1-1-.4-.4-2.7,1.4-5.2-.3.3-.6.6-1,.9-2.8,2.3-5.9,3.7-6.8,3.1-1-.6,4.4-6.1,4.9-6.5,3.4-3.3,6.8-6.9,9.9-10.8,2.2-2.7,4.3-5.6,6.2-8.6,6.7-10.2,11.3-20.6,13.8-30.5,2.5,9.9,7.1,20.4,13.8,30.5,2,3,4.1,5.9,6.2,8.6,3.1,3.9,6.5,7.5,9.9,10.8.5.4,5.8,5.9,4.9,6.5h0Z"/>
        <g>
          <path class="st32" d="M473.3,384.8c-1,2-2.1,3.4-2.6,3.2-.5-.2,0-1.9.9-3.9,1-2,2.1-3.4,2.6-3.2.5.2.1,1.9-.9,3.9Z"/>
          <ellipse class="st32" cx="477.1" cy="382" rx="3.4" ry=".9" transform="translate(-79.6 634.2) rotate(-63.1)"/>
          <path class="st32" d="M483.4,388c-.5,1.8-1.5,3.1-2.1,2.9s-.7-1.7-.1-3.5c.5-1.8,1.5-3.1,2.1-2.9s.7,1.7.1,3.5Z"/>
          <path class="st32" d="M481.5,373.8c-.7,1.7-1.6,3-2.1,2.9s-.3-1.7.4-3.4c.7-1.7,1.6-3,2.1-2.9s.2,1.6-.4,3.4Z"/>
        </g>
        <g>
          <path class="st28" d="M507.3,375.5c-1.3-1.9-1.9-3.6-1.3-3.8.6-.2,2.1,1.2,3.4,3.1s1.9,3.6,1.3,3.8c-.6.2-2.1-1.2-3.4-3.1Z"/>
          <path class="st28" d="M506.2,380c-1.1-1.6-1.5-3.1-1-3.3s2,1,3.1,2.6,1.5,3.1,1,3.3-2-.9-3.1-2.6Z"/>
          <path class="st28" d="M512.4,387.9c-1.3-1.6-1.9-3-1.3-3.2s2.1.9,3.4,2.5c1.3,1.6,1.9,3,1.3,3.2s-2.1-.9-3.4-2.5Z"/>
        </g>
        <path class="st37" d="M514.9,374.9c0,.2-.3.4-.5.5-.9.2-2.4-1.3-3.5-3.7.5,2.1.4,3.7-.5,3.9-.8.2-2.1-1-3.1-2.9.2,1.6,0,2.8-.6,2.9-1,.3-2.8-1.9-4-4.8h0c.8,2.9.6,5.4-.5,5.6-1,.2-2.5-1.8-3.4-4.5-.1,2.7-1,4.7-2,4.7s-2-2.5-2-5.6c0,3.1-.9,5.6-2,5.6s-1.8-2-2-4.7c-.9,2.7-2.3,4.7-3.4,4.5-1-.2-1.2-2.7-.5-5.6h0c-1.1,2.9-2.9,5.1-4,4.8-.7-.2-.9-1.4-.6-2.9-1,1.9-2.3,3.2-3.1,2.9-.8-.2-1-1.8-.5-3.9-1.1,2.3-2.6,3.9-3.5,3.7-.2-.1-.4-.2-.5-.5,2.2-2.7,4.3-5.6,6.2-8.6,6.7-10.2,11.3-20.6,13.8-30.5,2.5,9.9,7.1,20.4,13.8,30.5,2.2,3,4.3,5.9,6.4,8.6h0Z"/>
      </g>
      <g>
        <path class="st14" d="M525.3,367c-.8.6-3.5-.7-5.9-3-.3-.3-.6-.6-.9-.9,1.6,2.5,2.1,4.7,1.2,5.1-1,.5-3.2-1.3-5.1-4h0c.9,2.5.8,4.7,0,5-.9.2-2.4-1.3-3.5-3.7.5,2.1.4,3.7-.5,3.9-.8.2-2.1-1-3.1-2.9.2,1.6,0,2.8-.6,2.9-1,.3-2.8-1.9-4-4.8h0c.8,2.9.6,5.4-.5,5.6-1,.2-2.5-1.8-3.4-4.5-.1,2.7-1,4.7-2,4.7s-2-2.5-2-5.6c0,3.1-.9,5.6-2,5.6s-1.8-2-2-4.7c-.9,2.7-2.3,4.7-3.4,4.5-1-.2-1.2-2.7-.5-5.6h0c-1.1,2.9-2.9,5.1-4,4.8-.7-.2-.9-1.4-.6-2.9-1,1.9-2.3,3.2-3.1,2.9-.8-.2-1-1.8-.5-3.9-1.1,2.3-2.6,3.9-3.5,3.7-1-.3-1-2.5-.1-5.1h-.1c-1.8,2.8-4.1,4.6-5.1,4.1-.9-.4-.3-2.6,1.2-5.1-.3.3-.5.6-.9.9-2.5,2.3-5.1,3.6-5.9,3s3.8-6,4.3-6.4c5.1-5.5,9.9-11.9,14.1-19.1.1-.1.1-.2.2-.4,5.7-9.9,9.6-20.1,11.8-29.8,2.1,9.6,6.1,19.9,11.8,29.8.1.1.1.2.2.4,4.2,7.2,9,13.7,14.1,19.1.7.4,5.3,5.8,4.5,6.4h0Z"/>
        <path class="st37" d="M506.4,342.8c-.5.2-1.4-.9-2-2.3.3,1.3.2,2.3-.3,2.5-.5.1-1.2-.6-1.8-1.9.1,1,0,1.8-.4,1.9-.6.2-1.6-1.2-2.3-3h0c.5,1.8.4,3.4-.3,3.5-.6.1-1.5-1.1-2-2.9-.1,1.7-.6,3-1.2,3s-1.2-1.6-1.2-3.5c0,2-.5,3.5-1.2,3.5s-1.1-1.3-1.2-3c-.5,1.7-1.4,3-2,2.9s-.7-1.7-.3-3.5h0c-.7,1.9-1.7,3.2-2.3,3-.4-.1-.5-.9-.4-1.9-.6,1.2-1.3,2-1.8,1.9s-.6-1.2-.3-2.5c-.6,1.5-1.5,2.5-2,2.3-.4-.1-.5-.8-.4-1.7,5.7-9.9,9.6-20.1,11.8-29.8,2.1,9.6,6.1,19.9,11.8,29.8.2.9,0,1.6-.2,1.7h0Z"/>
        <g>
          <path class="st34" d="M477.8,359.1c-1,2-2.1,3.4-2.6,3.2-.5-.2,0-1.9.9-3.9,1-2,2.1-3.4,2.6-3.2.5.2.1,1.9-.9,3.9Z"/>
          <ellipse class="st34" cx="481.5" cy="356.3" rx="3.4" ry=".9" transform="translate(-54.2 624.1) rotate(-63.1)"/>
          <path class="st34" d="M487.9,362.3c-.5,1.8-1.5,3.1-2.1,2.9s-.7-1.7-.1-3.5c.5-1.8,1.5-3.1,2.1-2.9s.6,1.8.1,3.5Z"/>
          <path class="st34" d="M485.9,348.1c-.7,1.7-1.6,3-2.1,2.9s-.3-1.7.4-3.4c.7-1.7,1.6-3,2.1-2.9s.3,1.7-.4,3.4Z"/>
        </g>
        <g>
          <path class="st1" d="M506.4,348.7c-.8-1.7-1.1-3.2-.8-3.4s1.3,1.1,2.1,2.8,1.1,3.2.8,3.4-1.3-1.1-2.1-2.8Z"/>
          <path class="st1" d="M505.8,352.8c-.7-1.5-.9-2.8-.6-3,.4-.2,1.2.9,1.9,2.4.7,1.5.9,2.8.6,3-.4.1-1.3-.9-1.9-2.4Z"/>
          <path class="st1" d="M509.5,359.9c-.8-1.4-1.1-2.7-.8-2.9s1.3.8,2,2.2c.8,1.4,1.1,2.7.8,2.9s-1.2-.8-2-2.2Z"/>
        </g>
        <g>
          <path class="st1" d="M498.2,347.5c-.9-1.7-1.3-3.2-.9-3.4s1.4,1.1,2.3,2.8c.9,1.7,1.3,3.2.9,3.4s-1.4-1.1-2.3-2.8Z"/>
          <path class="st1" d="M497.5,351.6c-.8-1.5-1-2.8-.6-3s1.4.9,2.1,2.4c.8,1.5,1,2.8.6,3s-1.4-.9-2.1-2.4Z"/>
          <path class="st1" d="M501.7,358.7c-.9-1.4-1.3-2.7-.9-2.9.4-.2,1.4.8,2.3,2.2s1.3,2.7.9,2.9-1.4-.8-2.3-2.2Z"/>
        </g>
      </g>
      <g>
        <path class="st23" d="M510.2,333.2c-3-3.5-5.8-7.6-8.2-12.1-3.4-6.4-5.8-12.9-7-19.1-1.3,6.2-3.6,12.8-7,19.1-2.5,4.6-5.3,8.7-8.2,12.1-.2.2-3,3.7-2.5,4.1s2-.5,3.5-1.9l.5-.5c-.9,1.6-1.2,3-.7,3.2.6.3,1.9-.8,3-2.5,0,0,0-.1.1-.1-.5,1.7-.5,3.1.1,3.2.5.2,1.4-.9,2-2.3-.3,1.3-.2,2.3.3,2.5.5.1,1.2-.6,1.8-1.9-.1,1,0,1.8.4,1.9.6.2,1.6-1.2,2.3-3h0c-.5,1.8-.4,3.4.3,3.5.6.1,1.5-1.1,2-2.9.1,1.7.6,3,1.2,3s1.2-1.6,1.2-3.5h0c0,2,.5,3.5,1.2,3.5s1.1-1.3,1.2-3c.5,1.7,1.4,3,2,2.9s.7-1.7.3-3.5h0c.7,1.9,1.7,3.2,2.3,3,.4-.1.5-.9.4-1.9.6,1.2,1.3,2,1.8,1.9s.6-1.2.3-2.5c.6,1.5,1.5,2.5,2,2.3.6-.2.6-1.6.1-3.2,0,0,0,.1.1.1,1.1,1.7,2.4,2.8,3,2.5.5-.3.2-1.7-.7-3.2.2.2.3.4.5.5,1.4,1.5,3,2.3,3.5,1.9s-2.8-3.9-3.1-4.1h0Z"/>
        <g>
          <path class="st33" d="M485.5,330.4c-.7,1.7-1.6,3-2,2.9-.4-.2,0-1.7.7-3.4.7-1.7,1.6-3,2-2.9.3.1,0,1.7-.7,3.4Z"/>
          <path class="st33" d="M488.9,328.2c-.6,1.5-1.5,2.6-1.8,2.4s-.1-1.5.5-3,1.5-2.6,1.8-2.4.2,1.5-.5,3Z"/>
          <path class="st33" d="M493.1,333.3c-.4,1.6-1.1,2.7-1.6,2.6s-.5-1.5-.1-3.1,1.1-2.7,1.6-2.6.6,1.5.1,3.1Z"/>
          <path class="st33" d="M491.6,320.6c-.5,1.5-1.2,2.7-1.6,2.5-.4-.1-.2-1.5.3-3s1.2-2.7,1.6-2.5c.4.1.3,1.5-.3,3Z"/>
        </g>
        <g>
          <path class="st18" d="M497.1,316.1c-.8-1.7-1.1-3.2-.8-3.4s1.3,1.1,2.1,2.8,1.1,3.2.8,3.4-1.3-1-2.1-2.8Z"/>
          <path class="st18" d="M496.5,320.2c-.7-1.5-.9-2.8-.6-3,.4-.2,1.2.9,1.9,2.4.7,1.5.9,2.8.6,3-.4.2-1.3-.9-1.9-2.4Z"/>
          <path class="st18" d="M500.2,327.3c-.8-1.4-1.1-2.7-.8-2.9.3-.2,1.3.8,2,2.2.8,1.4,1.1,2.7.8,2.9-.3.2-1.2-.8-2-2.2Z"/>
        </g>
      </g>
    </g>
    <path class="st17" d="M494.9,308l2,1c-.8-2.4-1.4-4.8-1.9-7.1-.5,2.3-1.1,4.6-1.8,7l1.7-.9h0ZM490.5,326.7c-.1.1-.1.2-.1.3v.3c-1.2.2-2,1.2-2,2.3s1.2,2.4,2.6,2.4,2.6-1.1,2.6-2.4,0-.3-.1-.5c.1.1.2.1.3.2.9.6,1.9,1.1,2.9,1.6h0c-1.2.3-2,1.3-2,2.4s1.2,2.4,2.6,2.4,2.6-1.1,2.6-2.4-.2-1-.5-1.3c.2.1.5.2.8.2,1.1.3,2.3.6,3.4.8,2.2.3,4.5.4,6.6.2h-.1c-2.2-.1-4.4-.2-6.5-.6-.3,0-.6-.1-.8-.2-.3-.1-.6-.1-.8-.2-.5-.1-1.1-.3-1.6-.5s-1.1-.4-1.6-.6c-.3-.1-.6-.2-.9-.4h0c0-.4-.2-.6-.6-.6s-.3.1-.4.2c-1.3-.6-2.6-1.3-3.8-2.1-.3-.4-.7-.7-1.1-.8-.1-.1-.3-.2-.4-.3h0c0-.4-.2-.6-.6-.6h-.1c-.7-.6-1.3-1.2-1.9-1.8-.6-.7-1.3-1.4-1.8-2.2h0c.5.9,1,1.6,1.6,2.4.4.6,1,1.2,1.7,1.8h0ZM504.1,390.7c0,.3.1.6.2.9,0-.3-.1-.7-.2-1h0ZM520.8,382.8v-.3c0-.2-.2-.4-.4-.5l.5-.3h0c-.2,0-.4.1-.7.3-.2,0-.3.1-.4.2-1.6.9-3.3,1.8-5,2.5-1.1.5-2.3.9-3.4,1.4-.3.1-.6.2-.9.3l-.9.3-.9.3c-.3.1-.6.2-.9.3l-1.2.3c-.1,0-.2,0-.2.1h-.4c0,.1-1.8.5-1.8.5-.3.1-.6.1-.9.2l-1.8.4h-.5c0,.1-.5.2-.5.2l-1.8.3c-.6.1-1.2.1-1.9.2-.3,0-.6.1-.9.1h-.9c-.6.1-1.2.2-1.9.2-2.4.1-4.8.1-7.2,0,0,.2-.1.4-.1.5,2.5.1,4.9.2,7.4,0,.6,0,1.2-.1,1.9-.1h.9c.3-.1.6-.2.9-.2.6-.1,1.2-.1,1.9-.2l1.9-.3h.5c0-.1.5-.2.5-.2l.9-.2.9-.2c.3-.1.6-.1.9-.2l1.7-.4h0c-1,.3-1.8,1.1-2,2,.5,1,1.1,1.9,1.6,2.6.3.1.6.1.9.1,1.4,0,2.6-1.1,2.6-2.4s-.9-2.1-2-2.3v-.5l.8-.2c.3-.1.6-.2.9-.3l.9-.3.9-.3c.3-.1.6-.2.9-.3,1.1-.5,2.3-.9,3.4-1.4l.8-.4c.3-.1.6-.2.8-.4l1.6-.9c.3-.1.5-.3.8-.4l.7-.4h0v.4c-1.2.2-2,1.2-2,2.3s1.2,2.4,2.6,2.4,2.6-1.1,2.6-2.4c0-1.2-.9-2.1-2.1-2.4h0ZM486,389.7h-.3c-2.5-.1-5-.4-7.4-.7-2.2-.3-4.5-.8-6.7-1.3,0-.2-.3-.4-.5-.4s-.3.1-.4.2c-1.1-.3-2.1-.5-3.2-.9-.8-.2-1.7-.5-2.5-.8h-.1c.2.2.5.3.7.4.3.1.6.2.9.3s.6.2.9.3c1,.3,2.1.7,3.1,1h0v.4c-1.2.2-2,1.2-2,2.3s.4,1.5,1.1,1.9c.9-.7,1.9-1.7,2.8-2.9h.1c-.5,1.2-.7,2.4-.7,3.3,1.1-.3,1.9-1.2,1.9-2.3s-.9-2.1-2-2.3h0c2.2.5,4.4,1,6.6,1.4,2.5.4,5,.7,7.5.8.1-.4.1-.5.2-.7h0ZM467.2,364.5c.3.1.6.2.8.3.4.1.8.2,1.2.4l.2-.2c-.5-.1-.9-.2-1.4-.4-.7-.2-1.4-.4-2-.6,0,0,0,.1-.1.1.1,0,.2.1.4.1.4.1.6.2.9.3h0ZM478.5,372.9l2,1.7-.5,2.5,2.4-1.2,2.4,1.2-.5-2.5,2-1.7h0l-2.7-.4-1.2-2.2-1.2,2.2-2.7.4h0ZM475.5,369.2c.5.1,1.2-.3,1.8-1-.4-.5-1-.9-1.6-1.1v-.3c0-.1,0-.2-.1-.3.9.1,1.7.3,2.6.4.1-.1.2-.3.2-.4-1.2-.1-2.4-.3-3.6-.5,0,.1,0,.2-.1.4h0c0,1.5.1,2.6.8,2.8h0ZM473.7,366.2l.3-.3c-.8-.1-1.6-.3-2.4-.5s-.8-.2-1.2-.3c0,.1-.1.2-.1.2.4.1.8.2,1.2.3.7.3,1.5.4,2.2.6h0ZM508.6,372.6l-1.2-2.2-1.2,2.2-2.7.4,2,1.7-.5,2.5,2.4-1.2,2.4,1.2-.5-2.5,2-1.7-2.7-.4h0ZM475.9,355.8v.3c-1.2.2-2,1.2-2,2.3s1.2,2.4,2.6,2.4,2.6-1.1,2.6-2.4-.4-1.5-1-1.9c1.4.4,2.8.8,4.2,1.1.5.4,1.1.7,1.8.7s.6-.1.9-.1c1.4.2,2.7.4,4.1.5h.7c0,.1.7.1.7.1.5,0,.9.1,1.4.1h3.4c-.9.4-1.5,1.2-1.5,2.2s1.2,2.4,2.6,2.4,2.6-1.1,2.6-2.4-.7-1.9-1.8-2.2h.3c.5,0,.9,0,1.4-.1h1.4c.5-.1.9-.2,1.4-.3h.7c.2-.1.5-.2.7-.2.5-.1.9-.2,1.4-.2l1.3-.3c3-.7,5.9-1.8,8.6-3.1,0,.1-.2.2-.2.4v.3c-1.2.2-2,1.2-2,2.3s1.2,2.4,2.6,2.4h.2c-.6.3-1.1.7-1.7,1-1,.6-2.1,1.1-3.1,1.6-.1,0-.2.1-.3.1h-.1c-.2,0-.4.1-.5.3l-.7.3-.8.3c-.3.1-.5.2-.8.3l-1.6.6-1.7.5c-.3.1-.6.2-.8.2l-1.7.4h-.4c-.1.1-.3.2-.4.2l-1.7.4c-.6.1-1.2.2-1.7.3-.3,0-.6.1-.9.1h-.9c-.6.2-1.2.3-1.8.3-2.4.2-4.7.3-7.1.3s-4.6-.2-6.9-.4v.4c4.6.6,9.4.7,14.1.2.6,0,1.2-.1,1.8-.2h.9c.3-.1.6-.2.9-.2.6-.1,1.2-.2,1.8-.3l1.8-.4c.1,0,.3-.1.4-.1h.4c0-.1.9-.3.9-.3l.9-.2c.3-.1.6-.2.9-.3.6-.2,1.1-.4,1.7-.5l1.7-.6c.3-.1.6-.2.8-.3l.4-.2c-.7.4-1.1,1.1-1.1,2,0,1.3,1.2,2.4,2.6,2.4s1.4-.3,1.9-.8c0-.5,0-1-.2-1.5.2.4.4.8.6,1.1.2-.4.4-.8.4-1.2,0-1.1-.9-2.1-2-2.3v-.3c0-.1,0-.2-.1-.2,0,0,.1,0,.1-.1,1-.5,2.1-1,3.1-1.6l.8-.4c.2-.1.5-.3.7-.5l.7-.5c.5-.1.9-.4,1.2-.8,0-.1.2-.1.3-.2l.7-.5.8-.6h0c-.5.2-1,.6-1.4.9.2-.3.2-.6.2-1,0-1.1-.9-2.1-2-2.3v-.3c0-.3-.2-.5-.6-.5h0c.3-.2.7-.3,1-.5h0c-1.5.6-3.1,1.3-4.7,1.8-.8.3-1.7.5-2.6.8-.4.1-.9.2-1.3.3s-.9.2-1.3.3l-1.3.3-1.3.2c-.2,0-.4.1-.7.1h-.7c-.5.2-.9.2-1.4.3-1.1.1-2.2.2-3.2.2-.1-.2-.3-.3-.5-.3s-.4.1-.5.3h-1.2c-3,0-5.9-.2-8.9-.6.6-.4,1-1.1,1-1.8,0-1.1-.9-2.1-2-2.3v-.3h0c1.4,0,2.9-.2,4.3-.4,1.5-.2,3-.5,4.4-.9.4-.1.7-.2,1.1-.3l.5-.2.5-.2c.4-.1.7-.2,1.1-.4l1-.4c.4-.1.7-.3,1-.4s.7-.3,1-.4c.7-.3,1.4-.6,2-1l1-.5c.3-.2.6-.4,1-.5.4-.2.7-.4,1-.6-.2.4-.4.8-.4,1.2,0,1.3,1.2,2.4,2.6,2.4s2.6-1.1,2.6-2.4-.9-2.1-2-2.3v-.3c0-.2-.1-.3-.2-.4h.1c.5-.5,1-.8,1.4-1.2h0c-.5.3-1.1.7-1.7,1h-.1c-.3,0-.5.2-.5.5-1.6,1-3.2,1.9-4.8,2.7-2.6,1.3-5.4,2.3-8.3,3.1-2.9.8-5.8,1.2-8.8,1.4h-.3c-.1,0-.2,0-.3.1h-3.9c-.7,0-1.5-.1-2.2-.2-.6-.1-1.2-.2-1.8-.3h-.1c.2.2.5.2.7.3.4.1.7.2,1.1.2.7.1,1.5.2,2.2.3,1.2.1,2.4.2,3.6.2h0v.3c-1.2.2-2,1.2-2,2.3s.1.8.3,1.2c-1.1-.2-2.3-.5-3.4-.8-.5-.1-.9-.2-1.4-.4h0c0-.4-.2-.6-.6-.6s-.4.1-.5.3h-.2c-.6-.2-1.3-.4-1.9-.6h-.1c-.3-.2.4.1,1.2.5q-.1,0,0,0h0ZM508.7,363.1h-.2.2ZM506.2,346h0c-.1,0,0,0,0,0ZM506.1,382.4h-.8c0,.1-.8.2-.8.2-.5,0-1,.1-1.5.1h-1.3c-.1-.1-.3-.2-.5-.2s-.4.1-.5.3c-1.8,0-3.5,0-5.3-.1-1.7-.1-3.4-.3-5.1-.5-.1,0-.2-.1-.3-.1h-.1c-.2,0-.3,0-.5-.1-2-.3-4-.7-5.9-1.2-1.6-.4-3.1-.8-4.6-1.3-.1-.1-.2-.2-.4-.2h-.1c-.2-.1-.4-.1-.6-.2-1.6-.6-3.2-1.2-4.7-1.9h-.1c.2.2.4.3.5.4.4.2.9.4,1.4.6.9.4,1.8.8,2.8,1.2.1,0,.3.1.4.1-.1.1-.1.2-.1.3v.3c-1.2.2-2,1.2-2,2.3s1.2,2.4,2.6,2.4,2.6-1.1,2.6-2.4-.9-2.1-2-2.3v-.2c1.4.5,2.9,1,4.4,1.4,1,.3,2,.5,3,.7s1,.2,1.5.3l1.5.3h.1v.3c-1.2.2-2,1.2-2,2.3s1.2,2.4,2.6,2.4,2.6-1.1,2.6-2.4-.9-2.1-2-2.3h0c1.6.1,3.2.3,4.8.4h1.5c0,.1,1.5.1,1.5.1h1.9c-1,.3-1.7,1.2-1.7,2.2s1.2,2.4,2.6,2.4,2.6-1.1,2.6-2.4-.8-2-2-2.3h1.2c.5-.1,1-.2,1.5-.2h.8c.2-.1.5-.2.8-.2l1.5-.2,1.5-.3h.8c0-.1.7-.3.7-.3l1.5-.3c.5-.1,1-.2,1.5-.4,1.8-.5,3.6-1.1,5.4-1.8h0c-3.7,1.1-7.5,2-11.4,2.6l-1.8.2h0ZM497.4,342.4l-1.2-2.2-1.2,2.2-2.7.4h0l2,1.7-.5,2.5,2.4-1.2,2.4,1.2-.5-2.5,2-1.7h0l-2.7-.4h0ZM482.4,332.6c.5.4,1.1.7,1.6,1h0c0,.1-.1.2-.1.2v.3c-1.2.2-2,1.2-2,2.3s.1.5.1.8c.5-.4.9-1,1.3-1.7,0,0,0-.1.1-.1-.5,1.5-.5,2.7-.1,3.1.1,0,.2.1.3.1.5,0,1.3-1,1.9-2.4,0,.2-.1.4-.1.6-.3.6-.6,1.2-1,1.8h0c1.4,0,2.6-1.1,2.6-2.4s-.4-1.5-1.1-1.9c.5.2,1,.4,1.5.6.6.2,1.2.4,1.9.5.3.1.6.2,1,.2l1,.2c1.3.2,2.6.4,3.9.4h4c.6-.1,1.3-.1,1.9-.2.3,0,.6-.1,1-.1h.2c-.6.4-1.1,1.1-1.1,1.9,0,1.3,1.2,2.4,2.6,2.4s1.5-.3,1.9-.8c-.5-.9-.9-1.7-1.4-2.5,0-.2-.1-.4-.1-.6.6,1.5,1.5,2.5,2,2.4.1-.2.1-.5.1-.7,0-1.1-.9-2.1-2-2.3h0c.8-.2,1.6-.4,2.4-.6.6-.2,1.2-.4,1.8-.6l.9-.3.9-.3h0c-2,.6-4,1.1-6,1.5,0-.2-.3-.4-.5-.4-.3,0-.6.2-.6.5h0c-.1.1-.2.1-.3.1h-1c0,.1-1,.2-1,.2-.6.1-1.3.1-1.9.2h-4c-1.3-.1-2.6-.2-3.8-.4-1.3-.2-2.5-.5-3.7-.9-.9-.3-1.8-.6-2.6-.9,0-.2-.3-.4-.5-.4h-.2s-.1,0-.1-.1c-.6-.3-1.1-.6-1.7-.9-.5-.3-1-.6-1.4-.9h0c.2.2.4.3.6.5.3.2.5.4.8.6h0ZM485.1,334.1s.1,0,0,0c.1,0,0,0,0,0h0Z"/>
    <g>
      <polygon class="st2" points="495 306.3 490.3 308.8 491.2 303.5 487.4 299.8 492.6 299 495 294.2 497.3 299 502.6 299.8 498.8 303.5 499.7 308.8 495 306.3"/>
      <g>
        <polygon class="st9" points="495 302.3 497.3 299 495 294.2 495 302.3"/>
        <polygon class="st9" points="495 302.3 492.6 299 487.4 299.8 495 302.3"/>
        <polygon class="st9" points="495 302.3 498.8 303.5 502.6 299.8 495 302.3"/>
        <polygon class="st9" points="495 302.3 495 302.3 495 306.3 499.7 308.8 495 302.3"/>
        <polygon class="st9" points="495 302.3 491.2 303.5 490.3 308.8 495 302.3"/>
      </g>
    </g>
    <g>
      <polygon class="st2" points="496.1 344 494 345.2 494.4 342.8 492.6 341 495 340.7 496.1 338.4 497.2 340.7 499.7 341 497.9 342.8 498.4 345.2 496.1 344"/>
      <g>
        <polygon class="st9" points="496.1 342.2 497.2 340.7 496.1 338.4 496.1 342.2"/>
        <polygon class="st9" points="496.1 342.2 495 340.7 492.6 341 496.1 342.2"/>
        <polygon class="st9" points="496.1 342.2 497.9 342.8 499.7 341 496.1 342.2"/>
        <polygon class="st9" points="496.1 342.2 496.1 342.2 496.1 344 498.4 345.2 496.1 342.2"/>
        <polygon class="st9" points="496.1 342.2 494.4 342.8 494 345.2 496.1 342.2"/>
      </g>
    </g>
    <g>
      <polygon class="st2" points="483.6 374.2 481.4 375.4 481.8 372.9 480 371.2 482.5 370.8 483.6 368.6 484.7 370.8 487.1 371.2 485.4 372.9 485.8 375.4 483.6 374.2"/>
      <g>
        <polygon class="st9" points="483.6 372.3 484.7 370.8 483.6 368.6 483.6 372.3"/>
        <polygon class="st9" points="483.6 372.3 482.5 370.8 480 371.2 483.6 372.3"/>
        <polygon class="st9" points="483.6 372.3 485.4 372.9 487.1 371.2 483.6 372.3"/>
        <polygon class="st9" points="483.6 372.3 483.6 372.3 483.6 374.2 485.8 375.4 483.6 372.3"/>
        <polygon class="st9" points="483.6 372.3 481.8 372.9 481.4 375.4 483.6 372.3"/>
      </g>
    </g>
    <g>
      <polygon class="st2" points="472.7 399 470.5 400.1 470.9 397.7 469.1 395.9 471.6 395.6 472.7 393.4 473.8 395.6 476.3 395.9 474.5 397.7 474.9 400.1 472.7 399"/>
      <g>
        <polygon class="st9" points="472.7 397.1 473.8 395.6 472.7 393.4 472.7 397.1"/>
        <polygon class="st9" points="472.7 397.1 471.6 395.6 469.1 395.9 472.7 397.1"/>
        <polygon class="st9" points="472.7 397.1 474.5 397.7 476.3 395.9 472.7 397.1"/>
        <polygon class="st9" points="472.7 397.1 472.7 397.1 472.7 399 474.9 400.1 472.7 397.1"/>
        <polygon class="st9" points="472.7 397.1 470.9 397.7 470.5 400.1 472.7 397.1"/>
      </g>
    </g>
    <g>
      <polygon class="st2" points="517.3 399 515.1 400.1 515.5 397.7 513.8 395.9 516.2 395.6 517.3 393.4 518.4 395.6 520.9 395.9 519.1 397.7 519.5 400.1 517.3 399"/>
      <g>
        <polygon class="st9" points="517.3 397.1 518.4 395.6 517.3 393.4 517.3 397.1"/>
        <polygon class="st9" points="517.3 397.1 516.2 395.6 513.8 395.9 517.3 397.1"/>
        <polygon class="st9" points="517.3 397.1 519.1 397.7 520.9 395.9 517.3 397.1"/>
        <polygon class="st9" points="517.3 397.1 517.3 397.1 517.3 399 519.5 400.1 517.3 397.1"/>
        <polygon class="st9" points="517.3 397.1 515.5 397.7 515.1 400.1 517.3 397.1"/>
      </g>
    </g>
    <g>
      <polygon class="st2" points="506.4 374.3 504.2 375.4 504.6 373 502.8 371.2 505.3 370.9 506.4 368.6 507.5 370.9 510 371.2 508.2 373 508.6 375.4 506.4 374.3"/>
      <g>
        <polygon class="st9" points="506.4 372.4 507.5 370.9 506.4 368.6 506.4 372.4"/>
        <polygon class="st9" points="506.4 372.4 505.3 370.9 502.8 371.2 506.4 372.4"/>
        <polygon class="st9" points="506.4 372.4 508.2 373 510 371.2 506.4 372.4"/>
        <polygon class="st9" points="506.4 372.4 506.4 372.4 506.4 374.3 508.6 375.4 506.4 372.4"/>
        <polygon class="st9" points="506.4 372.4 504.6 373 504.2 375.4 506.4 372.4"/>
      </g>
    </g>
    <g>
      <polygon class="st7" points="478.1 342.5 476.2 343.5 476.6 341.3 475 339.8 477.2 339.5 478.1 337.5 479.1 339.5 481.3 339.8 479.7 341.3 480.1 343.5 478.1 342.5"/>
      <g>
        <polygon class="st36" points="478.1 340.8 479.1 339.5 478.1 337.5 478.1 340.8"/>
        <polygon class="st36" points="478.1 340.8 477.2 339.5 475 339.8 478.1 340.8"/>
        <polygon class="st36" points="478.1 340.8 479.7 341.3 481.3 339.8 478.1 340.8"/>
        <polygon class="st36" points="478.1 340.8 478.1 340.8 478.1 342.5 480.1 343.5 478.1 340.8"/>
        <polygon class="st36" points="478.1 340.8 476.6 341.3 476.2 343.5 478.1 340.8"/>
      </g>
    </g>
    <g>
      <polygon class="st7" points="523.5 372.3 521.6 373.3 522 371.1 520.4 369.6 522.5 369.3 523.5 367.3 524.5 369.3 526.7 369.6 525.1 371.1 525.5 373.3 523.5 372.3"/>
      <g>
        <polygon class="st36" points="523.5 370.6 524.5 369.3 523.5 367.3 523.5 370.6"/>
        <polygon class="st36" points="523.5 370.6 522.5 369.3 520.4 369.6 523.5 370.6"/>
        <polygon class="st36" points="523.5 370.6 525.1 371.1 526.7 369.6 523.5 370.6"/>
        <polygon class="st36" points="523.5 370.6 523.5 370.6 523.5 372.3 525.5 373.3 523.5 370.6"/>
        <polygon class="st36" points="523.5 370.6 522 371.1 521.6 373.3 523.5 370.6"/>
      </g>
    </g>
    <g>
      <polygon class="st7" points="466 372.2 464.1 373.2 464.5 371.1 462.9 369.6 465 369.2 466 367.3 467 369.2 469.1 369.6 467.6 371.1 468 373.2 466 372.2"/>
      <g>
        <polygon class="st36" points="466 370.6 467 369.2 466 367.3 466 370.6"/>
        <polygon class="st36" points="466 370.6 465 369.2 462.9 369.6 466 370.6"/>
        <polygon class="st36" points="466 370.6 467.6 371.1 469.1 369.6 466 370.6"/>
        <polygon class="st36" points="466 370.6 466 370.6 466 372.2 468 373.2 466 370.6"/>
        <polygon class="st36" points="466 370.6 464.5 371.1 464.1 373.2 466 370.6"/>
      </g>
    </g>
    <g>
      <polygon class="st7" points="461.8 397 459.8 398 460.2 395.8 458.6 394.3 460.8 394 461.8 392 462.8 394 464.9 394.3 463.4 395.8 463.7 398 461.8 397"/>
      <g>
        <polygon class="st36" points="461.8 395.3 462.8 394 461.8 392 461.8 395.3"/>
        <polygon class="st36" points="461.8 395.3 460.8 394 458.6 394.3 461.8 395.3"/>
        <polygon class="st36" points="461.8 395.3 463.4 395.8 464.9 394.3 461.8 395.3"/>
        <polygon class="st36" points="461.8 395.3 461.8 395.3 461.8 397 463.7 398 461.8 395.3"/>
        <polygon class="st36" points="461.8 395.3 460.2 395.8 459.8 398 461.8 395.3"/>
      </g>
    </g>
    <g>
      <polygon class="st7" points="482.3 399 480.4 400.1 480.7 397.9 479.2 396.4 481.3 396.1 482.3 394.1 483.3 396.1 485.4 396.4 483.9 397.9 484.2 400.1 482.3 399"/>
      <g>
        <polygon class="st36" points="482.3 397.4 483.3 396.1 482.3 394.1 482.3 397.4"/>
        <polygon class="st36" points="482.3 397.4 481.3 396.1 479.2 396.4 482.3 397.4"/>
        <polygon class="st36" points="482.3 397.4 483.9 397.9 485.4 396.4 482.3 397.4"/>
        <polygon class="st36" points="482.3 397.4 482.3 397.4 482.3 399 484.2 400.1 482.3 397.4"/>
        <polygon class="st36" points="482.3 397.4 480.7 397.9 480.4 400.1 482.3 397.4"/>
      </g>
    </g>
    <g>
      <polygon class="st7" points="508.4 398.8 506.4 399.9 506.8 397.7 505.2 396.2 507.4 395.9 508.4 393.9 509.3 395.9 511.5 396.2 509.9 397.7 510.3 399.9 508.4 398.8"/>
      <g>
        <polygon class="st36" points="508.4 397.2 509.3 395.9 508.4 393.9 508.4 397.2"/>
        <polygon class="st36" points="508.4 397.2 507.4 395.9 505.2 396.2 508.4 397.2"/>
        <polygon class="st36" points="508.4 397.2 509.9 397.7 511.5 396.2 508.4 397.2"/>
        <polygon class="st36" points="508.4 397.2 508.4 397.2 508.4 398.8 510.3 399.9 508.4 397.2"/>
        <polygon class="st36" points="508.4 397.2 506.8 397.7 506.4 399.9 508.4 397.2"/>
      </g>
    </g>
    <g>
      <polygon class="st7" points="529.3 397.4 527.3 398.4 527.7 396.3 526.1 394.8 528.3 394.4 529.3 392.5 530.2 394.4 532.4 394.8 530.8 396.3 531.2 398.4 529.3 397.4"/>
      <g>
        <polygon class="st36" points="529.3 395.8 530.2 394.4 529.3 392.5 529.3 395.8"/>
        <polygon class="st36" points="529.3 395.8 528.3 394.4 526.1 394.8 529.3 395.8"/>
        <polygon class="st36" points="529.3 395.8 530.8 396.3 532.4 394.8 529.3 395.8"/>
        <polygon class="st36" points="529.3 395.8 529.3 395.8 529.3 397.4 531.2 398.4 529.3 395.8"/>
        <polygon class="st36" points="529.3 395.8 527.7 396.3 527.3 398.4 529.3 395.8"/>
      </g>
    </g>
    <g>
      <polygon class="st7" points="511.6 342.5 509.7 343.6 510 341.4 508.5 339.9 510.6 339.6 511.6 337.6 512.6 339.6 514.7 339.9 513.2 341.4 513.5 343.6 511.6 342.5"/>
      <g>
        <polygon class="st36" points="511.6 340.9 512.6 339.6 511.6 337.6 511.6 340.9"/>
        <polygon class="st36" points="511.6 340.9 510.6 339.6 508.5 339.9 511.6 340.9"/>
        <polygon class="st36" points="511.6 340.9 513.2 341.4 514.7 339.9 511.6 340.9"/>
        <polygon class="st36" points="511.6 340.9 511.6 340.9 511.6 342.5 513.5 343.6 511.6 340.9"/>
        <polygon class="st36" points="511.6 340.9 510 341.4 509.7 343.6 511.6 340.9"/>
      </g>
    </g>
    <path class="st9" d="M487.7,320.4c.5.9,1.2,1.7,1.9,2.5.7.8,1.4,1.5,2.2,2.2,1.6,1.4,3.3,2.6,5.2,3.5.5.2,1,.5,1.4.7.5.2,1,.4,1.5.6s1,.3,1.5.5c.2.1.5.1.8.2s.5.1.8.2c2.1.4,4.2.6,6.3.5h0c-2.1.2-4.2.2-6.4-.2-1-.2-2.1-.4-3.1-.8-.5-.1-1-.4-1.5-.5-.5-.2-1-.4-1.5-.7-1-.5-1.9-1-2.8-1.6s-1.7-1.3-2.5-2-1.5-1.5-2.2-2.4c-.6-.8-1.2-1.7-1.6-2.7h0Z"/>
    <path class="st9" d="M482.2,329.6c.4.4.9.7,1.4,1s1,.6,1.5.9c1,.5,2.1,1,3.2,1.4s2.3.6,3.4.9,2.3.3,3.5.4h3.6c.6,0,1.2-.1,1.8-.2h.9c0-.1.9-.2.9-.2,2.3-.4,4.6-1,6.8-1.7h0l-.8.3-.8.3c-.6.2-1.1.4-1.7.6-1.1.3-2.3.6-3.5.9l-.9.2c-.3,0-.6.1-.9.1-.6.1-1.2.1-1.8.2h-3.6c-1.2-.1-2.4-.2-3.6-.4l-.9-.2c-.3-.1-.6-.1-.9-.2-.6-.1-1.1-.3-1.7-.5-1.1-.4-2.2-.9-3.2-1.5-.5-.3-1-.6-1.5-1-.2-.2-.5-.4-.7-.5,0-.3-.3-.5-.5-.8q0,.1,0,0s0,0,0,0h0Z"/>
    <path class="st9" d="M477.2,350.5c.7.2,1.3.3,2,.4s1.4.2,2,.2c1.4.1,2.7.1,4.1,0,2.7-.1,5.4-.6,8-1.4s5.1-1.8,7.6-3.1c2.4-1.3,4.7-2.8,6.9-4.4h0c-.5.5-1,.9-1.6,1.3l-.8.6c-.3.2-.5.4-.8.6-.6.4-1.1.8-1.7,1.1-.3.2-.6.4-.9.5l-.9.5c-.6.4-1.2.6-1.8,1-.3.1-.6.3-.9.4s-.6.3-1,.4l-1,.4c-.3.1-.6.2-1,.4l-.5.2-.5.2c-.3.1-.7.2-1,.3-1.3.4-2.7.7-4,.9-1.4.2-2.7.4-4.1.4s-2.8,0-4.1-.2c-.7-.1-1.4-.2-2-.3-.3-.1-.7-.1-1-.2s-.7,0-1-.2c0,0-.1,0,0,0-.1,0,0,0,0,0h0Z"/>
    <path class="st9" d="M475.2,352.9c.8.3,1.5.6,2.3.9s1.6.5,2.4.8c1.6.5,3.2.8,4.8,1.1,3.3.6,6.6.9,9.9.9s3.3-.1,5-.3c.4,0,.8-.1,1.2-.2h.6c.2-.1.4-.2.6-.2l1.2-.2,1.2-.3c.4-.1.8-.2,1.2-.3.4-.1.8-.2,1.2-.3.8-.3,1.6-.5,2.4-.8,1.6-.6,3-1.3,4.5-2h0c-2.9,1.7-6,3.1-9.2,3.9l-1.2.3c-.4.1-.8.2-1.2.2s-.4.1-.6.1h-.6c-.4.2-.8.2-1.2.3h-1.2c-.4.1-.8.2-1.2.2h-5.1c-.4,0-.8,0-1.2-.1h-1.2c-1.7-.3-3.3-.5-5-.9-3.4-.6-6.7-1.6-9.6-3.1q-.1,0,0,0c-.1,0,0,0,0,0h0Z"/>
    <path class="st9" d="M467.5,361.8c1,.4,2,.7,3.1,1,.5.2,1,.3,1.6.4.5.1,1,.3,1.6.4,2.1.5,4.2.9,6.4,1.1,2.1.3,4.3.4,6.5.4s4.3-.1,6.5-.3c.5,0,1.1-.1,1.6-.2h.8c.3-.1.5-.2.8-.2.5-.1,1.1-.2,1.6-.3l1.6-.4c.1,0,.3-.1.4-.1h.4c0-.1.8-.3.8-.3l.8-.2c.3-.1.5-.2.8-.2l1.5-.5,1.5-.6c.2-.1.5-.2.8-.3l.7-.3.7-.3c.2-.1.5-.2.7-.4,1-.5,1.9-1,2.9-1.6,1.9-1.1,3.6-2.4,5.3-3.7h0l-1.2,1-.6.5c-.2.2-.4.3-.7.5l-1.3,1c-.2.2-.5.3-.7.5l-.7.4c-.9.6-1.9,1.1-2.8,1.6-.2.1-.5.2-.7.4l-.7.4-.7.4c-.2.1-.5.2-.8.3l-1.5.6c-.5.2-1,.4-1.5.5-.3.1-.5.2-.8.3l-.8.2-.8.2h-.4c-.1.1-.3.2-.4.2l-1.6.4c-.5.1-1.1.2-1.6.3-.3,0-.5.1-.8.1h-.8c-.5.2-1.1.3-1.6.3-4.4.5-8.8.4-13.1-.2-2.2-.3-4.3-.7-6.4-1.3-.5-.1-1-.3-1.6-.5-.5-.2-1-.3-1.5-.5-.3-.1-.5-.2-.8-.3-.3-.1-.5-.2-.8-.3-.8.1-1.3,0-1.7-.4-.1.1-.1,0,0,0q-.1,0,0,0h0Z"/>
    <path class="st9" d="M474.3,375.1c1.6.9,3.3,1.6,5,2.3s3.5,1.2,5.3,1.7,3.6.9,5.4,1.2,3.7.5,5.5.6,3.7.1,5.5.1h1.4c.5-.1.9-.2,1.4-.2h.7c0-.1.7-.2.7-.2l1.4-.2c3.6-.6,7.2-1.5,10.7-2.8h0c-1.7.7-3.5,1.4-5.2,1.9-.5.1-.9.3-1.3.4l-1.4.3-.7.2h-.7c0,.1-1.4.4-1.4.4l-1.4.2c-.2,0-.5.1-.7.1h-.7c-.5.1-.9.2-1.4.2h-1.4c-.5.1-.9.1-1.4.1h-4.2c-1.9-.2-3.7-.4-5.6-.8l-1.4-.3c-.5-.1-.9-.2-1.4-.3-.9-.2-1.8-.5-2.7-.7-1.8-.5-3.5-1.1-5.3-1.9s-1.7-.8-2.5-1.2-.8-.4-1.2-.6c-.2,0-.6-.2-1-.5h0s0-.1,0,0h0Z"/>
    <path class="st9" d="M466.7,383.6c1,.4,2.1.8,3.2,1.2,1.1.4,2.2.7,3.3,1,2.2.6,4.4,1.1,6.7,1.4,2.2.4,4.5.6,6.8.7s4.5.1,6.8,0c.6,0,1.1-.1,1.7-.1h.9c.3-.1.6-.2.9-.2.6-.1,1.1-.1,1.7-.2l1.7-.3h.4c0-.1.4-.2.4-.2l.8-.2.8-.2c.3,0,.5-.1.8-.2l1.6-.4,1.6-.5c.3-.1.5-.2.8-.3l.8-.3.8-.3c.3-.1.5-.2.8-.3,1-.5,2.1-.9,3.1-1.4,2.1-1,4-2.1,6-3.3h0l-1.4,1-.7.5c-.2.2-.5.3-.7.4l-1.5.9c-.2.1-.5.3-.8.4l-.8.4c-1,.5-2.1,1-3.1,1.4-.3.1-.5.2-.8.3l-.8.3-.8.3c-.3.1-.5.2-.8.3l-1.6.5-1.7.5c-.3.1-.5.2-.8.2l-.8.2-.8.2h-.4c0,.1-.4.2-.4.2l-1.7.3c-.6.1-1.1.1-1.7.2-.3,0-.6.1-.9.1h-.9c-.6.1-1.1.2-1.7.2-4.6.2-9.2-.1-13.7-.9-2.2-.4-4.5-.9-6.7-1.6-1.1-.3-2.2-.7-3.2-1.1-.3-.1-.5-.2-.8-.3-.3-.1-.5-.2-.8-.3-.6,0-1.1-.2-1.6-.5,0,.1,0,0,0,0h0Z"/>
    <g>
      <path class="st16" d="M485,353.4h0c-.3,0-.5-.2-.5-.5v-1.3c0-.3.2-.5.5-.5h0c.3,0,.5.2.5.5v1.3c0,.2-.2.5-.5.5Z"/>
      <g>
        <circle class="st29" cx="485" cy="354.1" r="2.4"/>
        <circle class="st31" cx="484.8" cy="353.9" r="2"/>
        <circle class="st10" cx="484.5" cy="353.5" r="1.3"/>
        <circle class="st20" cx="484" cy="353" r=".7"/>
      </g>
    </g>
    <g>
      <path class="st16" d="M491.4,327h0c-.3,0-.5-.2-.5-.5v-1.3c0-.3.2-.5.5-.5h0c.3,0,.5.2.5.5v1.3c0,.3-.2.5-.5.5Z"/>
      <g>
        <circle class="st29" cx="491.4" cy="327.8" r="2.4"/>
        <circle class="st31" cx="491.2" cy="327.6" r="2"/>
        <circle class="st10" cx="490.9" cy="327.1" r="1.3"/>
        <circle class="st20" cx="490.3" cy="326.6" r=".7"/>
      </g>
    </g>
    <g>
      <path class="st16" d="M503.2,335.4h0c-.3,0-.5-.2-.5-.5v-1.3c0-.3.2-.5.5-.5h0c.3,0,.5.2.5.5v1.3c0,.2-.2.5-.5.5Z"/>
      <g>
        <circle class="st29" cx="503.2" cy="336.1" r="2.4"/>
        <circle class="st31" cx="503" cy="336" r="2"/>
        <circle class="st10" cx="502.7" cy="335.5" r="1.3"/>
        <path class="st20" d="M502.8,335c0,.4-.3.7-.7.7s-.7-.3-.7-.7.3-.7.7-.7.7.3.7.7Z"/>
      </g>
    </g>
    <g>
      <path class="st16" d="M512.7,352.5h.2c.2,0,.4.2.4.4v1.4c0,.2-.2.4-.4.4h-.2c-.2,0-.4-.2-.4-.4v-1.4c0-.2.2-.4.4-.4Z"/>
      <g>
        <circle class="st29" cx="512.8" cy="355.5" r="2.4" transform="translate(79.7 804.7) rotate(-80.8)"/>
        <circle class="st31" cx="512.6" cy="355.4" r="2"/>
        <circle class="st10" cx="512.3" cy="354.9" r="1.3"/>
        <circle class="st20" cx="511.7" cy="354.4" r=".7"/>
      </g>
    </g>
    <g>
      <path class="st16" d="M518.2,382.6h0c-.3,0-.5-.2-.5-.5v-1.3c0-.3.2-.5.5-.5h0c.3,0,.5.2.5.5v1.3c0,.3-.2.5-.5.5Z"/>
      <g>
        <circle class="st29" cx="518.2" cy="383.4" r="2.4"/>
        <circle class="st31" cx="518" cy="383.2" r="2"/>
        <circle class="st10" cx="517.7" cy="382.7" r="1.3"/>
        <path class="st20" d="M517.8,382.2c0,.4-.3.7-.7.7s-.7-.3-.7-.7.3-.7.7-.7.7.3.7.7Z"/>
      </g>
    </g>
    <g>
      <path class="st16" d="M490.6,382.6h0c-.3,0-.5-.2-.5-.5v-1.3c0-.3.2-.5.5-.5h0c.3,0,.5.2.5.5v1.3c0,.3-.2.5-.5.5Z"/>
      <g>
        <circle class="st29" cx="490.6" cy="383.4" r="2.4"/>
        <circle class="st31" cx="490.4" cy="383.2" r="2"/>
        <circle class="st10" cx="490.1" cy="382.8" r="1.3"/>
        <path class="st20" d="M490.2,382.2c0,.4-.3.7-.7.7s-.7-.3-.7-.7.3-.7.7-.7.7.3.7.7Z"/>
      </g>
    </g>
    <g>
      <path class="st16" d="M485.5,333.9h0c-.3,0-.5-.2-.5-.5v-1.3c0-.3.2-.5.5-.5h0c.3,0,.5.2.5.5v1.3c0,.2-.2.5-.5.5Z"/>
      <g>
        <circle class="st15" cx="485.5" cy="334.6" r="2.4"/>
        <circle class="st27" cx="485.3" cy="334.4" r="2"/>
        <circle class="st30" cx="485" cy="334" r="1.3"/>
        <path class="st20" d="M485.2,333.5c0,.4-.3.7-.7.7s-.7-.3-.7-.7.3-.7.7-.7.7.3.7.7Z"/>
      </g>
    </g>
    <g>
      <path class="st16" d="M496.1,358.5h0c-.3,0-.5-.2-.5-.5v-1.3c0-.3.2-.5.5-.5h0c.3,0,.5.2.5.5v1.3c.1.2-.2.5-.5.5Z"/>
      <g>
        <circle class="st15" cx="496.1" cy="359.2" r="2.4"/>
        <circle class="st27" cx="496" cy="359" r="2"/>
        <circle class="st30" cx="495.7" cy="358.6" r="1.3"/>
        <path class="st20" d="M495.8,358.1c0,.4-.3.7-.7.7s-.7-.3-.7-.7.3-.7.7-.7.7.3.7.7Z"/>
      </g>
    </g>
    <g>
      <path class="st16" d="M508.2,362.9h0c-.3,0-.5-.2-.5-.5v-1.3c0-.3.2-.5.5-.5h0c.3,0,.5.2.5.5v1.3c0,.2-.2.5-.5.5Z"/>
      <g>
        <circle class="st15" cx="508.2" cy="363.6" r="2.4"/>
        <circle class="st27" cx="508" cy="363.5" r="2"/>
        <circle class="st30" cx="507.7" cy="363" r="1.3"/>
        <circle class="st20" cx="507.1" cy="362.5" r=".7"/>
      </g>
    </g>
    <g>
      <path class="st16" d="M480,379.9h0c-.3,0-.5-.2-.5-.5v-1.3c0-.3.2-.5.5-.5h0c.3,0,.5.2.5.5v1.3c0,.3-.2.5-.5.5Z"/>
      <g>
        <circle class="st15" cx="480" cy="380.7" r="2.4"/>
        <circle class="st27" cx="479.8" cy="380.5" r="2"/>
        <circle class="st30" cx="479.5" cy="380" r="1.3"/>
        <path class="st20" d="M479.6,379.5c0,.4-.3.7-.7.7s-.7-.3-.7-.7.3-.7.7-.7.7.3.7.7Z"/>
      </g>
    </g>
    <g>
      <path class="st16" d="M505.8,388.2h0c-.3,0-.5-.2-.5-.5v-1.3c0-.3.2-.5.5-.5h0c.3,0,.5.2.5.5v1.3c0,.2-.2.5-.5.5Z"/>
      <g>
        <circle class="st15" cx="505.8" cy="389" r="2.4"/>
        <circle class="st27" cx="505.6" cy="388.7" r="2"/>
        <circle class="st30" cx="505.3" cy="388.3" r="1.3"/>
        <circle class="st20" cx="504.8" cy="387.8" r=".7"/>
      </g>
    </g>
    <g>
      <path class="st16" d="M497.1,330.7h0c-.3,0-.5-.2-.5-.5v-1.3c0-.3.2-.5.5-.5h0c.3,0,.5.2.5.5v1.3c0,.3-.2.5-.5.5Z"/>
      <g>
        <circle class="st21" cx="497.1" cy="331.5" r="2.4"/>
        <circle class="st35" cx="496.9" cy="331.3" r="2"/>
        <circle class="st19" cx="496.6" cy="330.8" r="1.3"/>
        <path class="st20" d="M496.8,330.3c0,.4-.3.7-.7.7s-.7-.3-.7-.7.3-.7.7-.7.7.3.7.7Z"/>
      </g>
    </g>
    <g>
      <path class="st16" d="M478.1,355.8h0c-.3,0-.5-.2-.5-.5v-1.3c0-.3.2-.5.5-.5h0c.3,0,.5.2.5.5v1.3c0,.3-.2.5-.5.5Z"/>
      <g>
        <circle class="st21" cx="478.1" cy="356.6" r="2.4"/>
        <circle class="st35" cx="477.9" cy="356.4" r="2"/>
        <circle class="st19" cx="477.6" cy="356" r="1.3"/>
        <circle class="st20" cx="477.1" cy="355.4" r=".7"/>
      </g>
    </g>
    <g>
      <path class="st16" d="M505.8,345.8h0c-.3,0-.5-.2-.5-.5v-1.3c0-.3.2-.5.5-.5h0c.3,0,.5.2.5.5v1.3c0,.3-.2.5-.5.5Z"/>
      <g>
        <circle class="st21" cx="505.8" cy="346.6" r="2.4"/>
        <circle class="st35" cx="505.6" cy="346.4" r="2"/>
        <circle class="st19" cx="505.3" cy="345.9" r="1.3"/>
        <path class="st20" d="M505.5,345.4c0,.4-.3.7-.7.7s-.7-.3-.7-.7.3-.7.7-.7.7.3.7.7Z"/>
      </g>
    </g>
    <g>
      <path class="st16" d="M500.8,383h0c-.3,0-.5-.2-.5-.5v-1.3c0-.3.2-.5.5-.5h0c.3,0,.5.2.5.5v1.3c.1.3-.2.5-.5.5Z"/>
      <g>
        <circle class="st21" cx="500.8" cy="383.8" r="2.4"/>
        <circle class="st35" cx="500.6" cy="383.6" r="2"/>
        <circle class="st19" cx="500.3" cy="383.1" r="1.3"/>
        <path class="st20" d="M500.5,382.6c0,.4-.3.7-.7.7s-.7-.3-.7-.7.3-.7.7-.7.7.3.7.7Z"/>
      </g>
    </g>
    <g>
      <path class="st16" d="M473.3,387.8h0c-.3,0-.5-.2-.5-.5v-1.3c0-.3.2-.5.5-.5h0c.3,0,.5.2.5.5v1.3c0,.2-.3.5-.5.5Z"/>
      <g>
        <circle class="st21" cx="473.3" cy="388.5" r="2.4"/>
        <circle class="st35" cx="473.1" cy="388.4" r="2"/>
        <circle class="st19" cx="472.8" cy="387.9" r="1.3"/>
        <path class="st20" d="M472.9,387.4c0,.4-.3.7-.7.7s-.7-.3-.7-.7.3-.7.7-.7.7.3.7.7Z"/>
      </g>
    </g>
    <g>
      <path class="st16" d="M477,366.9h0c-.3,0-.5-.2-.5-.5v-1.3c0-.3.2-.5.5-.5h0c.3,0,.5.2.5.5v1.3c0,.2-.3.5-.5.5Z"/>
      <g>
        <circle class="st29" cx="477" cy="367.6" r="2.4"/>
        <circle class="st31" cx="476.8" cy="367.5" r="2"/>
        <circle class="st10" cx="476.4" cy="367" r="1.3"/>
        <circle class="st20" cx="475.9" cy="366.5" r=".7"/>
      </g>
    </g>
  </g>
  <g>
    <path class="st7" d="M367.2,267.1c-.8-.7-.6-2,.1-2.7s1.9-1,3-1.1c3.8-.3,7.7,1.4,11.4.5,1.3-.3,2.5-.9,3.9-1.1,2.6-.2,5,1.2,7.6,1.2s3.8-.9,5.7-1.4c4.1-1.1,8.5-.6,12.6.8,4.1,1.4,7.7,3.5,11.2,5.9l.5.6c1.9,2.3,1.1,5.8-1.6,7.1-2.2,1.1-5.1.5-7.6.3-2.6-.3-5.6-.1-7.1,1.7-.4.5-.7,1.1-1.1,1.6-1.3,1.4-3.9,1.4-6,1.1-2.6-.4-5.4-1.2-7.2-3.1-1.6-1.8-2.4-4.4-4.7-5.3-.9-.3-1.8-.4-2.7-.5-3.3-.3-6.6-1.5-9.8-2.6-2.3-.8-4.5-1.6-6.8-2.4-.5-.1-1.1-.3-1.4-.7h0Z"/>
    <path class="st5" d="M367.4,264.4c-.7.7-.9,1.9-.2,2.8.4.3.9.5,1.4.7,2.3.8,4.5,1.6,6.8,2.4,3.2,1.2,6.4,2.3,9.8,2.6.9,0,1.8.1,2.7.5,2.4.9,3.1,3.5,4.7,5.3,1.7,1.8,4.5,2.6,7.2,3.1,2.2.4,4.7.4,6-1.1.5-.5.7-1.1,1.1-1.6,1.5-1.8,4.5-2,7.1-1.7s5.4.8,7.6-.3c2-.9,3-3,2.6-5-.5.5-.9.9-1.5,1.1-2.2,1.1-5.1.5-7.6.3-2.6-.3-5.6-.1-7.1,1.7-.4.5-.7,1.1-1.1,1.6-1.3,1.4-3.9,1.4-6,1.1-2.6-.4-5.4-1.2-7.2-3.1-1.6-1.8-2.4-4.4-4.7-5.3-.9-.3-1.8-.4-2.7-.5-3.3-.3-6.6-1.5-9.8-2.6-2.3-.8-4.5-1.6-6.8-2.4-.3-.1-.7-.3-.9-.4-.5.2-1.1.4-1.4.8h0Z"/>
  </g>
  <g>
    <path class="st7" d="M632.8,275.7c-.2-.3-.5-.5-.8-.7-1.3-.7-2.6-1.5-3.9-2.2-1.9-1-3.7-2.1-5.8-2.6-.6-.2-1.1-.2-1.6-.5-1.3-.9-1.4-3-2.3-4.4-.8-1.5-2.4-2.3-4.1-2.8s-2.8-.6-3.9.5c-.3.4-.6.9-.9,1.2-1.1,1.3-3.1,1.3-4.7.9s-3.3-1-4.7-.2c-1.8.9-2.8,3.6-2,5.3l.3.5c1.8,2,3.9,3.9,6.2,5.2s5.1,2,7.7,1.4c1.2-.3,2.5-.9,3.8-.7,1.6.1,2.9,1.3,4.5,1.3.8,0,1.7-.4,2.6-.5,2.4-.4,4.7,1,7.1,1,.7,0,1.5-.1,2.1-.7s.8-1.4.5-2.1h0Z"/>
    <path class="st5" d="M631.7,275.9c-2.4,0-4.7-1.5-7.1-1-.9.2-1.7.5-2.6.5-1.6,0-3-1.2-4.5-1.3-1.2-.1-2.4.4-3.8.7-2.7.6-5.4,0-7.7-1.4s-4.4-3.3-6.2-5.2l-.2-.5c-.3-.7-.4-1.5-.3-2.3-1.3,1.1-1.9,3.3-1.1,4.9l.3.5c1.8,2,3.9,3.9,6.2,5.2,2.3,1.3,5.1,2,7.7,1.4,1.2-.3,2.5-.9,3.8-.7,1.6.1,2.9,1.3,4.5,1.3.8,0,1.7-.4,2.6-.5,2.4-.4,4.7,1,7.1,1,.7,0,1.5-.1,2.1-.7s.8-1.4.5-2.1c-.5,0-.9.2-1.3,0h0Z"/>
  </g>
  <g>
    <path class="st7" d="M1021.7,284.1c-.1-.4-.3-.7-.6-1.1-1.2-1.3-2.2-2.6-3.4-4-1.6-1.9-3.1-3.8-5.2-5.2-.6-.4-1.1-.7-1.6-1.2-1.1-1.4-.3-3.8-.7-5.6-.3-2-1.7-3.5-3.3-4.7s-2.8-1.8-4.4-1.1c-.5.3-1,.7-1.5,1-1.7,1-3.9.1-5.4-.9s-3.1-2.4-5-2.2c-2.3.2-4.5,2.7-4.3,5v.7c1.2,2.9,2.6,5.8,4.7,8.1s4.7,4.2,7.8,4.6c1.5.1,3,0,4.4.7,1.7.8,2.6,2.6,4.3,3.3.9.3,2,.2,3,.5,2.8.5,4.7,3,7.2,4,.8.3,1.7.5,2.5.1s1.4-1.2,1.4-2h0Z"/>
    <path class="st5" d="M1020.5,283.8c-2.6-1-4.4-3.5-7.2-4-1-.1-2.1-.1-3-.5-1.7-.6-2.7-2.5-4.3-3.3-1.3-.6-2.8-.5-4.4-.7-3.1-.4-5.9-2.2-7.8-4.6s-3.4-5.3-4.6-8.1v-.6c0-.9.2-1.8.7-2.6-1.8.7-3.4,2.8-3.2,4.8v.7c1.2,2.9,2.6,5.8,4.7,8.1,2,2.3,4.7,4.2,7.8,4.6,1.5.1,3,0,4.4.7,1.7.8,2.6,2.6,4.3,3.3.9.3,2,.2,3,.5,2.8.5,4.7,3,7.2,4,.8.3,1.7.5,2.5.1s1.4-1.2,1.4-2c-.6-.1-1-.1-1.4-.4h0Z"/>
  </g>
  <g>
    <path class="st7" d="M806.4,267.2c-.4.4-1,.6-1.6.7-2.4.8-4.8,1.6-7.3,2.3-3.4,1.1-6.9,2.3-10.5,2.5-1,0-2,0-2.9.4-2.6.9-3.4,3.7-5.2,5.5-2,1.9-4.9,2.7-7.7,3.1-2.3.3-5,.3-6.4-1.3-.5-.6-.7-1.2-1.1-1.8-1.5-2-4.7-2.2-7.5-2-2.7.2-5.8.7-8.1-.5-2.8-1.4-3.6-5.2-1.5-7.6l.6-.6c3.8-2.4,7.7-4.6,12.1-6,4.4-1.4,9.2-1.8,13.5-.5,2,.6,3.9,1.6,6.1,1.6s5.4-1.3,8.1-1c1.5.2,2.7.8,4.1,1.2,3.9,1,8.2-.6,12.2-.2,1.2.1,2.4.4,3.2,1.2s.9,2.1,0,2.9h0Z"/>
    <path class="st5" d="M806.3,264.4c-.4-.4-1-.7-1.5-.9-.3.1-.6.3-1,.4-2.4.8-4.8,1.6-7.3,2.3-3.4,1.1-6.9,2.3-10.5,2.5-1,0-2,0-2.9.4-2.6.9-3.4,3.7-5.2,5.5-2,1.9-4.9,2.7-7.7,3.1-2.3.3-5,.3-6.4-1.3-.5-.6-.7-1.2-1.1-1.8-1.5-2-4.7-2.2-7.5-2-2.7.2-5.8.7-8.1-.5-.6-.3-1.1-.7-1.6-1.2-.4,2.1.6,4.4,2.7,5.4,2.4,1.2,5.4.7,8.1.5s6,0,7.5,2c.4.6.7,1.3,1.1,1.8,1.4,1.6,4,1.7,6.4,1.3,2.8-.4,5.9-1.2,7.7-3.1,1.8-1.8,2.7-4.6,5.2-5.5.9-.3,1.9-.4,2.9-.4,3.6-.3,7.1-1.3,10.5-2.5,2.4-.8,4.8-1.6,7.3-2.3.6-.2,1.1-.4,1.6-.7.8-.9.6-2.2-.1-3h0Z"/>
  </g>
</svg>