<svg width="118" height="9" viewBox="0 0 118 9" fill="none" xmlns="http://www.w3.org/2000/svg">
<path id="Arrow 1" d="M0.993535 5.50004C0.717416 5.50361 0.496471 5.73035 0.500042 6.00646C0.503612 6.28258 0.730346 6.50353 1.00646 6.49996L0.993535 5.50004ZM117.348 4.8491C117.541 4.65133 117.537 4.33478 117.339 4.14205L114.116 1.00148C113.919 0.808761 113.602 0.812854 113.409 1.01063C113.217 1.2084 113.221 1.52495 113.418 1.71767L116.283 4.50929L113.492 7.37405C113.299 7.57182 113.303 7.88838 113.501 8.0811C113.699 8.27382 114.015 8.26973 114.208 8.07196L117.348 4.8491ZM1.00646 6.49996L2.93964 6.47496L2.92671 5.47504L0.993535 5.50004L1.00646 6.49996ZM6.80598 6.42497L10.6723 6.37497L10.6594 5.37505L6.79305 5.42505L6.80598 6.42497ZM14.5387 6.32498L18.405 6.27498L18.3921 5.27506L14.5257 5.32506L14.5387 6.32498ZM22.2714 6.22499L26.1377 6.17499L26.1248 5.17507L22.2584 5.22507L22.2714 6.22499ZM30.004 6.125L33.8704 6.075L33.8575 5.07508L29.9911 5.12508L30.004 6.125ZM37.7367 6.02501L41.6031 5.97501L41.5901 4.97509L37.7238 5.02509L37.7367 6.02501ZM45.4694 5.92502L49.3358 5.87502L49.3228 4.8751L45.4565 4.9251L45.4694 5.92502ZM53.2021 5.82503L57.0684 5.77503L57.0555 4.77511L53.1892 4.82511L53.2021 5.82503ZM60.9348 5.72504L64.8011 5.67504L64.7882 4.67512L60.9218 4.72512L60.9348 5.72504ZM68.6675 5.62505L72.5338 5.57505L72.5209 4.57513L68.6545 4.62513L68.6675 5.62505ZM76.4002 5.52506L80.2665 5.47506L80.2536 4.47514L76.3872 4.52514L76.4002 5.52506ZM84.1328 5.42507L87.9992 5.37507L87.9863 4.37515L84.1199 4.42515L84.1328 5.42507ZM91.8655 5.32508L95.7319 5.27508L95.7189 4.27516L91.8526 4.32516L91.8655 5.32508ZM99.5982 5.22509L103.465 5.17509L103.452 4.17517L99.5853 4.22517L99.5982 5.22509ZM107.331 5.1251L111.197 5.0751L111.184 4.07518L107.318 4.12518L107.331 5.1251ZM115.064 5.02511L116.997 5.00011L116.984 4.00019L115.051 4.02519L115.064 5.02511ZM0.993535 5.50004C0.717416 5.50361 0.496471 5.73035 0.500042 6.00646C0.503612 6.28258 0.730346 6.50353 1.00646 6.49996L0.993535 5.50004ZM117.348 4.8491C117.541 4.65133 117.537 4.33478 117.339 4.14205L114.116 1.00148C113.919 0.808761 113.602 0.812854 113.409 1.01063C113.217 1.2084 113.221 1.52495 113.418 1.71767L116.283 4.50929L113.492 7.37405C113.299 7.57182 113.303 7.88838 113.501 8.0811C113.699 8.27382 114.015 8.26973 114.208 8.07196L117.348 4.8491ZM1.00646 6.49996L2.93964 6.47496L2.92671 5.47504L0.993535 5.50004L1.00646 6.49996ZM6.80598 6.42497L10.6723 6.37497L10.6594 5.37505L6.79305 5.42505L6.80598 6.42497ZM14.5387 6.32498L18.405 6.27498L18.3921 5.27506L14.5257 5.32506L14.5387 6.32498ZM22.2714 6.22499L26.1377 6.17499L26.1248 5.17507L22.2584 5.22507L22.2714 6.22499ZM30.004 6.125L33.8704 6.075L33.8575 5.07508L29.9911 5.12508L30.004 6.125ZM37.7367 6.02501L41.6031 5.97501L41.5901 4.97509L37.7238 5.02509L37.7367 6.02501ZM45.4694 5.92502L49.3358 5.87502L49.3228 4.8751L45.4565 4.9251L45.4694 5.92502ZM53.2021 5.82503L57.0684 5.77503L57.0555 4.77511L53.1892 4.82511L53.2021 5.82503ZM60.9348 5.72504L64.8011 5.67504L64.7882 4.67512L60.9218 4.72512L60.9348 5.72504ZM68.6675 5.62505L72.5338 5.57505L72.5209 4.57513L68.6545 4.62513L68.6675 5.62505ZM76.4002 5.52506L80.2665 5.47506L80.2536 4.47514L76.3872 4.52514L76.4002 5.52506ZM84.1328 5.42507L87.9992 5.37507L87.9863 4.37515L84.1199 4.42515L84.1328 5.42507ZM91.8655 5.32508L95.7319 5.27508L95.7189 4.27516L91.8526 4.32516L91.8655 5.32508ZM99.5982 5.22509L103.465 5.17509L103.452 4.17517L99.5853 4.22517L99.5982 5.22509ZM107.331 5.1251L111.197 5.0751L111.184 4.07518L107.318 4.12518L107.331 5.1251ZM115.064 5.02511L116.997 5.00011L116.984 4.00019L115.051 4.02519L115.064 5.02511Z" fill="#F7C215"/>
</svg>
