<svg width="507" height="636" viewBox="0 0 507 636" fill="none" xmlns="http://www.w3.org/2000/svg">
<g opacity="0.08">
<path d="M-232.554 863.508C-208.353 823.299 -149.113 765.84 -116.388 670.505C-83.664 575.17 -117.955 498.156 -75.4773 405.901C-32.9994 313.646 41.1979 317.225 87.506 227.68C133.814 138.135 103.251 67.5816 146.801 -23.9147C190.352 -115.411 265.351 -172.422 296.548 -211.503" stroke="url(#paint0_linear_511_3899)" stroke-width="2" stroke-linecap="round"/>
<path d="M-26.0637 1008.47C-1.86241 968.258 57.3779 910.799 90.1023 815.464C122.827 720.129 88.5354 643.115 131.013 550.86C173.491 458.605 247.689 462.184 293.997 372.639C340.305 283.094 309.742 212.541 353.292 121.044C396.843 29.5479 471.841 -27.4629 503.039 -66.5438" stroke="url(#paint1_linear_511_3899)" stroke-width="2" stroke-linecap="round"/>
<path d="M-40.8132 998.113C-16.6119 957.904 42.6284 900.444 75.3528 805.109C108.077 709.774 73.7859 632.761 116.264 540.505C158.742 448.25 232.939 451.829 279.247 362.284C325.555 272.739 294.992 202.186 338.543 110.69C382.093 19.1934 457.092 -37.8174 488.289 -76.8983" stroke="url(#paint2_linear_511_3899)" stroke-width="2" stroke-linecap="round"/>
<path d="M-55.5622 987.759C-31.3609 947.55 27.8794 890.091 60.6038 794.756C93.3282 699.421 59.0369 622.407 101.515 530.152C143.993 437.897 218.19 441.476 264.498 351.931C310.806 262.386 280.243 191.833 323.794 100.336C367.344 8.83993 442.343 -48.1709 473.54 -87.2518" stroke="url(#paint3_linear_511_3899)" stroke-width="2" stroke-linecap="round"/>
<path d="M-70.3117 977.405C-46.1105 937.196 13.1299 879.736 45.8543 784.401C78.5787 689.066 44.2873 612.053 86.7653 519.797C129.243 427.542 203.441 431.121 249.749 341.576C296.057 252.031 265.494 181.478 309.044 89.9818C352.594 -1.51456 427.593 -58.5254 458.791 -97.6063" stroke="url(#paint4_linear_511_3899)" stroke-width="2" stroke-linecap="round"/>
<path d="M-85.0612 967.05C-60.86 926.841 -1.61962 869.382 31.1048 774.047C63.8292 678.712 29.5378 601.698 72.0158 509.443C114.494 417.188 188.691 420.767 234.999 331.222C281.307 241.677 250.744 171.124 294.295 79.6273C337.845 -11.8691 412.844 -68.8799 444.041 -107.961" stroke="url(#paint5_linear_511_3899)" stroke-width="2" stroke-linecap="round"/>
<path d="M-99.8102 956.696C-75.609 916.487 -16.3686 859.027 16.3557 763.692C49.0801 668.357 14.7888 591.344 57.2668 499.088C99.7448 406.833 173.942 410.412 220.25 320.867C266.558 231.322 235.995 160.769 279.546 69.2728C323.096 -22.2235 398.095 -79.2344 429.292 -118.315" stroke="url(#paint6_linear_511_3899)" stroke-width="2" stroke-linecap="round"/>
<path d="M-114.56 946.342C-90.3585 906.133 -31.1182 848.674 1.60623 753.339C34.3306 658.004 0.0392984 580.99 42.5173 488.735C84.9953 396.48 159.193 400.059 205.501 310.514C251.809 220.969 221.246 150.416 264.796 58.9193C308.346 -32.5771 383.345 -89.5879 414.543 -128.669" stroke="url(#paint7_linear_511_3899)" stroke-width="2" stroke-linecap="round"/>
<path d="M-129.309 935.988C-105.108 895.779 -45.8677 838.319 -13.1433 742.984C19.5811 647.649 -14.7102 570.636 27.7678 478.38C70.2458 386.125 144.443 389.704 190.751 300.159C237.059 210.614 206.496 140.061 250.047 48.5648C293.597 -42.9316 368.596 -99.9424 399.793 -139.023" stroke="url(#paint8_linear_511_3899)" stroke-width="2" stroke-linecap="round"/>
<path d="M-144.058 925.633C-119.857 885.424 -60.6167 827.965 -27.8923 732.63C4.83208 637.295 -29.4592 560.281 13.0188 468.026C55.4967 375.771 129.694 379.35 176.002 289.805C222.31 200.26 191.747 129.707 235.297 38.2103C278.848 -53.286 353.847 -110.297 385.044 -149.378" stroke="url(#paint9_linear_511_3899)" stroke-width="2" stroke-linecap="round"/>
<path d="M-158.808 915.279C-134.607 875.07 -75.3662 817.61 -42.6418 722.275C-9.91743 626.94 -44.2087 549.927 -1.73076 457.671C40.7472 365.416 114.944 368.995 161.253 279.45C207.561 189.905 176.998 119.352 220.548 27.8558C264.098 -63.6405 339.097 -120.651 370.295 -159.732" stroke="url(#paint10_linear_511_3899)" stroke-width="2" stroke-linecap="round"/>
<path d="M-173.557 904.925C-149.356 864.716 -90.1157 807.257 -57.3913 711.922C-24.6669 616.587 -58.9583 539.573 -16.4803 447.318C25.9977 355.063 100.195 358.642 146.503 269.097C192.811 179.552 162.248 108.999 205.798 17.5023C249.349 -73.994 324.348 -131.005 355.545 -170.086" stroke="url(#paint11_linear_511_3899)" stroke-width="2" stroke-linecap="round"/>
<path d="M-188.306 894.571C-164.105 854.362 -104.865 796.902 -72.1404 701.567C-39.416 606.232 -73.7073 529.219 -31.2293 436.963C11.2487 344.708 85.4459 348.287 131.754 258.742C178.062 169.197 147.499 98.6442 191.049 7.14783C234.6 -84.3485 309.599 -141.359 340.796 -180.44" stroke="url(#paint12_linear_511_3899)" stroke-width="2" stroke-linecap="round"/>
<path d="M-203.056 884.216C-178.855 844.007 -119.614 786.548 -86.8899 691.213C-54.1655 595.878 -88.4568 518.864 -45.9788 426.609C-3.50082 334.354 70.6964 337.933 117.004 248.388C163.313 158.843 132.75 88.2896 176.3 -3.20671C219.85 -94.703 294.849 -151.714 326.046 -190.795" stroke="url(#paint13_linear_511_3899)" stroke-width="2" stroke-linecap="round"/>
<path d="M-217.805 873.862C-193.604 833.653 -134.363 776.193 -101.639 680.858C-68.9145 585.523 -103.206 508.51 -60.7278 416.254C-18.2498 323.999 55.9474 327.578 102.255 238.033C148.564 148.488 118 77.9351 161.551 -13.5612C205.101 -105.058 280.1 -162.068 311.297 -201.149" stroke="url(#paint14_linear_511_3899)" stroke-width="2" stroke-linecap="round"/>
</g>
<defs>
<linearGradient id="paint0_linear_511_3899" x1="-29329.6" y1="-19625.7" x2="-21543.7" y2="-30628.5" gradientUnits="userSpaceOnUse">
<stop stop-color="#FDDC35"/>
<stop offset="1" stop-color="#595021"/>
</linearGradient>
<linearGradient id="paint1_linear_511_3899" x1="-29123.1" y1="-19480.7" x2="-21337.2" y2="-30483.5" gradientUnits="userSpaceOnUse">
<stop stop-color="#FDDC35"/>
<stop offset="1" stop-color="#595021"/>
</linearGradient>
<linearGradient id="paint2_linear_511_3899" x1="-29137.9" y1="-19491.1" x2="-21351.9" y2="-30493.9" gradientUnits="userSpaceOnUse">
<stop stop-color="#FDDC35"/>
<stop offset="1" stop-color="#595021"/>
</linearGradient>
<linearGradient id="paint3_linear_511_3899" x1="-29152.6" y1="-19501.4" x2="-21366.7" y2="-30504.2" gradientUnits="userSpaceOnUse">
<stop stop-color="#FDDC35"/>
<stop offset="1" stop-color="#595021"/>
</linearGradient>
<linearGradient id="paint4_linear_511_3899" x1="-29167.4" y1="-19511.8" x2="-21381.4" y2="-30514.6" gradientUnits="userSpaceOnUse">
<stop stop-color="#FDDC35"/>
<stop offset="1" stop-color="#595021"/>
</linearGradient>
<linearGradient id="paint5_linear_511_3899" x1="-29182.1" y1="-19522.1" x2="-21396.2" y2="-30524.9" gradientUnits="userSpaceOnUse">
<stop stop-color="#FDDC35"/>
<stop offset="1" stop-color="#595021"/>
</linearGradient>
<linearGradient id="paint6_linear_511_3899" x1="-29196.9" y1="-19532.5" x2="-21410.9" y2="-30535.3" gradientUnits="userSpaceOnUse">
<stop stop-color="#FDDC35"/>
<stop offset="1" stop-color="#595021"/>
</linearGradient>
<linearGradient id="paint7_linear_511_3899" x1="-29211.6" y1="-19542.8" x2="-21425.7" y2="-30545.6" gradientUnits="userSpaceOnUse">
<stop stop-color="#FDDC35"/>
<stop offset="1" stop-color="#595021"/>
</linearGradient>
<linearGradient id="paint8_linear_511_3899" x1="-29226.4" y1="-19553.2" x2="-21440.4" y2="-30556" gradientUnits="userSpaceOnUse">
<stop stop-color="#FDDC35"/>
<stop offset="1" stop-color="#595021"/>
</linearGradient>
<linearGradient id="paint9_linear_511_3899" x1="-29241.1" y1="-19563.5" x2="-21455.2" y2="-30566.3" gradientUnits="userSpaceOnUse">
<stop stop-color="#FDDC35"/>
<stop offset="1" stop-color="#595021"/>
</linearGradient>
<linearGradient id="paint10_linear_511_3899" x1="-29255.9" y1="-19573.9" x2="-21469.9" y2="-30576.7" gradientUnits="userSpaceOnUse">
<stop stop-color="#FDDC35"/>
<stop offset="1" stop-color="#595021"/>
</linearGradient>
<linearGradient id="paint11_linear_511_3899" x1="-29270.6" y1="-19584.3" x2="-21484.7" y2="-30587" gradientUnits="userSpaceOnUse">
<stop stop-color="#FDDC35"/>
<stop offset="1" stop-color="#595021"/>
</linearGradient>
<linearGradient id="paint12_linear_511_3899" x1="-29285.4" y1="-19594.6" x2="-21499.4" y2="-30597.4" gradientUnits="userSpaceOnUse">
<stop stop-color="#FDDC35"/>
<stop offset="1" stop-color="#595021"/>
</linearGradient>
<linearGradient id="paint13_linear_511_3899" x1="-29300.1" y1="-19605" x2="-21514.2" y2="-30607.8" gradientUnits="userSpaceOnUse">
<stop stop-color="#FDDC35"/>
<stop offset="1" stop-color="#595021"/>
</linearGradient>
<linearGradient id="paint14_linear_511_3899" x1="-29314.9" y1="-19615.3" x2="-21528.9" y2="-30618.1" gradientUnits="userSpaceOnUse">
<stop stop-color="#FDDC35"/>
<stop offset="1" stop-color="#595021"/>
</linearGradient>
</defs>
</svg>
