<svg width="481" height="636" viewBox="0 0 481 636" fill="none" xmlns="http://www.w3.org/2000/svg">
<g opacity="0.04">
<path d="M133.924 -146.397C155.42 -116.763 183.711 -53.3036 237.106 -4.1535C290.501 44.9966 339.614 32.7046 390.219 89.5236C440.825 146.343 431.394 209.08 480.013 268.577C528.632 328.075 573.541 317.544 623.59 375.113C673.64 432.682 700.113 509.534 720.25 544.909" stroke="url(#paint0_linear_511_3915)" stroke-width="2" stroke-linecap="round"/>
<path d="M14.3503 14.7992C35.8467 44.4333 64.1378 107.893 117.533 157.043C170.928 206.193 220.04 193.901 270.646 250.72C321.252 307.539 311.821 370.276 360.44 429.774C409.059 489.271 453.968 478.74 504.017 536.309C554.066 593.878 580.54 670.731 600.677 706.105" stroke="url(#paint1_linear_511_3915)" stroke-width="2" stroke-linecap="round"/>
<path d="M22.8913 3.28556C44.3877 32.9196 72.6788 96.379 126.074 145.529C179.469 194.679 228.581 182.387 279.187 239.206C329.793 296.025 320.362 358.762 368.981 418.26C417.6 477.758 462.509 467.226 512.558 524.795C562.607 582.364 589.081 659.217 609.218 694.591" stroke="url(#paint2_linear_511_3915)" stroke-width="2" stroke-linecap="round"/>
<path d="M31.4324 -8.22811C52.9287 21.406 81.2198 84.8653 134.615 134.015C188.01 183.166 237.122 170.874 287.728 227.693C338.334 284.511 328.903 347.249 377.522 406.746C426.141 466.244 471.05 455.712 521.099 513.281C571.149 570.85 597.622 647.703 617.759 683.078" stroke="url(#paint3_linear_511_3915)" stroke-width="2" stroke-linecap="round"/>
<path d="M39.9734 -19.7428C61.4697 9.89131 89.7608 73.3507 143.156 122.501C196.551 171.651 245.663 159.359 296.269 216.178C346.875 272.997 337.444 335.734 386.063 395.232C434.682 454.729 479.591 444.198 529.64 501.767C579.69 559.336 606.163 636.189 626.3 671.563" stroke="url(#paint4_linear_511_3915)" stroke-width="2" stroke-linecap="round"/>
<path d="M48.5144 -31.2564C70.0107 -1.62236 98.3019 61.837 151.697 110.987C205.092 160.137 254.204 147.845 304.81 204.664C355.416 261.483 345.985 324.22 394.604 383.718C443.223 443.216 488.132 432.684 538.181 490.253C588.231 547.822 614.704 624.675 634.841 660.049" stroke="url(#paint5_linear_511_3915)" stroke-width="2" stroke-linecap="round"/>
<path d="M57.0549 -42.7711C78.5512 -13.137 106.842 50.3223 160.237 99.4725C213.632 148.623 262.745 136.331 313.351 193.15C363.956 249.968 354.525 312.706 403.144 372.203C451.763 431.701 496.672 421.169 546.722 478.738C596.771 536.307 623.244 613.16 643.382 648.535" stroke="url(#paint6_linear_511_3915)" stroke-width="2" stroke-linecap="round"/>
<path d="M65.5959 -54.2848C87.0923 -24.6507 115.383 38.8087 168.778 87.9588C222.173 137.109 271.286 124.817 321.892 181.636C372.497 238.455 363.067 301.192 411.686 360.69C460.304 420.187 505.213 409.656 555.263 467.225C605.312 524.794 631.785 601.647 651.923 637.021" stroke="url(#paint7_linear_511_3915)" stroke-width="2" stroke-linecap="round"/>
<path d="M74.1369 -65.7984C95.6333 -36.1644 123.924 27.295 177.319 76.4451C230.714 125.595 279.827 113.303 330.433 170.122C381.038 226.941 371.608 289.678 420.227 349.176C468.846 408.674 513.754 398.142 563.804 455.711C613.853 513.28 640.326 590.133 660.464 625.507" stroke="url(#paint8_linear_511_3915)" stroke-width="2" stroke-linecap="round"/>
<path d="M82.678 -77.3131C104.174 -47.679 132.465 15.7804 185.86 64.9305C239.255 114.081 288.368 101.789 338.974 158.608C389.579 215.427 380.149 278.164 428.768 337.661C477.387 397.159 522.295 386.627 572.345 444.196C622.394 501.765 648.867 578.618 669.005 613.993" stroke="url(#paint9_linear_511_3915)" stroke-width="2" stroke-linecap="round"/>
<path d="M91.219 -88.8267C112.715 -59.1927 141.006 4.26668 194.401 53.4168C247.796 102.567 296.909 90.2749 347.515 147.094C398.12 203.913 388.69 266.65 437.309 326.148C485.928 385.645 530.836 375.114 580.886 432.683C630.935 490.252 657.408 567.105 677.546 602.479" stroke="url(#paint10_linear_511_3915)" stroke-width="2" stroke-linecap="round"/>
<path d="M99.76 -100.34C121.256 -70.7063 149.547 -7.24699 202.942 41.9031C256.337 91.0533 305.45 78.7613 356.056 135.58C406.661 192.399 397.231 255.136 445.85 314.634C494.469 374.132 539.377 363.6 589.427 421.169C639.476 478.738 665.949 555.591 686.087 590.965" stroke="url(#paint11_linear_511_3915)" stroke-width="2" stroke-linecap="round"/>
<path d="M108.301 -111.855C129.797 -82.221 158.088 -18.7616 211.483 30.3885C264.878 79.5386 313.99 67.2466 364.596 124.066C415.202 180.885 405.771 243.622 454.39 303.119C503.009 362.617 547.918 352.086 597.967 409.655C648.017 467.224 674.49 544.076 694.627 579.451" stroke="url(#paint12_linear_511_3915)" stroke-width="2" stroke-linecap="round"/>
<path d="M116.842 -123.369C138.338 -93.7347 166.629 -30.2753 220.024 18.8748C273.419 68.025 322.531 55.7329 373.137 112.552C423.743 169.371 414.312 232.108 462.931 291.606C511.55 351.103 556.459 340.572 606.508 398.141C656.558 455.71 683.031 532.563 703.168 567.937" stroke="url(#paint13_linear_511_3915)" stroke-width="2" stroke-linecap="round"/>
<path d="M125.383 -134.883C146.879 -105.249 175.17 -41.79 228.565 7.36017C281.96 56.5103 331.072 44.2183 381.678 101.037C432.284 157.856 422.853 220.593 471.472 280.091C520.091 339.589 565 329.057 615.049 386.626C665.099 444.195 691.572 521.048 711.709 556.422" stroke="url(#paint14_linear_511_3915)" stroke-width="2" stroke-linecap="round"/>
</g>
<defs>
<linearGradient id="paint0_linear_511_3915" x1="15166.7" y1="-20519.1" x2="23244.3" y2="-14528.4" gradientUnits="userSpaceOnUse">
<stop stop-color="#FDDC35"/>
<stop offset="1" stop-color="#595021"/>
</linearGradient>
<linearGradient id="paint1_linear_511_3915" x1="15047.2" y1="-20357.9" x2="23124.8" y2="-14367.2" gradientUnits="userSpaceOnUse">
<stop stop-color="#FDDC35"/>
<stop offset="1" stop-color="#595021"/>
</linearGradient>
<linearGradient id="paint2_linear_511_3915" x1="15055.7" y1="-20369.5" x2="23133.3" y2="-14378.7" gradientUnits="userSpaceOnUse">
<stop stop-color="#FDDC35"/>
<stop offset="1" stop-color="#595021"/>
</linearGradient>
<linearGradient id="paint3_linear_511_3915" x1="15064.2" y1="-20381" x2="23141.9" y2="-14390.3" gradientUnits="userSpaceOnUse">
<stop stop-color="#FDDC35"/>
<stop offset="1" stop-color="#595021"/>
</linearGradient>
<linearGradient id="paint4_linear_511_3915" x1="15072.8" y1="-20392.5" x2="23150.4" y2="-14401.8" gradientUnits="userSpaceOnUse">
<stop stop-color="#FDDC35"/>
<stop offset="1" stop-color="#595021"/>
</linearGradient>
<linearGradient id="paint5_linear_511_3915" x1="15081.3" y1="-20404" x2="23158.9" y2="-14413.3" gradientUnits="userSpaceOnUse">
<stop stop-color="#FDDC35"/>
<stop offset="1" stop-color="#595021"/>
</linearGradient>
<linearGradient id="paint6_linear_511_3915" x1="15089.9" y1="-20415.5" x2="23167.5" y2="-14424.8" gradientUnits="userSpaceOnUse">
<stop stop-color="#FDDC35"/>
<stop offset="1" stop-color="#595021"/>
</linearGradient>
<linearGradient id="paint7_linear_511_3915" x1="15098.4" y1="-20427" x2="23176" y2="-14436.3" gradientUnits="userSpaceOnUse">
<stop stop-color="#FDDC35"/>
<stop offset="1" stop-color="#595021"/>
</linearGradient>
<linearGradient id="paint8_linear_511_3915" x1="15106.9" y1="-20438.5" x2="23184.6" y2="-14447.8" gradientUnits="userSpaceOnUse">
<stop stop-color="#FDDC35"/>
<stop offset="1" stop-color="#595021"/>
</linearGradient>
<linearGradient id="paint9_linear_511_3915" x1="15115.5" y1="-20450.1" x2="23193.1" y2="-14459.3" gradientUnits="userSpaceOnUse">
<stop stop-color="#FDDC35"/>
<stop offset="1" stop-color="#595021"/>
</linearGradient>
<linearGradient id="paint10_linear_511_3915" x1="15124" y1="-20461.6" x2="23201.6" y2="-14470.9" gradientUnits="userSpaceOnUse">
<stop stop-color="#FDDC35"/>
<stop offset="1" stop-color="#595021"/>
</linearGradient>
<linearGradient id="paint11_linear_511_3915" x1="15132.6" y1="-20473.1" x2="23210.2" y2="-14482.4" gradientUnits="userSpaceOnUse">
<stop stop-color="#FDDC35"/>
<stop offset="1" stop-color="#595021"/>
</linearGradient>
<linearGradient id="paint12_linear_511_3915" x1="15141.1" y1="-20484.6" x2="23218.7" y2="-14493.9" gradientUnits="userSpaceOnUse">
<stop stop-color="#FDDC35"/>
<stop offset="1" stop-color="#595021"/>
</linearGradient>
<linearGradient id="paint13_linear_511_3915" x1="15149.6" y1="-20496.1" x2="23227.3" y2="-14505.4" gradientUnits="userSpaceOnUse">
<stop stop-color="#FDDC35"/>
<stop offset="1" stop-color="#595021"/>
</linearGradient>
<linearGradient id="paint14_linear_511_3915" x1="15158.2" y1="-20507.6" x2="23235.8" y2="-14516.9" gradientUnits="userSpaceOnUse">
<stop stop-color="#FDDC35"/>
<stop offset="1" stop-color="#595021"/>
</linearGradient>
</defs>
</svg>
