<svg width="32" height="33" viewBox="0 0 32 33" fill="none" xmlns="http://www.w3.org/2000/svg">
<g id="tabler-icon-circle-check-filled">
<path id="Vector" d="M22.6665 5.3793C24.6775 6.54044 26.3504 8.20666 27.5196 10.213C28.6888 12.2194 29.3137 14.4963 29.3324 16.8184C29.3512 19.1405 28.7631 21.4272 27.6265 23.4522C26.4899 25.4772 24.8442 27.1702 22.8522 28.3637C20.8602 29.5572 18.591 30.2097 16.2693 30.2567C13.9476 30.3037 11.6539 29.7435 9.61524 28.6316C7.57658 27.5197 5.86367 25.8947 4.64606 23.9173C3.42845 21.94 2.74838 19.6789 2.67317 17.358L2.6665 16.926L2.67317 16.494C2.74784 14.1913 3.4179 11.9472 4.61802 9.98062C5.81815 8.014 7.50738 6.3919 9.52103 5.27247C11.5347 4.15305 13.804 3.57449 16.1078 3.59321C18.4117 3.61194 20.6713 4.22729 22.6665 5.3793ZM20.9425 13.3166C20.7129 13.0871 20.4074 12.9492 20.0834 12.9288C19.7594 12.9084 19.439 13.007 19.1825 13.206L19.0572 13.3166L14.6665 17.706L12.9425 15.9833L12.8172 15.8726C12.5606 15.6738 12.2403 15.5753 11.9164 15.5958C11.5924 15.6162 11.287 15.7541 11.0575 15.9836C10.828 16.2132 10.6901 16.5185 10.6696 16.8425C10.6492 17.1665 10.7476 17.4867 10.9465 17.7433L11.0572 17.8686L13.7238 20.5353L13.8492 20.646C14.083 20.8274 14.3705 20.9259 14.6665 20.9259C14.9625 20.9259 15.25 20.8274 15.4838 20.646L15.6092 20.5353L20.9425 15.202L21.0532 15.0766C21.2522 14.8201 21.3507 14.4998 21.3304 14.1757C21.31 13.8517 21.1721 13.5462 20.9425 13.3166Z" fill="#191509" fill-opacity="0.88"/>
</g>
</svg>
