<?xml version="1.0" encoding="UTF-8"?>
<svg id="Layer_1" xmlns="http://www.w3.org/2000/svg" viewBox="0 0 120 69">
  <rect x="31.8" y="20.6" width="76.3" height="29.5" style="fill: #fff;"/>
  <path d="M110.7,16.7c.1.5.2,1,.2,1.4,0,10.4,0,20.7,0,31.1,0,2.2-1.3,4.3-3.5,5.1-.6.2-1.2.4-1.9.4-.3,0-.5,0-.8,0-15.1,0-30.1,0-45.2,0-.4,0-.8,0-1.3.3-6.6,2.9-13.2,5.9-19.8,8.8-2.2,1-4.4,1.9-6.5,2.9-.1,0-.2,0-.4.1,0-.2,0-.2,0-.3.6-.9,1.1-1.9,1.7-2.8,1.7-2.8,3.3-5.6,5-8.5,0-.1.2-.2.2-.4,0-.1-.2,0-.3,0-.9,0-1.8,0-2.7,0-2.1,0-3.6-1-4.7-2.7-.5-.8-.7-1.7-.7-2.6,0-10.5,0-20.9,0-31.4,0-2.1,1.4-4.6,4.1-5.2.3,0,.7-.1,1-.1.2,0,.5,0,.7,0h58.8c.3,0,.5,0,.8,0,.1,0,.2,0,.3.1,2.4,1.2,4.7,2.5,7.1,3.7.3.2.7.3,1,.3,2.1,0,4.2,0,6.2-.1.2,0,.3,0,.5,0M87.2,22.8c0,.2,0,.4,0,.6,0,6.3,0,12.6,0,18.9s0,.2,0,.4c0,0,0,.2,0,.3.5,0,1,0,1.5,0,.5,0,1,0,1.5,0,0-.2,0-.4,0-.6,0-2.3,0-4.7,0-7,0-.2,0-.4,0-.6.6,0,1.1,0,1.6,0,.4,0,.7.3.9.7.1.2.2.4.2.6.1.4.1.8.1,1.2,0,1.2,0,2.3,0,3.5,0,.4,0,.9,0,1.3,0,.3,0,.6.2.8.4,0,2.6,0,3,0,0-.2-.1-.5-.2-.7,0-.4-.1-.9-.1-1.3,0-1.3,0-2.5,0-3.8,0-.7,0-1.4-.3-2-.2-.8-.7-1.4-1.4-1.8,0,0-.1,0-.2-.2,0,0,.2-.1.2-.2.7-.5,1.1-1.1,1.4-1.9.2-.5.3-1.1.3-1.6,0-.8,0-1.6,0-2.5,0-.6-.1-1.1-.3-1.6-.4-1.2-1.1-2-2.3-2.3-.6-.2-1.1-.2-1.7-.2-1.4,0-2.9,0-4.3,0-.1,0-.2,0-.4,0ZM59.2,34.8c.6,0,1.2,0,1.8,0,.4,0,.7.3.9.7.1.2.2.4.2.7,0,.3,0,.7.1,1,0,.8,0,1.6,0,2.4,0,.7,0,1.4,0,2.1,0,.4,0,.9.3,1.3h.4c.8,0,1.6,0,2.4,0,0,0,0,0,0,0,0,0,0,0,0,0-.3-.9-.3-1.8-.3-2.7,0-1,0-1.9,0-2.9,0-.6,0-1.2-.2-1.8-.2-1-.7-1.8-1.6-2.3,0,0,0,0,0-.1,0,0,.1,0,.2-.1.7-.5,1.1-1.1,1.4-1.9.1-.4.2-.8.2-1.3,0-.8,0-1.6,0-2.5,0-.7,0-1.3-.3-1.9-.4-1.3-1.2-2.1-2.5-2.4-.5-.1-.9-.2-1.4-.2-1.5,0-3,0-4.5,0,0,0-.2,0-.3,0,0,0,0,0,0,.1,0,6.5,0,13,0,19.6,0,.1,0,.2,0,.4,0,0,0,0,0,0,0,0,0,0,0,0,.3,0,.6,0,.9,0,.3,0,.7,0,1,0,.3,0,.6,0,1,0,0-.9,0-1.8,0-2.7v-5.4ZM54.8,42.9c-1-6.7-2-13.4-3-20.1,0,0,0,0,0,0s0,0,0,0c-.3,0-.7,0-1,0-.4,0-.7,0-1.1,0s-.7,0-1.1,0c-.4,0-.7,0-1.1,0,0,.1,0,.2,0,.3-1,6.6-2,13.1-3,19.7,0,0,0,0,0,.2.4,0,.9,0,1.3,0,.4,0,.9,0,1.4,0,0-.6.2-1.2.3-1.8,0-.6.1-1.2.3-1.8,0,0,.1,0,.2,0,1.1,0,2.2,0,3.3,0,0,0,.1,0,.2,0,0,.6.2,1.2.3,1.8.1.6.1,1.2.3,1.8.5,0,2.5,0,3,0ZM106.5,28.2c0-.4,0-.8,0-1.2,0-.8-.2-1.5-.5-2.2-.5-1.1-1.3-1.7-2.4-2.1-.8-.2-1.5-.2-2.3-.1-.2,0-.4,0-.6.1-1.2.3-2.1,1.1-2.5,2.3-.3.7-.4,1.5-.4,2.2,0,1.4.2,2.7.9,4,.5.8,1.1,1.6,1.8,2.2.5.5,1,1,1.6,1.6.5.5.9,1,1.2,1.6.4.8.5,1.6.3,2.5,0,.1,0,.3-.1.4-.2.4-.5.7-1,.8-.2,0-.4,0-.7,0-.6,0-.9-.3-1.1-.9,0-.3-.1-.6-.1-.8,0-.5,0-.9,0-1.4,0,0,0-.2,0-.3,0,0,0,0-.1,0-.8,0-1.6,0-2.4,0,0,0-.2,0-.2,0,0,.8,0,1.5,0,2.2,0,.6.2,1.3.5,1.8.5,1.1,1.4,1.8,2.5,2,.8.2,1.6.2,2.4,0,1.6-.3,2.6-1.2,3.1-2.7,0,0,0,0,0-.1.4-1.3.4-2.6,0-3.9-.2-.8-.5-1.5-1-2.1-.5-.8-1.2-1.6-1.9-2.2-.5-.5-1-1-1.5-1.6-.4-.4-.6-.8-.9-1.3-.4-.8-.5-1.6-.3-2.5,0-.2.1-.4.3-.6.4-.7,1.9-.7,2.3,0,.1.2.2.4.3.6,0,.4,0,.7,0,1.1,0,.2,0,.4,0,.5.4,0,2.3,0,2.8,0ZM40.5,35.5v.5c0,.8,0,1.6,0,2.4,0,.3,0,.6-.1.9-.2.6-.6.9-1.2.9-.2,0-.4,0-.6,0-.5,0-.8-.3-1-.8,0-.2-.1-.4-.1-.5,0-.3,0-.6,0-1,0-3.4,0-6.8,0-10.2,0-.3,0-.7,0-1,.1-1,.7-1.4,1.6-1.4.7,0,1.1.4,1.3,1,0,.3.1.6.1.9,0,.6,0,1.3,0,1.9,0,0,0,.2,0,.3.5,0,.9,0,1.4,0,.5,0,.9,0,1.4,0,0,0,0-.1,0-.1,0-.9,0-1.8,0-2.7,0-.7-.2-1.3-.5-1.9-.5-1-1.3-1.7-2.4-2-1-.3-2.1-.3-3.1,0-1.1.3-1.9,1-2.3,2-.1.3-.2.6-.3.9-.2.6-.2,1.3-.2,2,0,3.5,0,7,0,10.5,0,.3,0,.6,0,.9,0,.7.2,1.5.6,2.1.5,1,1.4,1.7,2.5,1.9.4.1.9.2,1.3.1.4,0,.8,0,1.2-.1,1.5-.3,2.5-1.2,2.9-2.6.2-.7.3-1.3.3-2,0-.9,0-1.8,0-2.7,0,0,0-.2,0-.3-.5,0-2.3,0-2.8,0ZM77.2,22.8c0,.2,0,.4,0,.6,0,6.3,0,12.5,0,18.8s0,.3,0,.5c0,0,0,.2,0,.3.1,0,.2,0,.3,0,2.5,0,5,0,7.5,0,0,0,.2,0,.3,0,0-.3,0-.7,0-1,0-.3,0-.6,0-.9,0-.3,0-.6,0-1-.2,0-.3,0-.5,0-1.4,0-2.7,0-4.1,0-.2,0-.3,0-.5,0,0,0,0-.1,0-.2,0-1.8,0-3.6,0-5.4,0,0,0-.2,0-.3h.5c1,0,2.1,0,3.1,0,.1,0,.3,0,.4-.1v-.9c0-.3,0-.6,0-.9,0-.3,0-.6,0-1h-.5c-1,0-2.1,0-3.1,0-.1,0-.3,0-.4,0,0-.6,0-1.3,0-1.9,0-.6,0-1.2,0-1.8,0-.6,0-1.2,0-1.9.4,0,.9,0,1.3,0,.4,0,.8,0,1.3,0s.9,0,1.3,0c.4,0,.8,0,1.3,0,0,0,0-.2,0-.2,0-.8,0-1.5,0-2.3,0,0,0-.2,0-.3-2.6,0-5.2,0-7.9,0,0,0-.1,0-.2,0ZM67.2,22.8s0,0,0,0c0,0,0,0,0,.1,0,6.6,0,13.2,0,19.9,0,0,0,0,0,0,0,0,0,0,0,0,0,0,.2,0,.3,0,2.5,0,5,0,7.5,0,0,0,.2,0,.3,0,0-.1,0-.2,0-.3,0-.8,0-1.6,0-2.4,0,0,0,0,0,0,0,0,0,0,0,0-.1,0-.3,0-.5,0-1.4,0-2.7,0-4.1,0-.2,0-.3,0-.5,0,0,0,0-.1,0-.2,0-1.8,0-3.6,0-5.4,0,0,0-.2,0-.2h2c.3,0,.7,0,1,0,.3,0,.7,0,1,0,0,0,0-.1,0-.2,0-.8,0-1.6,0-2.5s0-.1,0-.2c-.7,0-1.3,0-2,0s-1.3,0-2,0c0-.1,0-.2,0-.3,0-1.7,0-3.4,0-5.1,0,0,0-.2,0-.3h.5c1.4,0,2.7,0,4.1,0,.1,0,.3,0,.5,0,0-.4,0-.9,0-1.4,0-.5,0-.9,0-1.4-.5,0-6.1,0-7.8,0,0,0-.2,0-.2,0" style="fill: #f4c11b;"/>
  <path d="M19.8,29c1-3.3,2-6.5,3-9.8.6,0,1.2,0,1.9,0,.6,0,1.2,0,1.8,0,0,.2,0,.3,0,.5-.8,2.4-1.5,4.9-2.3,7.3-.5,1.7-1.1,3.4-1.6,5,0,.3,0,.5,0,.8,1.4,4.4,2.8,8.7,4.2,13.1,0,.2.1.3.1.5,0,0-.1,0-.2,0-1.3,0-2.7,0-4,0-.3-.7-.4-1.4-.7-2.1-.2-.7-.4-1.4-.6-2.1-.2-.7-.4-1.4-.6-2.1-.2-.7-.4-1.4-.6-2.1-.2-.7-.4-1.4-.6-2.1,0,0,0,0,0,0,0,0,0,0,0,0-1.1,3.5-2.2,7-3.3,10.5-.3,0-.6,0-1,0-.3,0-.6,0-.9,0s-.6,0-1,0c-.3,0-.6,0-.9,0,0-.1,0-.2,0-.3,1.4-4.4,2.8-8.8,4.2-13.2,0,0,0-.1,0-.2.1-.2,0-.4,0-.6-.4-1.3-.8-2.7-1.3-4-.9-2.8-1.8-5.6-2.7-8.4,0-.2,0-.3-.1-.5,0,0,0,0,0,0,0,0,0,0,0,0,1.2,0,2.4,0,3.7,0,.1,0,.2,0,.4,0,0,.1,0,.3.1.4.9,3,1.8,6,2.7,8.9,0,.1,0,.3.1.4,0,0,0,0,.1.1Z" style="fill: #fff;"/>
  <path d="M9.8,31.2v3.9c-.1,0-.3,0-.4,0-1.4,0-2.8,0-4.2,0-.2,0-.3,0-.5,0,0,.2,0,.4,0,.6,0,3.4,0,6.7,0,10.1s0,.4,0,.5c-.4,0-3.3,0-4,0,0,0,0-.2,0-.3,0-.1,0-.2,0-.3v-26.6c.1,0,.2,0,.3,0,3.3,0,6.7,0,10,0,0,0,.2,0,.3,0,0,0,0,.1,0,.2,0,1.2,0,2.3,0,3.5,0,0,0,0,0,.1-.1.1-.3,0-.5,0-1.8,0-3.7,0-5.5,0s-.4,0-.5,0c0,0,0,.1,0,.2,0,2.6,0,5.3,0,8,.3.1.7,0,1,0,.4,0,.7,0,1.1,0h2.1c.3,0,.7,0,1,0Z" style="fill: #fff;"/>
  <path d="M119.4,8.8c-.6,0-1.1,0-1.7.1-1.3,0-2.7.2-4,.3-1.2,0-2.4.2-3.6.2-1.2,0-2.3.2-3.5.2-.4,0-.9,0-1.3,0-.2,0-.4,0-.6-.1-.9-.5-1.9-.9-2.8-1.4-3.2-1.6-6.5-3.1-9.7-4.7-.2,0-.3-.2-.6-.3.2,0,.3,0,.4,0,.5,0,1,0,1.6-.1,2.2-.2,4.3-.3,6.5-.5,2.1-.2,4.2-.3,6.3-.5.2,0,.4,0,.6.2,1.5.8,2.9,1.5,4.4,2.3,2.5,1.3,5,2.6,7.5,3.9.1,0,.3.2.4.2,0,0,0,0,0,0Z" style="fill: #fff;"/>
  <path d="M117.3,21.2c-.7,0-1.5-.3-2.2-.4,0-.1,0-.3,0-.4.9-2.9,1.9-5.7,2.8-8.6,0-.2.1-.3.2-.5,0,.9-.8,9.5-.9,9.9" style="fill: #fff;"/>
  <path d="M90.2,25.7c.6,0,1.1,0,1.6,0,.6,0,1,.3,1.1.9,0,.3.1.6.2.9,0,.8,0,1.7,0,2.5,0,.3,0,.6-.2.9-.2.5-.5.8-1.1.9-.5.1-1.1,0-1.7,0,0,0,0-.2,0-.3,0-1.9,0-3.8,0-5.6,0,0,0-.2,0-.3" style="fill: #f3bf1a;"/>
  <path d="M59.3,31.9c0-.5,0-5.7,0-6.1,0,0,0,0,0,0,.5,0,1,0,1.6,0,.6,0,1,.3,1.1.9,0,.3.2.7.2,1,0,.8,0,1.5,0,2.3,0,.3,0,.7-.2,1-.2.5-.5.8-1.1.9-.5.1-1.1,0-1.7,0Z" style="fill: #efbe1b;"/>
  <path d="M50.8,36.5c0,0,0,0-.1,0-.8,0-1.6,0-2.5,0,0,0,0,0-.1,0,0,0,0,0,0,0,0,0,0,0,0,0,.4-3.2.9-6.4,1.3-9.5,0,0,0,0,0-.1,0,0,0,0,0,0,.5,3.2.9,6.5,1.3,9.7,0,0,0,0,0,.1Z" style="fill: #f1be1a;"/>
  <path d="M94.6,12.7h4s10.2,2.8,10.2,2.8,1.7,1.2,1.7,1.2h0c0,0-4.6,1.7-4.6,1.7l-5.8-1.2-2.9-3.1-2.7-1.5Z" style="fill: #f4c11b;"/>
  <path d="M110.7,16.7c-.2,0-.3,0-.5,0-2.1,0-4.2,0-6.2.1-.4,0-.7,0-1-.3-2.4-1.3-4.7-2.5-7.1-3.7-.1,0-.2,0-.3-.1,0,0,0-.2,0-.2.3-1.4.6-2.9,1-4.3,0,0,0,0,0-.1.2,0,.3.1.5.2,2.4,1.3,4.7,2.6,7.1,3.8.3.2.6.2.9.2,1.7-.1,3.3-.3,5-.4,1.1,0,2.1-.2,3.2-.3.2,0,.4,0,.6,0,0,.6-.2,1.1-.3,1.7,0,.6-.2,1.1-.3,1.7-.1.6-.2,1.1-.4,1.7-.4,0-.8,0-1.3,0-.2,0-.5,0-.7,0" style="fill: #fff;"/>
</svg>