<?xml version="1.0" encoding="UTF-8"?>
<svg id="Layer_1" xmlns="http://www.w3.org/2000/svg" viewBox="0 0 120 69">
  <path d="M110,17c.1.5.2.9.2,1.4,0,10.2,0,20.4,0,30.7,0,2.1-1.3,4.2-3.4,5.1-.6.2-1.2.4-1.8.4-.3,0-.5,0-.8,0-14.9,0-29.7,0-44.6,0-.4,0-.8,0-1.2.3-6.5,2.9-13,5.8-19.5,8.7-2.1,1-4.3,1.9-6.4,2.8-.1,0-.2,0-.4.1,0-.2,0-.2,0-.3.5-.9,1.1-1.9,1.6-2.8,1.6-2.8,3.3-5.6,4.9-8.3,0-.1.2-.2.2-.4,0-.1-.2,0-.3,0-.9,0-1.8,0-2.7,0-2,0-3.6-1-4.6-2.7-.5-.8-.7-1.6-.7-2.6,0-10.3,0-20.6,0-31,0-2.1,1.4-4.5,4.1-5.2.3,0,.7-.1,1-.1.2,0,.5,0,.7,0h58c.3,0,.5,0,.8,0,.1,0,.2,0,.3.1,2.3,1.2,4.7,2.4,7,3.7.3.2.7.3,1,.3,2.1,0,4.1,0,6.1-.1.2,0,.3,0,.5,0M86.8,22.9c0,.2,0,.4,0,.6,0,6.2,0,12.4,0,18.7s0,.2,0,.3c0,0,0,.2,0,.3.5,0,1,0,1.5,0,.5,0,.9,0,1.4,0,0-.2,0-.4,0-.6,0-2.3,0-4.6,0-6.9,0-.2,0-.4,0-.6.5,0,1.1,0,1.6,0,.4,0,.7.3.9.7.1.2.2.4.2.6.1.4.1.8.1,1.2,0,1.1,0,2.3,0,3.4,0,.4,0,.9,0,1.3,0,.3,0,.6.2.8.4,0,2.5,0,2.9,0,0-.2-.1-.5-.2-.7,0-.4,0-.9-.1-1.3,0-1.2,0-2.5,0-3.7,0-.7,0-1.4-.3-2-.2-.8-.7-1.4-1.4-1.8,0,0-.1,0-.2-.2,0,0,.2-.1.2-.2.7-.5,1.1-1.1,1.3-1.9.2-.5.3-1.1.3-1.6,0-.8,0-1.6,0-2.4,0-.5,0-1.1-.3-1.6-.4-1.2-1.1-1.9-2.3-2.3-.5-.2-1.1-.2-1.7-.2-1.4,0-2.8,0-4.2,0-.1,0-.2,0-.4,0ZM59.2,34.8c.6,0,1.2,0,1.7,0,.4,0,.7.3.9.7.1.2.2.4.2.6,0,.3,0,.7.1,1,0,.8,0,1.6,0,2.4,0,.7,0,1.4,0,2.1,0,.4,0,.9.3,1.3h.4c.8,0,1.6,0,2.4,0,0,0,0,0,0,0,0,0,0,0,0,0-.3-.9-.3-1.8-.3-2.7,0-1,0-1.9,0-2.9,0-.6,0-1.2-.2-1.8-.2-1-.7-1.8-1.6-2.2,0,0,0,0,0-.1,0,0,.1,0,.2-.1.7-.4,1.1-1.1,1.4-1.9.1-.4.2-.8.2-1.3,0-.8,0-1.6,0-2.4,0-.6,0-1.3-.2-1.9-.4-1.3-1.2-2.1-2.5-2.4-.4-.1-.9-.2-1.4-.2-1.5,0-2.9,0-4.4,0,0,0-.2,0-.3,0,0,0,0,0,0,.1,0,6.4,0,12.9,0,19.3,0,.1,0,.2,0,.3,0,0,0,0,0,0,0,0,0,0,0,0,.3,0,.6,0,.9,0,.3,0,.7,0,1,0,.3,0,.6,0,1,0,0-.9,0-1.8,0-2.7v-5.4ZM54.9,42.8c-1-6.6-2-13.2-3-19.8,0,0,0,0,0,0s0,0,0,0c-.3,0-.6,0-1,0-.4,0-.7,0-1.1,0s-.7,0-1,0c-.4,0-.7,0-1.1,0,0,.1,0,.2,0,.3-1,6.5-1.9,12.9-2.9,19.4,0,0,0,0,0,.2.4,0,.9,0,1.3,0,.4,0,.9,0,1.3,0,0-.6.2-1.2.3-1.8,0-.6.1-1.2.3-1.7,0,0,.1,0,.2,0,1.1,0,2.1,0,3.2,0,0,0,.1,0,.2,0,0,.6.2,1.2.3,1.8,0,.6.1,1.2.3,1.7.5,0,2.5,0,3,0ZM105.8,28.3c0-.4,0-.8,0-1.2,0-.7-.2-1.5-.5-2.2-.5-1-1.3-1.7-2.4-2-.7-.2-1.5-.2-2.3-.1-.2,0-.4,0-.6.1-1.2.3-2,1.1-2.5,2.2-.3.7-.4,1.4-.4,2.2,0,1.4.2,2.7.9,3.9.5.8,1.1,1.5,1.8,2.2.5.5,1,1,1.5,1.6.5.5.9,1,1.2,1.6.4.8.5,1.6.3,2.5,0,.1,0,.3-.1.4-.2.4-.5.7-1,.8-.2,0-.4,0-.6,0-.6,0-.9-.3-1.1-.9,0-.3-.1-.5-.1-.8,0-.4,0-.9,0-1.3,0,0,0-.2,0-.3,0,0,0,0-.1,0-.8,0-1.6,0-2.4,0,0,0-.2,0-.2,0,0,.7,0,1.5,0,2.2,0,.6.2,1.2.5,1.8.5,1.1,1.4,1.7,2.5,2,.8.2,1.6.2,2.4,0,1.5-.3,2.6-1.2,3.1-2.6,0,0,0,0,0-.1.4-1.3.4-2.6,0-3.9-.2-.8-.5-1.5-.9-2.1-.5-.8-1.2-1.5-1.9-2.2-.5-.5-1-1-1.5-1.6-.3-.4-.6-.8-.8-1.3-.4-.8-.5-1.6-.3-2.5,0-.2.1-.4.3-.6.4-.7,1.9-.7,2.3,0,.1.2.2.4.3.6,0,.4,0,.7,0,1.1,0,.2,0,.4,0,.5.4,0,2.2,0,2.7,0ZM40.7,35.5v.5c0,.8,0,1.6,0,2.4,0,.3,0,.6-.1.9-.2.6-.5.9-1.1.9-.2,0-.4,0-.6,0-.5,0-.8-.3-1-.8,0-.2-.1-.3-.1-.5,0-.3,0-.6,0-.9,0-3.3,0-6.7,0-10,0-.3,0-.7,0-1,.1-1,.7-1.4,1.6-1.4.7,0,1.1.3,1.3,1,0,.3.1.6.1.9,0,.6,0,1.3,0,1.9,0,0,0,.2,0,.3.5,0,.9,0,1.4,0,.5,0,.9,0,1.4,0,0,0,0,0,0-.1,0-.9,0-1.8,0-2.7,0-.7-.2-1.3-.5-1.9-.5-1-1.3-1.7-2.3-2-1-.3-2.1-.3-3.1,0-1.1.3-1.8,1-2.3,2-.1.3-.2.6-.3.9-.2.6-.2,1.3-.2,2,0,3.5,0,6.9,0,10.4,0,.3,0,.6,0,.8,0,.7.2,1.4.6,2.1.5,1,1.4,1.6,2.5,1.9.4.1.9.2,1.3.1.4,0,.8,0,1.2-.1,1.5-.3,2.4-1.2,2.9-2.6.2-.6.3-1.3.3-2,0-.9,0-1.8,0-2.6,0,0,0-.2,0-.3-.5,0-2.3,0-2.8,0ZM76.9,23c0,.2,0,.4,0,.6,0,6.2,0,12.4,0,18.6s0,.3,0,.4c0,0,0,.2,0,.3.1,0,.2,0,.3,0,2.5,0,5,0,7.4,0,0,0,.2,0,.3,0,0-.3,0-.6,0-1,0-.3,0-.6,0-.9,0-.3,0-.6,0-.9-.2,0-.3,0-.5,0-1.3,0-2.7,0-4,0-.2,0-.3,0-.5,0,0,0,0-.1,0-.2,0-1.8,0-3.5,0-5.3,0,0,0-.2,0-.3h.5c1,0,2.1,0,3.1,0,.1,0,.3,0,.4-.1v-.9c0-.3,0-.6,0-.9,0-.3,0-.6,0-1h-.5c-1,0-2.1,0-3.1,0-.1,0-.3,0-.4,0,0-.6,0-1.2,0-1.9,0-.6,0-1.2,0-1.8,0-.6,0-1.2,0-1.9.4,0,.8,0,1.3,0,.4,0,.8,0,1.2,0s.9,0,1.3,0c.4,0,.8,0,1.2,0,0,0,0-.2,0-.2,0-.8,0-1.5,0-2.3,0,0,0-.2,0-.3-2.6,0-5.2,0-7.8,0,0,0-.1,0-.2,0ZM67.1,22.9s0,0,0,0c0,0,0,0,0,.1,0,6.5,0,13.1,0,19.6,0,0,0,0,0,0,0,0,0,0,0,0,0,0,.2,0,.3,0,2.5,0,4.9,0,7.4,0,0,0,.2,0,.3,0,0-.1,0-.2,0-.3,0-.8,0-1.6,0-2.4,0,0,0,0,0,0,0,0,0,0,0,0-.1,0-.3,0-.5,0-1.3,0-2.7,0-4,0-.2,0-.3,0-.5,0,0,0,0-.1,0-.2,0-1.8,0-3.6,0-5.4,0,0,0-.2,0-.2h1.9c.3,0,.7,0,1,0,.3,0,.7,0,1,0,0,0,0-.1,0-.2,0-.8,0-1.6,0-2.4s0-.1,0-.2c-.7,0-1.3,0-2,0s-1.3,0-2,0c0-.1,0-.2,0-.3,0-1.7,0-3.3,0-5,0,0,0-.2,0-.3h.5c1.4,0,2.7,0,4.1,0,.1,0,.3,0,.5,0,0-.4,0-.9,0-1.4,0-.5,0-.9,0-1.4-.5,0-6,0-7.7,0,0,0-.2,0-.2,0" style="fill: #f4c11b;"/>
  <path d="M20.3,29c1-3.2,2-6.5,3-9.7.6,0,1.2,0,1.8,0,.6,0,1.2,0,1.8,0,0,.2,0,.3,0,.5-.8,2.4-1.5,4.8-2.3,7.2-.5,1.7-1,3.3-1.6,5,0,.3,0,.5,0,.8,1.4,4.3,2.8,8.6,4.1,12.9,0,.2.1.3.1.5,0,0-.1,0-.2,0-1.3,0-2.6,0-4,0-.3-.7-.4-1.4-.7-2.1-.2-.7-.4-1.4-.6-2.1-.2-.7-.4-1.4-.6-2.1-.2-.7-.4-1.4-.6-2.1-.2-.7-.4-1.4-.6-2.1,0,0,0,0,0,0,0,0,0,0,0,0-1.1,3.4-2.1,6.9-3.2,10.3-.3,0-.6,0-.9,0-.3,0-.6,0-.9,0s-.6,0-.9,0c-.3,0-.6,0-.9,0,0-.1,0-.2,0-.3,1.4-4.3,2.8-8.7,4.2-13,0,0,0-.1,0-.2,0-.2,0-.4,0-.6-.4-1.3-.8-2.6-1.2-3.9-.9-2.8-1.8-5.5-2.6-8.3,0-.2,0-.3-.1-.5,0,0,0,0,0,0,0,0,0,0,0,0,1.2,0,2.4,0,3.6,0,.1,0,.2,0,.4,0,0,.1,0,.3.1.4.9,2.9,1.8,5.9,2.7,8.8,0,.1,0,.3.1.4,0,0,0,0,.1.1Z" style="fill: #010101;"/>
  <path d="M10.5,31.2v3.8c-.1,0-.3,0-.4,0-1.4,0-2.8,0-4.2,0-.2,0-.3,0-.5,0,0,.2,0,.4,0,.6,0,3.3,0,6.6,0,9.9s0,.4,0,.5c-.4,0-3.2,0-3.9,0,0,0,0-.2,0-.3,0,0,0-.2,0-.3v-26.2c.1,0,.2,0,.3,0,3.3,0,6.6,0,9.9,0,0,0,.2,0,.3,0,0,0,0,.1,0,.2,0,1.2,0,2.3,0,3.5,0,0,0,0,0,.1-.1.1-.3,0-.5,0-1.8,0-3.6,0-5.5,0s-.4,0-.5,0c0,0,0,.1,0,.2,0,2.6,0,5.2,0,7.8.3.1.7,0,1,0,.3,0,.7,0,1,0h2c.3,0,.7,0,1,0Z" style="fill: #010101;"/>
  <path d="M118.6,9.2c-.6,0-1.1,0-1.7.1-1.3,0-2.6.2-4,.3-1.2,0-2.3.2-3.5.2-1.1,0-2.3.2-3.4.2-.4,0-.9,0-1.3,0-.2,0-.4,0-.6-.1-.9-.4-1.8-.9-2.8-1.3-3.2-1.5-6.4-3.1-9.5-4.6-.2,0-.3-.2-.5-.3.2,0,.3,0,.4,0,.5,0,1,0,1.5-.1,2.1-.2,4.3-.3,6.4-.5,2.1-.2,4.1-.3,6.2-.5.2,0,.4,0,.6.2,1.5.8,2.9,1.5,4.4,2.3,2.5,1.3,4.9,2.5,7.4,3.8.1,0,.3.2.4.2,0,0,0,0,0,0Z" style="fill: #010101;"/>
  <path d="M110,17c-.2,0-.3,0-.5,0-2.1,0-4.1,0-6.1.1-.4,0-.7,0-1-.3-2.3-1.2-4.6-2.5-7-3.7-.1,0-.2,0-.3-.1,0,0,0-.2,0-.2.3-1.4.6-2.8.9-4.3,0,0,0,0,0-.1.2,0,.3.1.5.2,2.3,1.3,4.6,2.5,7,3.8.3.2.6.2.9.2,1.6-.1,3.3-.3,4.9-.4,1,0,2.1-.2,3.1-.3.2,0,.4,0,.6,0,0,.6-.2,1.1-.3,1.6,0,.6-.2,1.1-.3,1.7-.1.5-.2,1.1-.4,1.7-.4,0-.8,0-1.2,0-.2,0-.5,0-.7,0" style="fill: #010101;"/>
  <path d="M116.4,21.4c-.7,0-1.4-.3-2.2-.4,0-.1,0-.2,0-.3.9-2.8,1.9-5.7,2.8-8.5,0-.2.1-.3.2-.5,0,.9-.8,9.3-.8,9.7" style="fill: #010101;"/>
  <path d="M86.8,22.9c.1,0,.2,0,.3,0,1.4,0,2.8,0,4.2,0,.6,0,1.1,0,1.7.2,1.2.3,1.9,1.1,2.3,2.3.2.5.2,1.1.3,1.6,0,.8,0,1.6,0,2.4,0,.5-.1,1.1-.3,1.6-.2.8-.7,1.4-1.3,1.9,0,0-.1,0-.2.2,0,0,.1.1.2.2.7.4,1.1,1,1.4,1.8.2.7.3,1.3.3,2,0,1.2,0,2.5,0,3.7,0,.4,0,.9.1,1.3,0,.2.1.5.2.7-.4,0-2.5,0-2.9,0-.1-.3-.2-.5-.2-.8,0-.4,0-.9,0-1.3,0-1.1,0-2.3,0-3.4,0-.4,0-.8-.1-1.2,0-.2-.1-.4-.2-.6-.2-.4-.5-.6-.9-.7-.5-.1-1.1-.1-1.6,0,0,.2,0,.4,0,.6,0,2.3,0,4.6,0,6.9s0,.4,0,.6c-.5,0-1,0-1.4,0-.5,0-1,0-1.5,0,0-.1,0-.2,0-.3,0-.1,0-.2,0-.3,0-6.2,0-12.4,0-18.7,0-.2,0-.4,0-.6ZM89.8,25.8c0,.1,0,.2,0,.3,0,1.9,0,3.7,0,5.6,0,0,0,.2,0,.3.6,0,1.1,0,1.6,0,.5-.1.9-.4,1-.9.1-.3.2-.6.2-.9,0-.8,0-1.7,0-2.5,0-.3,0-.6-.1-.9-.2-.6-.6-.8-1.1-.9-.5,0-1,0-1.6,0Z" style="fill: #010101;"/>
  <path d="M59.2,34.8v5.4c0,.9,0,1.8,0,2.7-.3,0-.6,0-1,0-.3,0-.7,0-1,0-.3,0-.6,0-.9,0,0,0,0,0,0,0,0,0,0,0,0,0,0-.1,0-.2,0-.3,0-6.4,0-12.9,0-19.3,0,0,0,0,0-.1,0,0,.2,0,.3,0,1.5,0,2.9,0,4.4,0,.5,0,.9,0,1.4.2,1.3.3,2.1,1.1,2.5,2.4.2.6.2,1.3.2,1.9,0,.8,0,1.6,0,2.4,0,.4-.1.9-.2,1.3-.2.8-.7,1.4-1.4,1.9,0,0-.1,0-.2.1,0,0,0,0,0,.1.9.5,1.4,1.3,1.6,2.2.1.6.2,1.2.2,1.8,0,1,0,1.9,0,2.9,0,.9,0,1.8.3,2.7,0,0,0,0,0,0,0,0,0,0,0,0-.8,0-1.6,0-2.4,0h-.4c-.2-.4-.3-.8-.3-1.3,0-.7,0-1.4,0-2.1,0-.8,0-1.6,0-2.4,0-.3,0-.7-.1-1,0-.2-.1-.4-.2-.6-.2-.4-.5-.6-.9-.7-.5-.1-1.1-.1-1.7,0ZM59.3,31.9c.6,0,1.1,0,1.7,0,.5-.1.9-.4,1.1-.9,0-.3.2-.6.2-1,0-.8,0-1.5,0-2.3,0-.3,0-.7-.2-1-.2-.5-.6-.8-1.1-.8-.5,0-1,0-1.5,0,0,0,0,0,0,0,0,.5,0,5.6,0,6.1" style="fill: #010101;"/>
  <path d="M54.9,42.8c-.5,0-2.5,0-3,0-.2-.6-.2-1.2-.3-1.7,0-.6-.2-1.2-.3-1.8,0,0-.1,0-.2,0-1.1,0-2.1,0-3.2,0,0,0,0,0-.2,0-.1.6-.2,1.2-.3,1.7,0,.6-.2,1.2-.3,1.8-.5,0-.9,0-1.3,0-.4,0-.9,0-1.3,0,0-.1,0-.2,0-.2,1-6.5,1.9-12.9,2.9-19.4,0,0,0-.2,0-.3.4,0,.7,0,1.1,0,.3,0,.7,0,1,0s.7,0,1.1,0c.3,0,.7,0,1,0,0,0,0,0,0,0,0,0,0,0,0,0,1,6.6,2,13.2,3,19.8ZM50.9,36.5c0,0,0,0,0-.1-.4-3.2-.9-6.4-1.3-9.6,0,0,0,0,0,0,0,0,0,0,0,.1-.4,3.1-.9,6.3-1.3,9.4,0,0,0,0,0,0,0,0,0,0,0,0,0,0,0,0,.1,0,.8,0,1.6,0,2.4,0,0,0,0,0,.1,0Z" style="fill: #010101;"/>
  <path d="M105.8,28.3c-.5,0-2.3,0-2.7,0,0-.2,0-.3,0-.5,0-.4,0-.7,0-1.1,0-.2-.1-.4-.3-.6-.4-.7-1.8-.7-2.3,0-.1.2-.2.4-.3.6-.2.9,0,1.7.3,2.5.2.5.5.9.8,1.3.5.5,1,1.1,1.5,1.6.7.7,1.4,1.4,1.9,2.2.4.7.8,1.3.9,2.1.3,1.3.3,2.6,0,3.9,0,0,0,0,0,.1-.5,1.5-1.5,2.4-3.1,2.6-.8.1-1.6.1-2.4,0-1.1-.3-2-.9-2.5-2-.3-.6-.4-1.2-.5-1.8,0-.7,0-1.5,0-2.2,0,0,.2,0,.2,0,.8,0,1.6,0,2.4,0,0,0,0,0,.1,0,0,0,0,.2,0,.3,0,.4,0,.9,0,1.3,0,.3,0,.6.1.8.2.5.5.8,1.1.9.2,0,.4,0,.6,0,.5,0,.8-.3,1-.8,0-.1.1-.3.1-.4.1-.9,0-1.7-.3-2.5-.3-.6-.7-1.1-1.2-1.6-.5-.5-1-1-1.5-1.5-.7-.7-1.3-1.4-1.8-2.2-.7-1.2-1-2.5-.9-3.9,0-.7.1-1.5.4-2.2.5-1.2,1.3-1.9,2.5-2.2.2,0,.4-.1.6-.1.8,0,1.5,0,2.3.1,1.1.3,1.9,1,2.4,2,.3.7.4,1.4.5,2.2,0,.4,0,.8,0,1.2Z" style="fill: #010101;"/>
  <path d="M40.7,35.5c.5,0,2.3,0,2.8,0,0,0,0,.2,0,.3,0,.9,0,1.8,0,2.6,0,.7,0,1.4-.3,2-.5,1.4-1.4,2.3-2.9,2.6-.4,0-.8.1-1.2.1-.4,0-.9,0-1.3-.1-1.1-.3-1.9-.9-2.5-1.9-.3-.7-.5-1.4-.6-2.1,0-.3,0-.6,0-.8,0-3.5,0-6.9,0-10.4,0-.7,0-1.3.2-2,0-.3.2-.6.3-.9.5-1,1.2-1.7,2.3-2,1-.3,2.1-.3,3.1,0,1.1.3,1.9,1,2.3,2,.3.6.5,1.2.5,1.9,0,.9,0,1.8,0,2.7,0,0,0,0,0,.1-.4,0-.9,0-1.4,0-.4,0-.9,0-1.4,0,0-.1,0-.2,0-.3,0-.6,0-1.3,0-1.9,0-.3,0-.6-.1-.9-.2-.6-.6-1-1.3-1-.9,0-1.5.4-1.6,1.4,0,.3,0,.7,0,1,0,3.3,0,6.7,0,10,0,.3,0,.6,0,.9,0,.2,0,.4.1.5.2.5.5.7,1,.8.2,0,.4,0,.6,0,.6,0,1-.4,1.1-.9,0-.3.1-.6.1-.9,0-.8,0-1.6,0-2.4,0-.2,0-.3,0-.5Z" style="fill: #010101;"/>
  <path d="M76.9,23c0,0,.1,0,.2,0,2.6,0,5.2,0,7.8,0,0,.1,0,.2,0,.3,0,.8,0,1.5,0,2.3,0,0,0,.2,0,.2-.4,0-.8,0-1.2,0-.4,0-.9,0-1.3,0s-.8,0-1.2,0c-.4,0-.8,0-1.3,0,0,.6,0,1.2,0,1.9,0,.6,0,1.2,0,1.8,0,.6,0,1.2,0,1.9.1,0,.3,0,.4,0,1,0,2.1,0,3.1,0h.5c.1.3,0,.6,0,1,0,.3,0,.6,0,.9v.9c-.1.1-.3.1-.4.1-1,0-2.1,0-3.1,0h-.5c0,.1,0,.2,0,.3,0,1.8,0,3.5,0,5.3,0,0,0,.1,0,.2.2.1.3,0,.5,0,1.3,0,2.7,0,4,0s.3,0,.5,0c.1.3,0,.6,0,.9,0,.3,0,.6,0,.9,0,.3,0,.6,0,1-.1,0-.2,0-.3,0-2.5,0-5,0-7.4,0,0,0-.2,0-.3,0,0-.1,0-.2,0-.3,0-.1,0-.3,0-.4,0-6.2,0-12.4,0-18.6,0-.2,0-.4,0-.6Z" style="fill: #010101;"/>
  <path d="M67.1,22.9s.1,0,.2,0c1.7,0,7.2,0,7.7,0,0,.4,0,.9,0,1.4,0,.5,0,.9,0,1.4-.2.1-.3,0-.5,0-1.4,0-2.7,0-4.1,0h-.5c0,.1,0,.2,0,.3,0,1.7,0,3.3,0,5,0,0,0,.2,0,.3.7,0,1.3,0,2,0,.7,0,1.3,0,2,0,0,.1,0,.2,0,.2,0,.8,0,1.6,0,2.4,0,0,0,0,0,.2-.3,0-.6,0-1,0-.3,0-.7,0-1,0h-1.9c0,0,0,.2,0,.2,0,1.8,0,3.6,0,5.4,0,0,0,0,0,.2.1.1.3,0,.5,0,1.3,0,2.7,0,4,0s.3,0,.5,0c0,0,0,0,0,0,0,0,0,0,0,0,0,.8,0,1.6,0,2.4,0,0,0,.2,0,.3-.1,0-.2,0-.3,0-2.5,0-4.9,0-7.4,0,0,0-.2,0-.3,0,0,0,0,0,0,0,0,0,0,0,0,0,0-6.5,0-13.1,0-19.6,0,0,0,0,0-.1,0,0,0,0,0,0Z" style="fill: #010101;"/>
  <path d="M89.8,25.8c.6,0,1.1,0,1.6,0,.6,0,1,.3,1.1.9,0,.3.1.6.1.9,0,.8,0,1.7,0,2.5,0,.3,0,.6-.2.9-.2.5-.5.8-1,.9-.5.1-1.1,0-1.6,0,0,0,0-.2,0-.3,0-1.9,0-3.7,0-5.6,0,0,0-.2,0-.3" style="fill: #f3bf1a;"/>
  <path d="M59.3,31.9c0-.5,0-5.6,0-6.1,0,0,0,0,0,0,.5,0,1,0,1.5,0,.5,0,.9.3,1.1.8,0,.3.2.7.2,1,0,.8,0,1.5,0,2.3,0,.3,0,.7-.2,1-.2.5-.5.8-1.1.9-.5.1-1.1,0-1.7,0Z" style="fill: #efbe1b;"/>
  <path d="M50.9,36.5c0,0,0,0-.1,0-.8,0-1.6,0-2.4,0,0,0,0,0-.1,0,0,0,0,0,0,0,0,0,0,0,0,0,.4-3.1.9-6.3,1.3-9.4,0,0,0,0,0-.1,0,0,0,0,0,0,.4,3.2.9,6.4,1.3,9.6,0,0,0,0,0,.1Z" style="fill: #f1be1a;"/>
</svg>