<svg width="24" height="24" viewBox="0 0 24 24" fill="none" xmlns="http://www.w3.org/2000/svg">
<g id="tabler-icon-notebook">
<path id="Vector" d="M9 4V22M13 8H15M13 12H15M6 4H17C17.5304 4 18.0391 4.21071 18.4142 4.58579C18.7893 4.96086 19 5.46957 19 6V18C19 18.5304 18.7893 19.0391 18.4142 19.4142C18.0391 19.7893 17.5304 20 17 20H6C5.73478 20 5.48043 19.8946 5.29289 19.7071C5.10536 19.5196 5 19.2652 5 19V5C5 4.73478 5.10536 4.48043 5.29289 4.29289C5.48043 4.10536 5.73478 4 6 4Z" stroke="url(#paint0_linear_1124_1371)" stroke-linecap="round" stroke-linejoin="round"/>
</g>
<defs>
<linearGradient id="paint0_linear_1124_1371" x1="19" y1="8.38161" x2="-4.95887" y2="15.1119" gradientUnits="userSpaceOnUse">
<stop/>
<stop offset="1" stop-color="#F7C215"/>
</linearGradient>
</defs>
</svg>
