<svg width="24" height="25" viewBox="0 0 24 25" fill="none" xmlns="http://www.w3.org/2000/svg">
<g id="tabler-icon-user-star">
<path id="Vector" d="M6 21.5V19.5C6 18.4391 6.42143 17.4217 7.17157 16.6716C7.92172 15.9214 8.93913 15.5 10 15.5H10.5M8 7.5C8 8.56087 8.42143 9.57828 9.17157 10.3284C9.92172 11.0786 10.9391 11.5 12 11.5C13.0609 11.5 14.0783 11.0786 14.8284 10.3284C15.5786 9.57828 16 8.56087 16 7.5C16 6.43913 15.5786 5.42172 14.8284 4.67157C14.0783 3.92143 13.0609 3.5 12 3.5C10.9391 3.5 9.92172 3.92143 9.17157 4.67157C8.42143 5.42172 8 6.43913 8 7.5ZM17.8 21.317L15.628 22.455C15.5635 22.4886 15.491 22.5035 15.4186 22.4982C15.3461 22.493 15.2765 22.4677 15.2176 22.4251C15.1587 22.3826 15.1127 22.3245 15.0849 22.2574C15.0571 22.1903 15.0485 22.1167 15.06 22.045L15.475 19.634L13.718 17.927C13.6656 17.8763 13.6284 17.8119 13.6108 17.7411C13.5933 17.6703 13.5959 17.596 13.6186 17.5267C13.6412 17.4573 13.6829 17.3957 13.7388 17.3489C13.7948 17.3021 13.8627 17.272 13.935 17.262L16.363 16.91L17.449 14.717C17.4815 14.6517 17.5315 14.5967 17.5935 14.5583C17.6556 14.5199 17.727 14.4995 17.8 14.4995C17.8729 14.4995 17.9444 14.5199 18.0064 14.5583C18.0685 14.5967 18.1185 14.6517 18.151 14.717L19.237 16.91L21.665 17.262C21.737 17.2724 21.8047 17.3027 21.8604 17.3495C21.9162 17.3964 21.9576 17.4579 21.9802 17.527C22.0028 17.5962 22.0056 17.6704 21.9882 17.741C21.9708 17.8117 21.9341 17.8761 21.882 17.927L20.125 19.634L20.539 22.044C20.5514 22.1159 20.5434 22.1898 20.516 22.2573C20.4885 22.3249 20.4426 22.3834 20.3836 22.4262C20.3245 22.469 20.2547 22.4944 20.1819 22.4995C20.1092 22.5046 20.0364 22.4892 19.972 22.455L17.8 21.317Z" stroke="url(#paint0_linear_1235_4004)" stroke-width="2" stroke-linecap="round" stroke-linejoin="round"/>
</g>
<defs>
<linearGradient id="paint0_linear_1235_4004" x1="6" y1="13.0002" x2="21.9995" y2="13.0002" gradientUnits="userSpaceOnUse">
<stop stop-color="#F7C215"/>
<stop offset="1" stop-color="#91720C"/>
</linearGradient>
</defs>
</svg>
